<?xml version="1.0" encoding="UTF-8" standalone="no"?>
<!DOCTYPE svg PUBLIC "-//W3C//DTD SVG 1.1//EN" "http://www.w3.org/Graphics/SVG/1.1/DTD/svg11.dtd">
<svg width="100%" height="100%" viewBox="0 0 5317 2602" version="1.1" xmlns="http://www.w3.org/2000/svg" xmlns:xlink="http://www.w3.org/1999/xlink" xml:space="preserve" xmlns:serif="http://www.serif.com/" style="fill-rule:evenodd;clip-rule:evenodd;stroke-miterlimit:10;">
    <g id="Mesa-de-trabajo1" serif:id="Mesa de trabajo1" transform="matrix(1,0,0,1,-6.69786,-11.2615)">
        <rect x="6.698" y="11.262" width="5316.01" height="2601.52" style="fill:none;"/>
        <clipPath id="_clip1">
            <rect x="6.698" y="11.262" width="5316.01" height="2601.52"/>
        </clipPath>
        <g clip-path="url(#_clip1)">
            <g transform="matrix(5.55556,0,0,5.55556,-2263.04,-4980.99)">
                <clipPath id="_clip2">
                    <rect x="407.065" y="898.156" width="958.11" height="467.717" clip-rule="nonzero"/>
                </clipPath>
                <g clip-path="url(#_clip2)">
                    <g transform="matrix(1,0,0,1,649.384,1115.32)">
                        <path d="M0,453.627C-2.097,436.513 -1.929,419.999 -2.917,402.845C-3.954,384.854 -9.542,369.354 -14.781,352.208C-17.629,342.888 -19.842,332.758 -24.3,324.009C-26.045,320.584 -28.613,317.578 -30.267,314.082C-37.486,298.821 -36.425,282.47 -40.556,266.56C-44.061,253.058 -52.278,242.817 -59.61,231.356C-66.066,221.264 -70.752,210.317 -74.184,198.877C-78.357,184.965 -80.508,170.896 -86.492,157.64C-91.689,146.125 -95.54,133.924 -100.116,122.161C-107.462,103.276 -119.318,86.082 -132.125,70.391C-138.182,62.971 -145.264,56.571 -151.187,49.05C-156.138,42.761 -160.219,35.777 -166.601,30.949C-177.834,22.451 -187.261,15.579 -200.202,9.918C-206.203,7.293 -235.243,0 -241.856,1.052L-241.647,359.627L0,453.627Z" style="fill:rgb(201,207,196);fill-rule:nonzero;"/>
                    </g>
                    <g transform="matrix(1,0,0,1,1220.05,1222.18)">
                        <path d="M0,-432.718C-1.681,-403.158 -10.944,-376.381 -22.952,-349.238C-27.908,-338.035 -36.222,-336.478 -45.645,-329.964C-59.637,-320.291 -68.653,-302.98 -76.294,-288.206C-89.643,-262.395 -100.106,-235.007 -105.222,-206.419C-109.066,-184.926 -109.687,-163.373 -111.218,-141.609C-112.339,-125.676 -112.686,-114.285 -104.691,-100.462C-92.788,-79.881 -71.956,-78.881 -55.334,-64.116C-46.162,-55.969 -38.896,-45.111 -30.466,-36.118C-23.652,-28.852 -19.312,-20.056 -11.951,-13.264C2.437,0.011 23.627,3.422 42.588,3.87C60.754,4.301 77.244,-5.825 91.041,-16.305C101.926,-24.574 115.396,-28.73 126.955,-35.612C137.177,-41.697 145.965,-47.896 155.064,-55.792C161.104,-61.032 166.448,-66.056 171.355,-72.382C179.215,-82.514 189.026,-92.816 195.63,-103.749C201.345,-113.21 206.498,-123.637 210.419,-133.967C215.012,-146.067 214.81,-158.177 216.68,-170.621C221.229,-200.892 223.772,-228.037 214.377,-257.971C206.831,-282.012 185.163,-298.406 176.941,-321.652C171.25,-337.742 179.016,-356.753 181.01,-372.898C187.389,-424.553 114.614,-417.767 80.938,-419.714C64.148,-420.685 47.981,-429.143 31.826,-433.982C22.275,-436.843 12.786,-437.019 0,-432.718" style="fill:rgb(178,167,182);fill-rule:nonzero;"/>
                    </g>
                    <g transform="matrix(1,0,0,1,346.581,933.927)">
                        <path d="M0,418.77C20.024,442.609 16.602,436.736 58.17,453.813C121.629,479.883 154.089,501.098 221.395,492.108C320.893,478.818 321.996,443.646 346.374,388.962C361.079,355.978 353.195,358.595 356.5,335.698C364.077,283.202 365.678,287.152 342.841,251.024C262.384,123.74 34.372,-23.399 32.647,66.191C31.976,101.005 116.537,109.588 151.237,106.152C190.738,102.24 230.768,75.584 249.238,68.176C318.855,40.252 343.335,-6.576 353.826,-22.628C392.844,-82.328 378.145,-57.995 381.257,-63.803C386.911,-74.357 382.847,-78.371 388.513,-78.732" style="fill:none;fill-rule:nonzero;stroke:rgb(77,77,77);stroke-width:1px;"/>
                    </g>
                    <g transform="matrix(1,0,0,1,1502.73,1251.38)">
                        <path d="M0,-21.964C-5.301,-43.331 -8.607,-60.15 -20.118,-78.131C-32.494,-97.465 -48.378,-112.082 -65.744,-127.369C-81.076,-140.866 -103.304,-161.776 -125.274,-165.984C-145.766,-169.909 -168.976,-163.699 -187.659,-155.185C-230.786,-135.532 -249.309,-93.517 -273.834,-56.696C-282.348,-43.915 -289.747,-31.367 -297.173,-17.782C-305.488,-2.568 -314.186,9.154 -325.06,22.374C-344.058,45.467 -356.363,73.856 -378.239,93.975C-386.483,101.556 -392.682,111.151 -401.142,118.477C-410.788,126.831 -423.187,132 -434.581,137.467C-456.414,147.945 -482.456,147.4 -506.448,145.536C-515.733,144.815 -524.043,142.088 -533.071,140.542C-542.755,138.884 -552.344,139.862 -558.789,131.121" style="fill:none;fill-rule:nonzero;stroke:rgb(77,77,77);stroke-width:1px;"/>
                    </g>
                </g>
            </g>
        </g>
    </g>
</svg>
