<?xml version="1.0" encoding="UTF-8" standalone="no"?>
<!DOCTYPE svg PUBLIC "-//W3C//DTD SVG 1.1//EN" "http://www.w3.org/Graphics/SVG/1.1/DTD/svg11.dtd">
<svg width="100%" height="100%" viewBox="0 0 5325 2601" version="1.1" xmlns="http://www.w3.org/2000/svg" xmlns:xlink="http://www.w3.org/1999/xlink" xml:space="preserve" xmlns:serif="http://www.serif.com/" style="fill-rule:evenodd;clip-rule:evenodd;stroke-linejoin:round;stroke-miterlimit:2;">
    <g transform="matrix(5.55556,0,0,5.55556,-2263.41,-7582.31)">
        <g opacity="0.3">
            <g transform="matrix(1,0,0,1,1365.73,1832.57)">
                <path d="M0,-131.242C0,-126.214 0.068,-121.348 -0.089,-116.491C-0.108,-115.894 -1.295,-114.92 -2.02,-114.84C-4.282,-114.589 -6.586,-114.754 -8.866,-114.628C-13.508,-114.371 -18.146,-113.737 -22.781,-113.779C-34.419,-113.886 -46.06,-114.638 -57.688,-114.47C-71.61,-114.269 -85.578,-113.939 -99.416,-112.561C-106.465,-111.86 -113.786,-111.769 -120.62,-108.795C-124.994,-106.891 -130.069,-106.588 -134.415,-104.639C-141.865,-101.3 -146.179,-95.573 -146.221,-86.858C-146.258,-79.336 -143.842,-72.44 -141.886,-65.4C-140.093,-58.944 -137.883,-52.596 -136.325,-46.086C-134.284,-37.55 -132.638,-28.916 -130.948,-20.299C-129.897,-14.943 -129.039,-9.549 -128.188,-4.157C-127.985,-2.868 -128.158,-1.519 -128.158,0.146C-133.095,0.146 -137.739,0.21 -142.378,0.074C-143.043,0.055 -144.165,-0.868 -144.244,-1.48C-144.571,-4.004 -144.511,-6.575 -144.72,-9.118C-144.913,-11.474 -145.325,-13.813 -145.539,-16.169C-145.876,-19.889 -145.876,-23.659 -146.476,-27.333C-147.465,-33.409 -148.792,-39.43 -150.026,-45.465C-150.895,-49.706 -151.758,-53.95 -152.777,-58.156C-154.089,-63.564 -155.549,-68.937 -156.953,-74.323C-158.15,-78.914 -160.202,-83.477 -160.34,-88.098C-160.495,-93.287 -159.312,-98.625 -158.029,-103.725C-154.976,-115.875 -145.169,-119.791 -134.471,-123.058C-125.888,-125.68 -117.199,-127.177 -108.357,-128.089C-102.205,-128.723 -96.023,-129.082 -89.854,-129.553C-84.797,-129.937 -79.743,-130.506 -74.68,-130.617C-70.647,-130.706 -66.601,-130.003 -62.565,-130.056C-57.118,-130.13 -51.678,-130.621 -46.231,-130.877C-42.104,-131.072 -37.972,-131.27 -33.84,-131.309C-23.474,-131.406 -13.107,-131.419 -2.741,-131.449C-1.938,-131.452 -1.136,-131.332 0,-131.242" style="fill:rgb(201,192,184);fill-rule:nonzero;"/>
            </g>
            <g transform="matrix(1,0,0,1,1177.06,1736.18)">
                <path d="M0,-274.434C2.396,-279.972 3.734,-286.028 5.016,-291.965C5.581,-294.587 6.567,-295.101 8.728,-294.456C12.576,-293.309 16.396,-292.071 20.229,-290.871C24.823,-289.431 29.452,-288.09 34.005,-286.525C38.849,-284.859 43.571,-282.832 48.435,-281.231C54.973,-279.079 61.668,-277.392 68.154,-275.106C72.938,-273.419 77.76,-271.536 81.224,-267.474C85.313,-262.679 89.696,-258.091 93.341,-252.977C95.191,-250.378 95.701,-246.821 96.817,-243.696C96.523,-243.603 96.229,-243.511 95.935,-243.418C96.329,-237.77 94.72,-232.787 90.935,-228.588C90.068,-227.627 89.045,-226.631 87.887,-226.141C81.889,-223.6 76.317,-219.936 69.606,-219.21C68.349,-219.075 67.198,-218.118 65.952,-217.663C63.558,-216.788 61.153,-215.925 58.71,-215.202C56.252,-214.473 53.747,-213.899 51.254,-213.293C46.566,-212.155 41.868,-211.062 37.185,-209.909C35.689,-209.541 34.239,-208.995 32.746,-208.618C27.366,-207.253 21.979,-205.915 16.591,-204.587C11.489,-203.329 6.385,-202.079 1.273,-200.861C-0.828,-200.359 -2.956,-199.966 -5.064,-199.488C-6.65,-199.126 -8.229,-198.726 -9.802,-198.31C-15.831,-196.714 -21.834,-194.996 -27.916,-193.638C-28.679,-193.468 -30.768,-195.252 -30.699,-195.987C-30.095,-202.449 -29.646,-208.995 -28.174,-215.288C-25.854,-225.2 -20.11,-233.623 -15.348,-242.493C-9.763,-252.892 -4.689,-263.598 0,-274.434M-36.671,-233.958C-38.962,-228.788 -39.239,-222.762 -40.913,-217.271C-43.337,-209.32 -42.516,-201.243 -42.454,-193.191C-42.437,-190.922 -43.389,-190.243 -45.369,-189.63C-55.331,-186.547 -65.77,-185.097 -75.319,-180.532C-78.226,-179.143 -81.822,-179.282 -84.914,-178.188C-91.827,-175.744 -98.453,-172.311 -105.507,-170.49C-113.937,-168.314 -121.397,-163.998 -129.488,-161.17C-132.067,-160.268 -134.729,-159.604 -136.728,-159.015C-137.752,-158.944 -138.191,-159.025 -138.522,-158.872C-142.523,-157.035 -146.452,-155.029 -150.511,-153.333C-154.85,-151.522 -159.312,-150.005 -163.711,-148.338C-170.002,-145.956 -176.583,-144.121 -182.485,-140.999C-188.146,-138.005 -193.503,-134.109 -198.221,-129.765C-201.325,-126.908 -203.075,-122.567 -205.402,-118.871C-210.309,-111.081 -213.01,-102.523 -214.413,-93.465C-215.248,-88.08 -216.595,-82.774 -217.376,-77.383C-218.206,-71.656 -218.502,-65.852 -219.278,-60.115C-220.648,-49.984 -222.214,-39.879 -223.68,-29.76C-224.022,-27.392 -225.535,-27.542 -227.486,-27.387C-237.904,-26.558 -248.307,-25.516 -258.699,-24.4C-264.522,-23.774 -270.301,-22.743 -276.123,-22.106C-284.516,-21.188 -285.319,-21.082 -290.799,-28.711C-296.933,-37.25 -301.075,-46.729 -304.06,-56.762C-307.113,-67.032 -310.573,-77.198 -313.156,-87.584C-315.667,-97.679 -317.258,-108.002 -319.315,-118.212C-320.759,-125.374 -322.485,-132.483 -323.761,-139.672C-325.062,-147.006 -325.901,-154.421 -327.08,-161.779C-327.539,-164.641 -326.116,-165.874 -323.696,-166.318C-316.198,-167.694 -308.661,-168.869 -301.18,-170.331C-295.203,-171.499 -289.299,-173.037 -283.338,-174.288C-279.297,-175.137 -275.188,-175.669 -271.15,-176.53C-265.415,-177.752 -259.714,-179.138 -254.001,-180.468C-249.9,-181.423 -245.814,-182.439 -241.706,-183.357C-235.87,-184.661 -229.988,-185.777 -224.189,-187.228C-221.729,-187.843 -219.424,-189.088 -217.06,-190.077C-213.679,-191.49 -210.345,-193.026 -206.925,-194.335C-202.069,-196.196 -197.11,-197.791 -192.273,-199.7C-187.705,-201.503 -183.198,-203.48 -178.736,-205.536C-174.448,-207.513 -170.029,-209.338 -166.07,-211.863C-160.077,-215.685 -154.409,-220.023 -148.647,-224.204C-142.276,-228.827 -137.703,-235.067 -133.449,-241.553C-128.104,-249.704 -123.172,-258.102 -124.533,-268.401C-125.382,-274.816 -127.114,-281.036 -130.363,-286.777C-132.844,-291.16 -134.905,-295.777 -137.272,-300.227C-139.719,-304.825 -142.339,-309.33 -144.807,-313.916C-145.206,-314.659 -145.214,-315.612 -145.403,-316.467C-144.525,-316.595 -143.622,-316.926 -142.774,-316.82C-133.341,-315.635 -123.937,-314.18 -114.483,-313.211C-106.36,-312.378 -98.176,-312.169 -90.032,-311.519C-82.922,-310.951 -75.818,-310.257 -68.735,-309.425C-61.268,-308.547 -53.777,-307.716 -46.388,-306.365C-36.984,-304.644 -27.678,-302.39 -18.314,-300.441C-16.288,-300.02 -14.202,-299.849 -12.134,-299.684C-7.268,-299.295 -5.804,-296.713 -7.668,-292.302C-10.147,-286.434 -12.066,-280.315 -14.777,-274.564C-17.132,-269.568 -20.366,-264.996 -23.009,-260.124C-27.702,-251.472 -32.691,-242.937 -36.671,-233.958M-226.569,-5.274C-226.878,0.721 -227.135,6.719 -227.428,13.004C-228.56,12.917 -229.499,13.114 -230.105,12.752C-233.355,10.812 -236.486,8.675 -239.725,6.716C-244.4,3.889 -249.133,1.154 -253.846,-1.613C-254.46,-1.973 -255.198,-2.179 -255.713,-2.642C-256.883,-3.694 -257.949,-4.86 -259.058,-5.98C-257.673,-6.405 -256.315,-7.024 -254.9,-7.222C-247.146,-8.306 -239.394,-9.42 -231.611,-10.257C-226.288,-10.83 -226.293,-10.636 -226.569,-5.274M-316.187,-17.067C-325.741,-15.949 -335.46,-15.829 -344.882,-14.069C-357.521,-11.707 -370.208,-11.525 -382.942,-11.088C-396.515,-10.622 -410.08,-9.917 -423.645,-9.237C-428.897,-8.973 -434.143,-8.539 -439.384,-8.086C-441.891,-7.87 -442.792,-8.731 -442.322,-11.296C-441.058,-18.197 -439.875,-25.113 -438.752,-32.037C-437.196,-41.629 -435.704,-51.232 -434.237,-60.838C-433.955,-62.686 -434.058,-64.594 -433.744,-66.434C-432.732,-72.348 -431.609,-78.244 -430.53,-84.146C-430.492,-84.351 -430.447,-84.555 -430.427,-84.762C-429.766,-91.568 -429.037,-98.368 -428.466,-105.181C-427.713,-114.178 -427.22,-123.201 -426.275,-132.176C-426.104,-133.811 -424.644,-135.996 -423.192,-136.681C-419.031,-138.643 -414.581,-139.996 -410.223,-141.53C-402.875,-144.115 -395.523,-146.695 -388.143,-149.188C-385.905,-149.944 -383.556,-150.359 -381.282,-151.014C-374.171,-153.063 -367.082,-155.189 -359.964,-157.213C-355.312,-158.536 -350.627,-159.744 -345.951,-160.982C-345.151,-161.193 -344.33,-161.349 -343.508,-161.446C-338.709,-162.013 -338.863,-161.984 -338.221,-157.323C-336.667,-146.046 -335.109,-134.765 -333.255,-123.536C-331.845,-114.992 -330.118,-106.493 -328.273,-98.031C-326.475,-89.779 -324.375,-81.592 -322.354,-73.39C-320.461,-65.701 -318.767,-57.946 -316.479,-50.373C-314.61,-44.183 -312.069,-38.189 -309.687,-32.163C-308.114,-28.184 -306.294,-24.303 -304.225,-19.549C-308.236,-18.695 -312.171,-17.536 -316.187,-17.067M-341.95,-286.067C-343.047,-296.061 -343.464,-306.142 -343.83,-316.198C-343.922,-318.717 -343.338,-321.817 -341.85,-323.673C-340.518,-325.336 -337.582,-326.135 -335.232,-326.472C-329.113,-327.348 -322.94,-328.001 -316.768,-328.312C-301.821,-329.065 -286.868,-329.728 -271.909,-330.115C-263.609,-330.329 -255.287,-330.059 -246.985,-329.742C-238.831,-329.43 -230.684,-328.872 -222.545,-328.252C-216.664,-327.805 -210.771,-327.293 -204.941,-326.428C-196.912,-325.237 -188.948,-323.608 -180.932,-322.326C-178.076,-321.869 -175.118,-321.517 -172.256,-321.743C-165.808,-322.252 -163.251,-317.712 -160.772,-313.219C-156.016,-304.596 -151.52,-295.83 -146.855,-287.155C-143.903,-281.665 -140.762,-276.279 -137.851,-270.769C-133.634,-262.788 -135.054,-252.064 -141.021,-245.325C-143.18,-242.887 -145.21,-240.336 -147.347,-237.88C-147.942,-237.195 -148.64,-236.538 -149.415,-236.08C-156.205,-232.08 -162.985,-228.061 -169.848,-224.188C-173.767,-221.977 -177.719,-219.753 -181.862,-218.036C-186.37,-216.166 -191.123,-214.895 -195.758,-213.328C-199.416,-212.091 -203.209,-211.121 -206.669,-209.462C-212.574,-206.634 -219.312,-206.292 -225.024,-203.89C-232.999,-200.538 -241.539,-200.512 -249.47,-197.435C-255.25,-195.193 -261.674,-194.575 -267.838,-193.375C-276.741,-191.644 -285.662,-189.998 -294.59,-188.4C-302.223,-187.034 -309.886,-185.836 -317.515,-184.453C-320.133,-183.98 -322.751,-183.344 -325.259,-182.466C-327.574,-181.655 -328.706,-182.373 -328.929,-184.636C-329.519,-190.62 -330.02,-196.613 -330.557,-202.603C-330.473,-202.612 -330.389,-202.621 -330.305,-202.631C-331.436,-212.064 -332.487,-221.508 -333.72,-230.927C-334.832,-239.426 -336.09,-247.907 -337.378,-256.38C-338.882,-266.281 -340.858,-276.124 -341.95,-286.067M-441.602,-149.918C-445.878,-148.664 -449.982,-146.835 -454.203,-145.377C-459.536,-143.535 -464.909,-141.808 -470.265,-140.034C-473.968,-138.807 -477.676,-137.593 -481.375,-136.354C-483.966,-135.485 -485.44,-136.343 -487.317,-138.536C-491.402,-143.307 -496.113,-147.558 -500.722,-151.856C-503.399,-154.353 -506.29,-156.643 -509.24,-158.815C-511.889,-160.767 -514.732,-162.458 -517.522,-164.212C-520.898,-166.334 -524.347,-168.343 -527.696,-170.506C-535.27,-175.397 -542.804,-180.35 -550.351,-185.282C-558.332,-190.498 -566.247,-195.821 -574.318,-200.892C-577.946,-203.171 -581.912,-204.903 -585.668,-206.984C-587.449,-207.97 -589.411,-208.931 -590.668,-210.428C-591.271,-211.146 -590.909,-213.469 -590.161,-214.404C-586.151,-219.413 -581.98,-224.305 -577.676,-229.067C-572.001,-235.344 -566.093,-241.409 -560.401,-247.672C-557.224,-251.168 -554.298,-254.893 -551.232,-258.492C-548.519,-261.676 -545.744,-264.808 -543.042,-268.001C-538.216,-273.705 -533.529,-279.531 -528.586,-285.129C-524.722,-289.505 -523.158,-289.531 -518.621,-285.946C-511.649,-280.436 -504.495,-275.127 -497.831,-269.264C-491.888,-264.035 -486.359,-258.306 -480.914,-252.545C-475.237,-246.538 -469.719,-240.363 -464.451,-233.996C-461.783,-230.773 -459.656,-227.058 -457.576,-223.399C-454.145,-217.363 -450.606,-211.348 -447.735,-205.04C-442.904,-194.428 -438.821,-183.501 -437.204,-171.849C-436.762,-168.661 -436.763,-165.412 -436.56,-162.192C-436.5,-162.191 -436.44,-162.19 -436.381,-162.189C-436.381,-160.419 -436.428,-158.649 -436.372,-156.882C-436.201,-151.533 -436.467,-151.423 -441.602,-149.918M-695.683,-55.638C-695.929,-56.003 -696.175,-56.368 -696.421,-56.733C-695.032,-58.909 -693.667,-61.1 -692.25,-63.257C-688.476,-69.002 -684.685,-74.737 -680.891,-80.469C-677.564,-85.495 -674.096,-90.433 -670.92,-95.552C-666.093,-103.33 -661.538,-111.278 -656.718,-119.061C-654.576,-122.519 -651.921,-125.657 -649.759,-129.103C-645.23,-136.326 -641.093,-143.802 -636.394,-150.909C-629.767,-160.928 -622.793,-170.718 -615.935,-180.582C-612.723,-185.201 -609.377,-189.725 -606.194,-194.364C-603.471,-198.332 -602.247,-198.656 -597.823,-196.304C-593.485,-193.997 -588.982,-191.969 -584.791,-189.425C-578.611,-185.674 -572.677,-181.52 -566.573,-177.64C-562.25,-174.892 -557.758,-172.408 -553.453,-169.632C-549.324,-166.969 -545.382,-164.019 -541.282,-161.31C-535.388,-157.416 -529.327,-153.772 -523.519,-149.758C-515.873,-144.474 -508.391,-138.95 -500.874,-133.482C-500.02,-132.862 -499.385,-131.94 -498.068,-130.541C-565.392,-108.074 -630.22,-81.011 -695.683,-55.638M-2.672,-371.362L-11.154,-371.362C-11.568,-362.696 -9.596,-354.303 -7.823,-345.842C-5.853,-336.434 -3.13,-327.086 -3.885,-317.278C-4.193,-313.279 -4.24,-313.372 -8.041,-314.201C-13.081,-315.299 -18.206,-316.005 -23.277,-316.968C-29.861,-318.218 -36.422,-319.593 -43.008,-320.829C-44.936,-321.19 -46.92,-321.234 -48.874,-321.459C-60.442,-322.795 -72.004,-324.19 -83.579,-325.462C-88.716,-326.027 -93.9,-326.182 -99.024,-326.83C-105.105,-327.598 -111.151,-328.66 -117.201,-329.663C-127.377,-331.349 -137.544,-333.086 -147.713,-334.811C-150.235,-335.239 -152.801,-335.516 -155.26,-336.183C-159.019,-337.204 -160.861,-340.104 -162.678,-343.444C-165.062,-347.831 -168.202,-351.836 -171.25,-355.828C-175.271,-361.092 -179.406,-366.272 -183.645,-371.362L-204.87,-371.362C-204.365,-370.875 -203.854,-370.393 -203.357,-369.897C-199.832,-366.377 -196.636,-362.52 -193.37,-358.747C-189.083,-353.795 -184.841,-348.804 -180.658,-343.765C-180.005,-342.979 -179.765,-341.848 -179.334,-340.877C-180.345,-340.587 -181.401,-339.942 -182.358,-340.067C-188.499,-340.867 -194.611,-341.879 -200.746,-342.733C-204.226,-343.217 -207.721,-343.661 -211.224,-343.897C-219.404,-344.448 -227.623,-344.571 -235.772,-345.399C-249.044,-346.747 -262.308,-347.074 -275.615,-346.357C-278.415,-346.206 -281.228,-346.305 -284.031,-346.211C-290.165,-346.005 -296.297,-345.734 -302.431,-345.518C-309.584,-345.267 -316.764,-345.344 -323.882,-344.717C-329.377,-344.234 -334.523,-342.306 -339.729,-340.161C-348.16,-336.686 -350.776,-329.997 -352.083,-322.163C-353.1,-316.067 -353.69,-309.9 -354.471,-303.765C-354.244,-303.732 -354.017,-303.698 -353.79,-303.663C-352.981,-291.013 -352.475,-278.333 -351.257,-265.722C-350.435,-257.209 -348.489,-248.811 -347.264,-240.33C-345.813,-230.295 -344.491,-220.241 -343.311,-210.171C-342.262,-201.225 -341.412,-192.252 -340.672,-183.276C-340.574,-182.096 -341.316,-180.242 -342.247,-179.703C-344.354,-178.487 -346.778,-177.735 -349.151,-177.081C-357.475,-174.789 -365.821,-172.576 -374.181,-170.418C-379.945,-168.93 -385.776,-167.699 -391.518,-166.133C-394.963,-165.193 -398.29,-163.819 -401.677,-162.66C-404.278,-161.768 -406.88,-160.878 -409.499,-160.041C-412.619,-159.043 -415.752,-158.086 -418.89,-157.147C-419.983,-156.82 -421.096,-156.531 -422.219,-156.338C-424.219,-155.995 -425.209,-156.61 -425.371,-158.93C-425.825,-165.434 -426.284,-171.961 -427.255,-178.402C-428.497,-186.646 -429.735,-194.911 -432.961,-202.739C-435.15,-208.05 -436.3,-213.851 -438.912,-218.917C-443.037,-226.915 -447.864,-234.565 -452.641,-242.207C-458.225,-251.142 -465.144,-259.026 -472.578,-266.46C-478.423,-272.306 -484.002,-278.455 -490.189,-283.913C-495.625,-288.707 -501.753,-292.711 -507.544,-297.107C-508.812,-298.069 -510.353,-299.01 -510.998,-300.336C-511.435,-301.237 -510.906,-303.114 -510.158,-304.004C-505.499,-309.547 -500.764,-315.036 -495.85,-320.354C-487.536,-329.352 -478.908,-338.064 -470.733,-347.185C-466.116,-352.336 -461.299,-357.148 -455.392,-360.739C-450.305,-363.83 -445.684,-367.473 -441.257,-371.362L-464.803,-371.362C-467.458,-369.344 -470.061,-367.235 -472.531,-364.895C-479.373,-358.414 -485.234,-351.069 -492.101,-344.645C-496.403,-340.62 -499.735,-335.571 -503.709,-331.169C-507.392,-327.09 -511.368,-323.278 -515.177,-319.312C-516.863,-317.557 -518.472,-315.726 -520.088,-313.906C-523.048,-310.573 -526.415,-310.49 -530.306,-312.717C-538.855,-317.611 -547.622,-322.123 -556.271,-326.845C-560.178,-328.977 -564.008,-331.249 -567.889,-333.431C-571.543,-335.486 -575.207,-337.526 -578.887,-339.534C-585.371,-343.072 -591.855,-346.608 -598.369,-350.091C-602.436,-352.266 -606.591,-354.279 -610.644,-356.482C-616.047,-359.418 -621.337,-362.568 -626.773,-365.442C-630.627,-367.48 -634.537,-369.411 -638.437,-371.362L-672.865,-371.362C-672.096,-370.923 -671.329,-370.481 -670.557,-370.047C-662.257,-365.386 -653.962,-360.71 -645.563,-356.233C-638.071,-352.24 -630.389,-348.603 -622.887,-344.627C-617.827,-341.945 -612.976,-338.871 -607.953,-336.115C-603.839,-333.858 -599.553,-331.914 -595.447,-329.646C-591.148,-327.272 -587.023,-324.582 -582.73,-322.198C-576.21,-318.575 -569.603,-315.112 -563.047,-311.551C-556.356,-307.917 -549.676,-304.262 -543.008,-300.585C-541.264,-299.623 -539.483,-298.67 -537.939,-297.436C-537.531,-297.11 -537.586,-295.436 -538.041,-294.919C-541.135,-291.396 -544.486,-288.098 -547.575,-284.571C-552.186,-279.305 -556.572,-273.842 -561.202,-268.595C-564.026,-265.394 -567.2,-262.506 -570.085,-259.356C-572.912,-256.269 -575.537,-252.998 -578.312,-249.864C-580.862,-246.984 -583.504,-244.186 -586.088,-241.337C-588.42,-238.767 -590.799,-236.234 -593.034,-233.58C-596.639,-229.3 -599.958,-224.762 -603.766,-220.675C-605.771,-218.523 -608.652,-219.362 -611.037,-220.538C-621.694,-225.795 -632.304,-231.15 -642.941,-236.448C-649.462,-239.695 -655.979,-242.954 -662.541,-246.118C-668.989,-249.228 -675.506,-252.195 -681.968,-255.279C-688.041,-258.177 -694.043,-261.227 -700.152,-264.045C-702.556,-265.154 -705.201,-265.723 -707.672,-266.702C-712.488,-268.609 -717.224,-270.723 -722.061,-272.577C-726.075,-274.115 -730.185,-275.405 -734.254,-276.8C-738.246,-278.169 -742.205,-279.649 -746.241,-280.868C-751.162,-282.354 -756.125,-283.715 -761.116,-284.942C-763.912,-285.628 -766.802,-285.931 -769.649,-286.407L-769.649,-269.532C-764.637,-268.438 -759.585,-267.499 -754.625,-266.204C-750.175,-265.041 -745.809,-263.544 -741.44,-262.089C-735.685,-260.173 -729.942,-258.215 -724.235,-256.161C-719.104,-254.313 -713.971,-252.446 -708.944,-250.337C-703.737,-248.153 -698.652,-245.677 -693.522,-243.311C-687.212,-240.402 -680.881,-237.538 -674.617,-234.533C-670.581,-232.596 -666.678,-230.384 -662.663,-228.405C-658.261,-226.236 -653.8,-224.185 -649.36,-222.095C-645.093,-220.087 -640.819,-218.094 -636.548,-216.095C-632.291,-214.103 -628.01,-212.163 -623.786,-210.103C-621.486,-208.983 -619.039,-207.947 -617.156,-206.3C-616.376,-205.619 -616.273,-203.032 -616.937,-202.012C-620.321,-196.811 -624.035,-191.823 -627.673,-186.788C-632.001,-180.801 -636.526,-174.951 -640.669,-168.838C-643.946,-164.005 -646.757,-158.856 -649.806,-153.866C-654.835,-145.634 -659.839,-137.385 -664.95,-129.204C-669.401,-122.078 -673.973,-115.029 -678.518,-107.961C-680.902,-104.255 -683.314,-100.567 -685.762,-96.903C-689.91,-90.697 -694.017,-84.46 -698.299,-78.348C-700.462,-75.26 -703.074,-72.491 -705.292,-69.438C-707.268,-66.719 -709.056,-63.854 -710.792,-60.971C-713.4,-56.636 -715.742,-52.129 -718.521,-47.911C-719.385,-46.599 -721.182,-45.596 -722.754,-45.11C-732.659,-42.052 -742.586,-39.058 -752.576,-36.3C-757.366,-34.977 -762.305,-34.192 -767.188,-33.228C-767.975,-33.073 -768.828,-33.255 -769.649,-33.282L-769.649,-15.157C-763.426,-16.518 -757.211,-17.917 -750.978,-19.229C-746.137,-20.246 -741.283,-21.209 -736.412,-22.062C-735.551,-22.212 -734.574,-21.7 -733.692,-21.501C-736.528,-16.775 -738.961,-12.313 -741.789,-8.118C-744.889,-3.519 -748.407,0.797 -751.646,5.305C-755.637,10.861 -759.426,16.566 -763.512,22.049C-765.288,24.432 -767.588,26.424 -769.649,28.593L-769.649,52.968C-769.286,52.812 -768.791,52.758 -768.577,52.484C-764.19,46.856 -759.867,41.178 -755.465,35.563C-751.434,30.422 -747.086,25.51 -743.311,20.19C-738.798,13.831 -734.621,7.22 -730.525,0.58C-726.18,-6.465 -722.098,-13.673 -717.906,-20.813C-715.418,-25.048 -713.194,-29.54 -707.906,-31.022C-706.415,-31.44 -704.867,-31.715 -703.438,-32.289C-695.81,-35.357 -688.224,-38.53 -680.598,-41.605C-671.549,-45.255 -662.472,-48.834 -653.413,-52.46C-647.315,-54.902 -641.269,-57.478 -635.126,-59.799C-628.21,-62.412 -621.137,-64.617 -614.267,-67.341C-604.482,-71.222 -594.844,-75.471 -585.1,-79.456C-576.762,-82.866 -568.386,-86.184 -559.983,-89.428C-555.18,-91.282 -550.297,-92.932 -545.434,-94.628C-535.051,-98.25 -524.658,-101.849 -514.265,-105.441C-512.518,-106.044 -510.707,-106.471 -508.991,-107.147C-502.953,-109.527 -496.96,-112.021 -490.916,-114.384C-488.522,-115.32 -486.499,-113.62 -487.234,-111.185C-489.021,-105.265 -491.653,-99.741 -495.731,-95.007C-498.107,-92.249 -500.452,-89.46 -502.927,-86.793C-504.221,-85.4 -505.713,-84.174 -507.208,-82.989C-508.984,-81.58 -510.847,-80.28 -512.694,-78.962C-518.187,-75.044 -523.571,-70.958 -529.229,-67.295C-533.242,-64.698 -537.599,-62.62 -541.858,-60.42C-547.681,-57.412 -553.554,-54.503 -559.409,-51.561C-563.353,-49.58 -567.307,-47.619 -571.251,-45.642C-577.393,-42.562 -583.56,-39.532 -589.66,-36.372C-594.306,-33.967 -599.002,-31.615 -603.429,-28.842C-609.412,-25.095 -615.271,-21.124 -620.97,-16.958C-625.631,-13.55 -630.361,-10.122 -633.3,-4.875C-634.64,-2.484 -636.984,-0.385 -637.507,2.131C-638.251,5.718 -638.526,9.776 -637.607,13.264C-635.413,21.587 -631.875,29.448 -627.208,36.754C-623.695,42.255 -620.106,47.724 -616.936,53.423C-615.75,55.553 -614.838,58.439 -615.251,60.716C-615.86,64.072 -617.255,67.553 -619.224,70.337C-623.884,76.927 -629.045,83.166 -634.076,89.489C-635.932,91.821 -637.991,93.991 -640.224,96.538C-632.787,96.538 -625.545,96.57 -618.305,96.484C-617.643,96.477 -616.856,95.844 -616.353,95.295C-612.317,90.887 -608.99,86.008 -606.58,80.506C-604.488,75.732 -602.563,70.974 -603.467,65.56C-605.106,55.735 -609.093,46.881 -614.386,38.546C-617.944,32.943 -621.783,27.49 -624.894,21.648C-626.127,19.334 -626.584,15.917 -625.907,13.404C-624.273,7.346 -619.185,3.777 -614.366,0.311C-610.381,-2.555 -606.162,-5.108 -601.952,-7.641C-595.12,-11.75 -588.271,-15.838 -581.312,-19.724C-577.034,-22.114 -572.524,-24.086 -568.14,-26.29C-563.55,-28.597 -558.986,-30.958 -554.41,-33.293C-548.939,-36.085 -543.398,-38.75 -538.017,-41.705C-533.726,-44.061 -529.603,-46.729 -525.451,-49.331C-519.947,-52.783 -514.41,-56.188 -509.03,-59.827C-502.914,-63.963 -497.569,-69.028 -492.925,-74.756C-490.423,-77.843 -488.521,-81.417 -486.047,-84.53C-481.372,-90.411 -479.342,-97.225 -478.68,-104.509C-478.351,-108.126 -478.718,-111.806 -478.412,-115.427C-478.298,-116.772 -477.485,-118.606 -476.422,-119.205C-474.321,-120.392 -471.821,-120.869 -469.489,-121.648C-465.307,-123.045 -461.12,-124.432 -456.946,-125.854C-451.312,-127.773 -445.743,-129.906 -440.041,-131.589C-436.473,-132.642 -435.995,-132.183 -436.236,-128.482C-436.741,-120.726 -437.624,-112.994 -438.101,-105.238C-438.642,-96.452 -439.091,-87.729 -441.151,-79.066C-443.033,-71.154 -443.766,-62.965 -444.964,-54.892C-446.056,-47.538 -447.023,-40.166 -448.173,-32.823C-449.373,-25.157 -450.608,-17.492 -452.133,-9.887C-452.367,-8.721 -454.176,-7.119 -455.366,-7.018C-465.997,-6.119 -476.65,-5.478 -487.301,-4.838C-492.277,-4.54 -497.312,-4.785 -502.233,-4.126C-510.604,-3.007 -518.877,-1.166 -527.247,-0.031C-531.87,0.596 -535.022,3.353 -537.785,6.447C-539.562,8.438 -541.846,10.609 -541.263,14.056C-540.627,17.815 -540.362,21.64 -540.024,25.445C-539.458,31.84 -538.921,38.239 -538.453,44.643C-538.196,48.165 -538.205,51.708 -537.908,55.225C-537.656,58.207 -536.957,61.154 -536.771,64.135C-536.144,74.176 -535.688,84.229 -535.056,94.269C-535.006,95.055 -534.141,96.406 -533.585,96.442C-530.417,96.653 -527.227,96.545 -523.416,96.545C-523.947,92.689 -524.366,89.335 -524.883,85.996C-525.214,83.855 -525.861,81.754 -526.066,79.605C-526.794,71.967 -527.386,64.317 -528.042,56.672C-528.716,48.821 -529.38,40.968 -530.107,33.122C-530.287,31.178 -530.569,29.226 -531.021,27.33C-532.108,22.763 -531.203,19.584 -527.766,18.476C-523.657,17.153 -519.419,15.804 -515.158,15.465C-503.076,14.505 -490.954,14.05 -478.848,13.402C-476.15,13.257 -473.443,13.221 -470.754,12.975C-467.157,12.646 -463.578,12.121 -459.983,11.755C-457.36,11.488 -456.008,12.441 -456.62,15.364C-457.194,18.099 -457.671,20.864 -458.018,23.637C-459.288,33.812 -460.322,44.019 -461.759,54.17C-463.165,64.088 -464.943,73.953 -466.584,83.837C-466.957,86.079 -467.525,88.289 -467.845,90.537C-468.115,92.439 -468.155,94.375 -468.301,96.35L-458.592,96.35C-457.396,88.251 -456.212,80.377 -455.076,72.496C-454.367,67.571 -453.8,62.624 -453.041,57.707C-451.684,48.928 -450.158,40.175 -448.842,31.39C-447.997,25.75 -447.381,20.074 -446.705,14.409C-446.372,11.627 -444.67,10.492 -442.078,10.356C-431.832,9.82 -421.59,9.014 -411.337,8.821C-390.912,8.436 -370.508,7.991 -350.243,5.05C-347.273,4.62 -344.186,4.985 -341.227,4.512C-333.592,3.295 -326.027,1.616 -318.38,0.494C-311,-0.588 -303.56,-1.286 -296.13,-1.989C-292.554,-2.327 -289.013,-2.651 -285.762,-0.078C-282.086,2.83 -278.128,5.417 -274.115,7.851C-266.675,12.365 -259.113,16.678 -251.588,21.05C-246.002,24.296 -240.402,27.518 -234.791,30.718C-230.418,33.213 -227.775,36.062 -228.665,41.982C-230.184,52.099 -230.684,62.375 -231.489,72.593C-231.915,77.989 -232.033,83.408 -232.379,88.811C-232.742,94.476 -233.493,95.044 -239.082,95.047C-243.868,95.048 -248.654,95.261 -253.44,95.381C-253.431,95.704 -253.422,96.026 -253.412,96.348L-224.538,96.348C-223.892,89.998 -223.176,83.828 -222.654,77.641C-221.834,67.917 -221.151,58.181 -220.393,48.452C-220.265,46.809 -220.073,45.171 -219.864,43.536C-219.637,41.753 -218.79,41.154 -217.112,42.144C-208.942,46.968 -200.775,51.796 -192.586,56.586C-188.809,58.796 -185.016,60.982 -181.17,63.07C-175.964,65.897 -170.684,68.588 -165.466,71.394C-158.436,75.178 -151.438,79.023 -144.421,82.831C-138.513,86.038 -132.615,89.266 -126.676,92.416C-122.131,94.826 -117.643,96.928 -112.12,96.673C-102.779,96.243 -93.405,96.548 -84.046,96.525C-83.19,96.523 -82.335,96.387 -80.627,96.24C-86.521,93.003 -91.641,90.223 -96.73,87.389C-106.742,81.815 -116.696,76.134 -126.754,70.645C-133.822,66.788 -141.032,63.193 -148.157,59.439C-150.135,58.397 -152.02,57.179 -153.975,56.091C-157.42,54.173 -160.859,52.24 -164.351,50.406C-168.423,48.266 -172.631,46.375 -176.63,44.11C-182.772,40.631 -188.753,36.867 -194.864,33.332C-200.868,29.859 -206.967,26.55 -212.991,23.113C-216.952,20.854 -219.544,18.104 -218.786,12.791C-217.73,5.398 -217.619,-2.125 -216.755,-9.552C-216.6,-10.884 -214.944,-12.774 -213.651,-13.103C-209.688,-14.111 -205.562,-14.466 -201.504,-15.109C-196.827,-15.85 -192.143,-16.555 -187.484,-17.407C-180.172,-18.744 -172.852,-20.063 -165.585,-21.625C-157.035,-23.463 -148.532,-25.526 -140.021,-27.543C-134.719,-28.801 -129.488,-30.43 -124.136,-31.395C-118.464,-32.418 -112.679,-32.798 -106.955,-33.558C-98.695,-34.653 -90.43,-35.731 -82.197,-37.012C-74,-38.286 -66.811,-36.045 -60.674,-30.762C-55.767,-26.538 -50.896,-22.154 -46.712,-17.239C-41.976,-11.676 -37.796,-5.591 -33.809,0.549C-31.02,4.845 -29.055,9.67 -26.544,14.158C-24.297,18.174 -21.496,21.904 -19.489,26.028C-15.548,34.129 -11.723,42.306 -8.346,50.654C-5.066,58.76 -2.212,67.055 0.458,75.386C2.655,82.24 4.309,89.268 6.249,96.389L18.869,96.389C18.869,95.682 18.948,95.166 18.856,94.68C17.747,88.804 16.89,82.862 15.413,77.079C13.453,69.399 11.165,61.793 8.711,54.256C7.027,49.082 4.86,44.063 2.837,39.004C0.854,34.042 -0.983,29 -3.318,24.206C-6.077,18.545 -9.303,13.113 -12.322,7.58C-15.215,2.28 -17.914,-3.138 -21.041,-8.295C-25.362,-15.423 -29.429,-22.827 -34.667,-29.242C-40.075,-35.867 -46.436,-41.871 -53.937,-46.25C-57.696,-48.445 -61.738,-50.431 -65.909,-51.577C-72.967,-53.515 -80.238,-51.911 -87.414,-51.705C-90.718,-51.611 -94.025,-51.135 -97.301,-50.636C-106.055,-49.3 -114.791,-47.858 -123.535,-46.459C-124.661,-46.28 -125.813,-46.202 -126.914,-45.924C-132.407,-44.543 -137.89,-43.119 -143.371,-41.695C-148.945,-40.247 -154.464,-38.529 -160.101,-37.4C-165.451,-36.327 -170.922,-35.858 -176.341,-35.137C-179.314,-34.742 -182.306,-34.463 -185.265,-33.981C-194.033,-32.552 -202.789,-31.049 -211.549,-29.573C-213.688,-29.212 -214.445,-30.232 -214.166,-32.228C-213.666,-35.811 -213.041,-39.378 -212.633,-42.971C-211.475,-53.162 -210.487,-63.373 -209.26,-73.556C-208.555,-79.411 -208.106,-85.398 -206.467,-91.01C-204.647,-97.238 -201.949,-103.286 -198.97,-109.068C-197.03,-112.83 -194.429,-116.619 -191.201,-119.267C-184.868,-124.462 -176.957,-126.914 -169.395,-129.848C-162.885,-132.373 -156.301,-134.708 -149.816,-137.296C-142.402,-140.255 -135.096,-143.484 -127.679,-146.436C-122.183,-148.623 -116.575,-150.526 -111.038,-152.609C-104.809,-154.952 -98.664,-157.539 -92.37,-159.687C-84.107,-162.505 -75.755,-165.062 -67.403,-167.603C-62.207,-169.184 -56.932,-170.501 -51.709,-171.994C-49.052,-172.752 -46.38,-173.502 -43.805,-174.492C-39.558,-176.122 -37.731,-175.531 -35.17,-171.669C-32.237,-167.251 -29.517,-162.626 -26.093,-158.614C-16.635,-147.529 -5.249,-138.744 7.463,-131.656C12.28,-128.97 16.929,-125.971 21.812,-123.417C26.423,-121.007 31.092,-118.546 36.001,-116.907C44.484,-114.074 53.118,-111.635 61.795,-109.454C68.571,-107.752 75.457,-106.144 82.387,-105.483C90.903,-104.67 99.329,-105.046 107.34,-109.428C111.642,-111.782 115.394,-114.422 118.078,-118.319C126.911,-131.137 131.941,-145.596 135.554,-160.601C136.495,-164.511 137.276,-168.474 137.86,-172.453C138.849,-179.196 140.261,-185.963 140.332,-192.733C140.433,-202.35 139.517,-211.98 138.965,-221.6C138.618,-227.649 138.071,-233.686 137.739,-239.736C137.107,-251.251 136.221,-262.768 136.102,-274.291C136.015,-282.769 136.498,-291.322 137.61,-299.724C138.827,-308.919 145.163,-314.851 154.142,-316.386C159.945,-317.378 165.883,-317.602 171.768,-318.081C172.986,-318.181 174.234,-317.879 175.471,-317.781C179.769,-317.44 184.066,-317.106 188.65,-316.747C188.65,-322.167 188.766,-327.148 188.531,-332.111C188.494,-332.892 186.902,-334.193 185.974,-334.244C178.608,-334.653 171.224,-335.122 163.858,-334.952C158.74,-334.833 153.62,-333.879 148.544,-333.038C138.086,-331.303 131.823,-323.823 128.192,-315.063C125.379,-308.274 124.668,-300.315 124.414,-292.828C124.014,-281.027 124.635,-269.18 125.1,-257.363C125.516,-246.782 126.333,-236.216 126.921,-225.64C127.658,-212.353 127.45,-199.092 125.581,-185.893C125.407,-184.664 125.058,-183.458 124.745,-182.253C124.104,-179.771 123.335,-177.317 122.796,-174.813C122.001,-171.121 121.375,-167.394 120.638,-163.69C120.54,-163.197 120.219,-162.747 119.993,-162.282C118.651,-159.508 116.919,-156.853 116.04,-153.939C113.892,-146.809 110.717,-140.135 106.678,-134.009C102.166,-127.163 95.083,-123.517 87.187,-122.153C76.773,-120.355 66.467,-122.56 56.47,-125.074C46.73,-127.522 37.309,-131.252 27.781,-134.52C16.907,-138.25 7.372,-144.552 -1.924,-151.051C-8.842,-155.887 -15.143,-161.645 -21.464,-167.28C-23.703,-169.277 -25.359,-172.015 -26.97,-174.61C-28.414,-176.938 -27.748,-178.866 -25.625,-179.327C-21.283,-180.27 -16.893,-180.994 -12.566,-181.998C-7.758,-183.114 -2.998,-184.438 1.783,-185.674C4.071,-186.266 6.379,-186.797 8.643,-187.474C16.599,-189.851 24.501,-192.417 32.496,-194.65C40.018,-196.749 47.641,-198.483 55.199,-200.451C57.594,-201.075 59.991,-201.78 62.276,-202.718C69.29,-205.6 76.243,-208.628 83.23,-211.572C91.204,-214.931 96.615,-221.106 100.793,-228.326C103.134,-232.371 104.835,-236.861 106.306,-241.321C108.578,-248.211 108.035,-255.092 104.459,-261.463C101.213,-267.247 97.806,-272.853 92.882,-277.588C88.835,-281.481 84.671,-284.864 79.494,-286.904C74.268,-288.964 68.988,-290.901 63.683,-292.746C59.632,-294.155 55.481,-295.272 51.414,-296.635C45.089,-298.754 38.851,-301.15 32.477,-303.103C24.399,-305.578 16.206,-307.671 8.112,-310.094C7.175,-310.374 6.023,-311.618 5.866,-312.564C4.659,-319.803 3.738,-327.09 2.598,-334.342C1.925,-338.622 1.48,-343.022 0.105,-347.087C-2.299,-354.199 -2.85,-361.438 -2.806,-368.82C-2.801,-369.686 -2.746,-370.529 -2.672,-371.362Z" style="fill:rgb(201,192,184);fill-rule:nonzero;"/>
            </g>
        </g>
    </g>
</svg>
