<?xml version="1.0" encoding="UTF-8" standalone="no"?>
<!DOCTYPE svg PUBLIC "-//W3C//DTD SVG 1.1//EN" "http://www.w3.org/Graphics/SVG/1.1/DTD/svg11.dtd">
<svg width="100%" height="100%" viewBox="0 0 5424 2971" version="1.1" xmlns="http://www.w3.org/2000/svg" xmlns:xlink="http://www.w3.org/1999/xlink" xml:space="preserve" xmlns:serif="http://www.serif.com/" style="fill-rule:evenodd;clip-rule:evenodd;stroke-miterlimit:10;">
    <g transform="matrix(5.65962,0,0,5.98475,-2304.22,-10790.6)">
        <clipPath id="_clip1">
            <rect x="406.644" y="1833.14" width="958.109" height="467.716" clip-rule="nonzero"/>
        </clipPath>
        <g clip-path="url(#_clip1)">
            <g transform="matrix(1,0,0,1,565.897,2308.5)">
                <path d="M0,-353.483C0.018,-353.525 0.035,-353.568 0.052,-353.611C-4.541,-355.476 -9.118,-357.381 -13.732,-359.193C-17.005,-360.478 -20.282,-361.787 -23.64,-362.814C-27.908,-364.119 -32.262,-365.143 -36.574,-366.307C-37.189,-366.473 -37.769,-366.764 -38.374,-366.972C-38.825,-367.127 -39.283,-367.274 -39.75,-367.369C-42.694,-367.964 -45.65,-368.504 -48.585,-369.139C-51.522,-369.776 -54.433,-370.536 -57.369,-371.177C-59.533,-371.651 -61.721,-372.015 -63.896,-372.439C-65.912,-372.831 -67.911,-373.459 -69.942,-373.582C-72.672,-373.748 -75.392,-374.103 -78.122,-374.267C-82.08,-374.504 -85.943,-374.626 -89.918,-374.246C-94.773,-373.781 -99.398,-372.648 -103.882,-370.927C-107.909,-369.382 -111.799,-367.483 -115.749,-365.738C-120.208,-363.767 -124.712,-361.895 -129.112,-359.8C-135.568,-356.727 -142,-353.595 -148.187,-349.99C-149.348,-349.313 -150.593,-348.775 -151.727,-348.057C-154.724,-346.16 -157.681,-344.199 -160.655,-342.264C-160.855,-342.133 -161.06,-342.008 -161.264,-341.883C-163.065,-340.785 -165.052,-339.9 -166.63,-338.542C-169.731,-335.871 -173.449,-334.11 -176.482,-331.306C-179.604,-328.421 -182.676,-325.546 -185.129,-322.066C-186.044,-320.766 -186.84,-319.381 -187.761,-318.087C-190.065,-314.847 -192.236,-311.531 -193.765,-307.844C-195.388,-303.929 -196.991,-300.004 -198.534,-296.056C-199.258,-294.201 -199.967,-292.317 -200.428,-290.385C-201.556,-285.666 -202.536,-280.91 -203.577,-276.17C-203.645,-275.857 -203.763,-275.552 -203.802,-275.238C-204.359,-270.787 -204.905,-266.335 -205.458,-261.883C-205.633,-260.478 -205.758,-259.063 -206.023,-257.674C-206.455,-255.41 -207.082,-253.177 -207.427,-250.901C-207.601,-249.76 -207.535,-248.5 -207.234,-247.385C-205.448,-240.776 -203.515,-234.206 -201.726,-227.597C-200.537,-223.205 -199.523,-218.764 -198.396,-214.355C-197.908,-212.447 -197.295,-210.572 -196.801,-208.666C-195.874,-205.088 -195.127,-201.459 -194.062,-197.923C-192.107,-191.435 -189.977,-184.999 -187.917,-178.542C-187.775,-178.099 -187.637,-177.653 -187.455,-177.227C-186.145,-174.179 -185.553,-170.903 -184.275,-167.818C-182.847,-164.368 -182.197,-160.603 -180.984,-157.052C-179.484,-152.659 -177.706,-148.362 -176.138,-143.991C-174.831,-140.349 -173.712,-136.639 -172.394,-133.002C-171.726,-131.16 -170.651,-129.462 -170.024,-127.61C-168.635,-123.511 -167.652,-119.261 -166.063,-115.248C-164.038,-110.133 -162.241,-104.914 -159.413,-100.12C-157.376,-96.668 -155.893,-92.893 -153.927,-89.394C-151.41,-84.913 -148.729,-80.518 -145.98,-76.172C-143.835,-72.781 -141.576,-69.45 -139.187,-66.225C-137.602,-64.086 -135.447,-62.347 -133.991,-60.137C-131.184,-55.878 -127.448,-52.46 -124.147,-48.656C-120.642,-44.615 -116.881,-40.793 -113.179,-36.926C-110.686,-34.323 -108.203,-31.694 -105.529,-29.284C-102.601,-26.645 -99.492,-24.202 -96.397,-21.755C-94.098,-19.938 -91.772,-18.133 -89.32,-16.537C-85.996,-14.371 -82.603,-12.291 -79.122,-10.39C-75.342,-8.328 -71.493,-6.366 -67.555,-4.629C-62.582,-2.433 -57.53,-0.396 -52.432,1.492C-49.234,2.675 -45.889,3.461 -42.608,4.418C-42.38,4.485 -42.134,4.488 -41.897,4.527C-39.633,4.906 -37.37,5.292 -35.104,5.665C-31.591,6.244 -28.087,6.893 -24.56,7.36C-21.901,7.71 -19.213,7.96 -16.534,8.006C-13.168,8.064 -9.792,7.959 -6.431,7.756C-2.66,7.528 1.098,7.071 4.867,6.788C8.799,6.493 12.651,5.568 16.638,5.59C19.119,5.604 21.593,4.779 24.089,4.621C29.354,4.289 34.531,3.187 39.841,3.131C43.517,3.092 47.181,2.314 50.859,1.943C56.318,1.392 61.786,0.92 67.248,0.388C68.347,0.282 69.434,-0.091 70.527,-0.092C76.426,-0.096 82.246,-1.193 88.164,-1.173C92.92,-1.158 97.681,-1.822 102.436,-2.23C107.678,-2.68 112.92,-3.136 118.153,-3.681C121.601,-4.04 125.035,-4.537 128.47,-5.013C131.837,-5.481 135.217,-5.895 138.555,-6.526C142.108,-7.199 145.623,-8.082 149.148,-8.902C154.048,-10.044 158.951,-11.177 163.835,-12.384C165.893,-12.892 167.924,-13.527 169.937,-14.197C172.856,-15.168 175.835,-16.029 178.632,-17.286C183.874,-19.642 188.994,-22.271 194.184,-24.746C198.193,-26.659 201.762,-29.287 205.217,-31.985C210.301,-35.954 214.973,-40.424 219.32,-45.212C221.799,-47.942 224.313,-50.641 226.765,-53.395C227.701,-54.447 228.606,-55.552 229.354,-56.741C232.006,-60.959 233.727,-65.621 235.616,-70.201C236.921,-73.367 237.88,-76.558 237.958,-80.06C238.052,-84.329 237.638,-88.541 236.937,-92.706C235.835,-99.256 233.867,-105.596 231.514,-111.811C230.649,-114.093 229.896,-116.427 228.891,-118.646C227.52,-121.67 225.89,-124.576 224.493,-127.588C223.106,-130.581 221.958,-133.685 220.549,-136.667C217.725,-142.647 214.744,-148.552 211.925,-154.534C209.461,-159.761 206.457,-164.68 203.305,-169.489C200.207,-174.214 196.727,-178.692 193.392,-183.261C192.188,-184.912 190.932,-186.524 189.676,-188.136C187.016,-191.55 184.285,-194.913 181.683,-198.371C178.475,-202.636 175.374,-206.983 172.215,-211.286C170.498,-213.625 168.729,-215.925 167.032,-218.28C165.063,-221.013 163.258,-223.871 161.185,-226.521C157.885,-230.737 154.892,-235.177 151.453,-239.298C148.488,-242.85 146.029,-246.82 143.21,-250.5C140.444,-254.111 137.499,-257.584 134.647,-261.129C133.953,-261.994 133.435,-263.032 132.635,-263.773C128.587,-267.523 125.466,-272.108 121.239,-275.754C117.44,-279.031 114.226,-282.992 110.018,-285.861C108.992,-286.561 108.118,-287.484 107.162,-288.289C104.276,-290.719 101.423,-293.19 98.482,-295.553C96.458,-297.18 94.299,-298.64 92.224,-300.206C91.722,-300.585 91.358,-301.15 90.848,-301.514C88.224,-303.385 85.582,-305.231 82.929,-307.061C79.805,-309.217 76.666,-311.352 73.529,-313.49C71.895,-314.604 70.226,-315.67 68.62,-316.824C67.083,-317.927 65.671,-319.211 64.093,-320.247C61.113,-322.202 58.065,-324.055 55.025,-325.917C51.578,-328.028 48.142,-330.163 44.637,-332.174C41.602,-333.917 38.476,-335.501 35.391,-337.156C35.039,-337.345 34.699,-337.555 34.349,-337.748C30.234,-340.015 26.251,-342.576 21.975,-344.481C14.747,-347.7 7.335,-350.504 0,-353.483ZM943.309,-381.559C939.228,-379.898 791.433,-336.727 787.249,-335.38C783.045,-334.027 779.139,-331.856 774.902,-330.772C771.697,-329.952 768.811,-328.34 765.483,-327.782C762.193,-327.229 759.088,-325.642 755.855,-324.662C752.77,-323.725 749.613,-323.022 746.507,-322.149C743.087,-321.188 739.689,-320.143 736.277,-319.152C734.556,-318.653 732.85,-318.005 731.09,-317.754C727.015,-317.17 723.094,-316.047 719.159,-314.897C716.375,-314.084 713.493,-313.608 710.665,-312.937C706.478,-311.945 702.249,-311.081 698.133,-309.845C694.664,-308.805 691.317,-307.347 687.941,-306.012C685.59,-305.083 683.23,-304.147 680.964,-303.033C679,-302.067 677.162,-300.842 675.265,-299.74C673.898,-298.945 672.515,-298.178 671.157,-297.368C669.071,-296.123 667.099,-294.635 664.901,-293.641C662.04,-292.347 659.011,-291.419 656.04,-290.371C655.299,-290.109 654.515,-289.931 653.734,-289.822C652.493,-289.648 651.201,-289.309 649.997,-289.49C645.584,-290.152 641.149,-289.601 636.736,-289.894C635.72,-289.962 634.695,-289.948 633.676,-289.926C629.635,-289.841 625.753,-288.779 621.839,-287.935C616.843,-286.857 611.896,-285.519 606.866,-284.64C602.542,-283.884 598.143,-283.486 593.759,-283.169C589.687,-282.875 585.582,-283.022 581.508,-282.739C578.612,-282.537 575.687,-282.711 572.817,-281.796C570.673,-281.113 568.354,-280.982 566.118,-280.577C562.053,-279.838 558.386,-277.959 554.558,-276.537C552.861,-275.907 551.075,-275.516 549.383,-274.878C543.229,-272.555 536.815,-271.392 530.339,-270.496C525.835,-269.872 521.385,-268.963 516.941,-268.016C513.01,-267.178 509.02,-266.551 505.155,-265.475C501.449,-264.443 497.82,-263.078 494.25,-261.631C490.473,-260.1 486.766,-258.379 483.097,-256.598C477.417,-253.841 471.369,-251.945 465.871,-248.724C458.801,-244.583 452.179,-239.853 445.86,-234.683C443.921,-233.096 442.287,-231.129 440.564,-229.287C438.957,-227.569 437.368,-225.83 435.859,-224.025C433.401,-221.083 430.998,-218.094 428.603,-215.1C426.599,-212.596 424.635,-210.061 422.664,-207.532C421.886,-206.534 421.086,-205.546 420.38,-204.498C418.658,-201.939 417.029,-199.317 415.276,-196.78C414.118,-195.102 412.81,-193.53 411.572,-191.907C410.662,-190.714 409.7,-189.557 408.865,-188.315C406.964,-185.487 405.159,-182.593 403.253,-179.768C401.093,-176.565 398.863,-173.407 396.665,-170.228C396.529,-170.032 396.387,-169.837 396.276,-169.626C394.464,-166.171 392.869,-162.58 390.788,-159.296C388.499,-155.683 386.565,-151.874 384.048,-148.368C380.663,-143.657 376.509,-139.721 372.61,-135.52C370.221,-132.946 367.699,-130.49 365.388,-127.848C363.885,-126.13 362.664,-124.167 361.296,-122.33C360.023,-120.621 358.69,-118.957 357.442,-117.23C356.377,-115.756 355.352,-114.25 354.387,-112.709C353.167,-110.761 352.007,-108.777 350.856,-106.788C348.746,-103.135 346.673,-99.462 344.561,-95.809C343.212,-93.477 341.885,-91.128 340.43,-88.862C339.32,-87.134 338.035,-85.518 336.811,-83.866C335.824,-82.535 334.722,-81.281 333.827,-79.892C331.641,-76.5 329.036,-73.454 326.421,-70.394C324.067,-67.641 322.001,-64.645 319.749,-61.803C317.897,-59.466 315.939,-57.213 314.065,-54.894C313.122,-53.727 312.234,-52.512 311.366,-51.288C309.096,-48.087 306.972,-44.773 304.557,-41.686C302.384,-38.909 299.938,-36.34 297.547,-33.741C295.909,-31.961 294.195,-30.246 292.448,-28.572C289.338,-25.589 285.955,-22.928 282.597,-20.228C278.457,-16.899 273.999,-14.096 269.351,-11.595C265.477,-9.511 261.523,-7.555 257.507,-5.761C252.761,-3.641 247.945,-1.666 243.094,0.206C236.854,2.615 230.597,5.001 224.253,7.118C220.524,8.362 216.615,9.066 212.785,10.006C211.651,10.286 210.509,10.526 209.378,10.815C206.102,11.654 202.844,12.574 199.549,13.334C197.184,13.881 194.771,14.221 192.381,14.659C191.837,14.758 191.292,14.861 190.756,14.993C184.571,16.513 178.323,17.649 171.975,18.246C166.212,18.788 160.466,19.525 154.699,20C150.208,20.371 145.683,20.796 141.195,20.625C132.848,20.307 124.507,20.751 116.164,20.477C110.512,20.291 104.851,20.414 99.194,20.432C93.683,20.45 88.16,20.762 82.666,20.477C77.388,20.203 72.15,20.737 66.889,20.654C62.659,20.588 58.416,21.049 54.192,20.894C47.556,20.65 40.991,21.438 34.404,21.882C29.314,22.226 24.248,22.932 19.158,23.283C16.501,23.465 13.813,23.296 11.145,23.168C7.074,22.973 3.004,22.72 -1.059,22.395C-2.318,22.294 -3.585,21.977 -4.792,21.585C-6.852,20.918 -8.978,21.04 -11.078,20.837C-12.571,20.693 -14.059,20.465 -15.537,20.204C-17.554,19.846 -19.558,19.416 -21.569,19.025C-24.126,18.528 -26.684,18.038 -29.242,17.548C-29.398,17.519 -29.566,17.538 -29.718,17.498C-32.552,16.75 -35.376,15.964 -38.219,15.254C-41.212,14.507 -44.236,13.877 -47.223,13.106C-49.074,12.627 -50.93,12.103 -52.699,11.388C-62.561,7.402 -72.456,3.485 -82.216,-0.738C-86.659,-2.66 -90.82,-5.231 -95.107,-7.51C-95.389,-7.661 -95.654,-7.843 -95.937,-7.993C-99.808,-10.04 -103.716,-12.017 -107.539,-14.15C-109.752,-15.385 -111.82,-16.878 -113.969,-18.23C-114.575,-18.612 -115.259,-18.871 -115.864,-19.253C-116.796,-19.839 -117.692,-20.482 -118.599,-21.108C-118.794,-21.243 -118.955,-21.433 -119.159,-21.551C-121.551,-22.944 -123.984,-24.272 -126.334,-25.732C-128.214,-26.899 -129.984,-28.244 -131.827,-29.472C-132.815,-30.131 -133.88,-30.676 -134.867,-31.338C-138.153,-33.546 -141.48,-35.7 -144.672,-38.039C-146.892,-39.666 -148.899,-41.581 -151.033,-43.329C-151.888,-44.03 -152.907,-44.542 -153.713,-45.29C-157.983,-49.247 -162.36,-53.105 -166.408,-57.28C-170.603,-61.608 -174.6,-66.148 -178.43,-70.804C-181.629,-74.693 -184.542,-78.828 -187.424,-82.962C-188.904,-85.087 -189.896,-87.552 -191.367,-89.684C-193.983,-93.475 -195.598,-97.752 -197.529,-101.865C-199.951,-107.024 -202.265,-112.235 -204.041,-117.679C-205.48,-122.096 -207.408,-126.354 -208.852,-130.77C-210.12,-134.648 -211.016,-138.647 -212.075,-142.594C-212.196,-143.047 -212.247,-143.529 -212.426,-143.959C-213.648,-146.886 -213.985,-150.031 -214.658,-153.091C-215.148,-155.321 -215.561,-157.573 -215.906,-159.831C-216.472,-163.54 -217.244,-167.249 -217.407,-170.98C-217.669,-176.949 -218.613,-182.887 -218.206,-188.893C-218.048,-191.23 -218.328,-193.594 -218.238,-195.939C-218.122,-198.937 -217.85,-201.929 -217.612,-204.921C-217.505,-206.254 -217.229,-207.577 -217.183,-208.91C-217.036,-213.126 -216.149,-217.19 -215.064,-221.253C-214.38,-223.811 -214.157,-226.491 -213.678,-229.108C-213.323,-231.049 -212.856,-232.971 -212.496,-234.912C-211.846,-238.413 -211.241,-241.921 -210.611,-245.425C-210.513,-245.973 -210.49,-246.571 -210.244,-247.048C-209.372,-248.739 -209.616,-250.385 -210.107,-252.128C-211.005,-255.309 -211.592,-258.587 -212.621,-261.721C-213.821,-265.379 -214.454,-269.17 -215.802,-272.809C-217.654,-277.808 -218.854,-283.046 -220.443,-288.147C-221.214,-290.622 -222.281,-293.003 -223.136,-295.453C-224.64,-299.762 -225.994,-304.127 -227.581,-308.404C-228.863,-311.861 -230.437,-315.21 -231.807,-318.635C-233.38,-322.571 -234.867,-326.541 -236.403,-330.492C-236.683,-331.211 -236.585,-332.092 -237.661,-332.098C-237.36,-332.839 -237.017,-333.683 -236.716,-334.424C-236.193,-333.779 -235.731,-333.124 -235.435,-332.387C-231.456,-322.505 -227.454,-312.632 -223.639,-302.687C-222.036,-298.509 -220.869,-294.166 -219.484,-289.904C-217.849,-284.874 -216.155,-279.862 -214.56,-274.819C-213.756,-272.277 -213.089,-269.691 -212.402,-267.114C-211.511,-263.768 -210.668,-260.411 -209.784,-257.064C-209.691,-256.712 -209.458,-256.398 -209.114,-255.719C-208.776,-256.55 -208.435,-257.075 -208.356,-257.636C-207.787,-261.706 -207.327,-265.791 -206.719,-269.854C-206.355,-272.284 -205.762,-274.678 -205.319,-277.098C-205.005,-278.81 -204.781,-280.539 -204.499,-282.256C-204.32,-283.341 -204.171,-284.437 -203.896,-285.5C-203.162,-288.337 -202.61,-291.254 -201.549,-293.967C-198.899,-300.743 -196.101,-307.464 -193.157,-314.117C-192.279,-316.099 -190.722,-317.782 -189.472,-319.599C-189.202,-319.991 -188.889,-320.355 -188.64,-320.759C-185.876,-325.238 -182.259,-328.929 -178.294,-332.357C-174.238,-335.865 -169.822,-338.864 -165.4,-341.846C-161.413,-344.535 -157.225,-346.925 -153.117,-349.435C-148.405,-352.313 -143.384,-354.625 -138.56,-357.278C-132.648,-360.53 -126.566,-363.416 -120.414,-366.097C-113.215,-369.235 -106.221,-372.946 -98.506,-374.838C-93.911,-375.967 -89.321,-376.948 -84.544,-376.659C-82.522,-376.537 -80.491,-376.571 -78.465,-376.501C-76.893,-376.446 -75.307,-376.451 -73.755,-376.231C-70.709,-375.798 -67.699,-375.099 -64.646,-374.75C-61.323,-374.369 -58.108,-373.54 -54.846,-372.901C-51.138,-372.175 -47.482,-371.17 -43.793,-370.516C-38.341,-369.55 -33.283,-367.324 -27.875,-366.269C-24.843,-365.677 -21.955,-364.354 -19,-363.365C-16.125,-362.404 -13.194,-361.584 -10.383,-360.465C-2.283,-357.241 5.787,-353.937 13.831,-350.573C15.875,-349.717 17.775,-348.52 19.742,-347.48C19.954,-347.368 20.161,-347.244 20.38,-347.149C24.78,-345.254 29.142,-343.302 33.269,-340.826C35.792,-339.311 38.593,-338.266 41.159,-336.816C44.05,-335.183 46.811,-333.32 49.642,-331.579C51.864,-330.212 54.14,-328.928 56.334,-327.518C58.522,-326.113 60.615,-324.561 62.792,-323.139C64.459,-322.051 66.207,-321.087 67.894,-320.03C69.694,-318.902 71.515,-317.795 73.24,-316.558C76.067,-314.532 78.78,-312.344 81.627,-310.345C84.081,-308.622 86.691,-307.121 89.161,-305.417C90.775,-304.303 92.257,-303 93.804,-301.79C95.966,-300.098 98.15,-298.435 100.294,-296.721C102.439,-295.006 104.561,-293.262 106.667,-291.5C109.318,-289.282 111.979,-287.073 114.569,-284.785C117.695,-282.023 120.847,-279.278 123.806,-276.342C126.074,-274.094 128.059,-271.562 130.172,-269.159C133.019,-265.921 135.908,-262.72 138.703,-259.439C140.491,-257.339 142.157,-255.132 143.852,-252.954C146.308,-249.795 148.794,-246.66 151.17,-243.442C154.158,-239.392 157.026,-235.254 159.987,-231.184C161.699,-228.832 163.534,-226.568 165.239,-224.212C167.997,-220.402 170.637,-216.506 173.431,-212.724C176.091,-209.123 178.896,-205.629 181.613,-202.068C182.376,-201.068 183.018,-199.975 183.773,-198.968C186.796,-194.938 189.852,-190.933 192.875,-186.904C193.964,-185.451 194.98,-183.945 196.052,-182.479C199.011,-178.43 202.063,-174.445 204.916,-170.322C206.396,-168.183 207.526,-165.803 208.823,-163.537C210.616,-160.403 212.524,-157.33 214.184,-154.128C215.856,-150.9 217.267,-147.538 218.823,-144.25C220.679,-140.328 222.589,-136.432 224.428,-132.503C225.027,-131.221 225.441,-129.855 225.999,-128.553C228.391,-122.977 230.927,-117.459 233.165,-111.821C234.533,-108.377 235.365,-104.724 236.597,-101.221C238.426,-96.023 238.668,-90.545 239.609,-85.191C239.798,-84.12 239.698,-82.978 239.601,-81.88C239.351,-79.046 239.051,-76.216 238.714,-73.39C238.641,-72.769 238.359,-72.165 238.126,-71.57C237.397,-69.709 236.632,-67.86 235.904,-65.998C234.419,-62.196 232.375,-58.731 229.786,-55.575C229.236,-54.905 228.944,-54.027 228.404,-53.346C226.837,-51.37 225.255,-49.4 223.584,-47.51C221.136,-44.742 218.688,-41.962 216.081,-39.346C214.198,-37.458 212.103,-35.768 210.019,-34.094C206.954,-31.633 203.871,-29.189 200.692,-26.879C196.533,-23.855 191.928,-21.556 187.263,-19.466C182.442,-17.307 177.487,-15.413 172.491,-13.695C167.362,-11.932 162.164,-10.317 156.902,-9.017C151.347,-7.645 145.69,-6.678 140.062,-5.616C135.194,-4.697 130.325,-3.738 125.417,-3.079C120.65,-2.438 115.835,-2.163 111.042,-1.713C108.837,-1.507 106.639,-1.229 104.432,-1.057C99.64,-0.683 94.843,-0.375 90.05,-0.009C82.86,0.538 75.669,1.075 68.485,1.686C61.746,2.259 55.019,2.961 48.28,3.535C42.977,3.987 37.691,4.557 32.408,5.227C25.374,6.119 18.302,6.711 11.246,7.429C7.183,7.842 3.076,8.012 -0.934,8.723C-5.466,9.528 -10.036,9.095 -14.57,9.622C-16.647,9.864 -18.811,9.418 -20.929,9.224C-23.906,8.952 -26.886,8.684 -29.85,8.297C-32.041,8.011 -34.212,7.563 -36.383,7.143C-38.404,6.751 -40.47,6.475 -42.417,5.844C-48.873,3.752 -55.423,1.859 -61.675,-0.741C-69.109,-3.832 -76.288,-7.542 -83.539,-11.061C-85.021,-11.781 -86.36,-12.813 -87.723,-13.763C-89.669,-15.12 -91.48,-16.697 -93.521,-17.884C-96.77,-19.776 -99.362,-22.477 -102.366,-24.666C-104.252,-26.041 -105.89,-27.764 -107.601,-29.372C-109.49,-31.146 -111.374,-32.928 -113.19,-34.775C-115.672,-37.298 -118.128,-39.849 -120.525,-42.453C-124.077,-46.309 -127.596,-50.196 -131.071,-54.12C-133.103,-56.414 -135.021,-58.806 -136.993,-61.152C-137.704,-61.999 -138.466,-62.806 -139.131,-63.688C-142.83,-68.587 -146.454,-73.537 -149.561,-78.848C-151.668,-82.45 -154.021,-85.913 -156.019,-89.572C-158.058,-93.305 -159.879,-97.166 -161.644,-101.039C-163.864,-105.91 -165.948,-110.843 -168.045,-115.77C-168.414,-116.635 -168.496,-117.619 -168.813,-118.511C-171.031,-124.741 -173.294,-130.955 -175.504,-137.187C-176.922,-141.184 -178.237,-145.218 -179.668,-149.211C-180.678,-152.028 -181.889,-154.774 -182.857,-157.604C-184.024,-161.018 -184.994,-164.499 -186.115,-167.929C-187.293,-171.533 -188.583,-175.1 -189.762,-178.704C-190.863,-182.066 -191.881,-185.455 -192.94,-188.83C-193.271,-189.884 -193.626,-190.93 -193.955,-191.986C-195.266,-196.195 -196.685,-200.376 -197.844,-204.628C-198.835,-208.259 -199.493,-211.982 -200.361,-215.649C-200.869,-217.793 -201.487,-219.912 -202.082,-222.034C-203.659,-227.659 -205.271,-233.275 -206.819,-238.908C-207.133,-240.05 -207.188,-241.261 -207.448,-242.421C-207.532,-242.795 -207.889,-243.105 -208.448,-243.922C-208.564,-241.491 -209.445,-239.844 -209.462,-237.875C-209.48,-235.777 -210.288,-233.692 -210.699,-231.591C-211.215,-228.958 -211.627,-226.303 -212.18,-223.677C-212.685,-221.284 -213.36,-218.926 -213.879,-216.536C-214.265,-214.759 -214.592,-212.963 -214.816,-211.161C-215.146,-208.504 -215.471,-205.837 -215.597,-203.165C-215.744,-200.04 -215.656,-196.904 -215.711,-193.774C-215.728,-192.83 -215.979,-191.886 -215.96,-190.945C-215.886,-187.092 -215.761,-183.241 -215.63,-179.39C-215.547,-176.96 -215.551,-174.515 -215.283,-172.103C-214.779,-167.559 -214.26,-163.007 -213.458,-158.509C-212.759,-154.58 -211.64,-150.724 -210.749,-146.827C-209.762,-142.51 -208.977,-138.141 -207.812,-133.875C-207.009,-130.927 -205.683,-128.124 -204.645,-125.237C-203.976,-123.377 -203.428,-121.474 -202.779,-119.607C-202.497,-118.795 -202.081,-118.029 -201.751,-117.232C-200.066,-113.158 -198.605,-108.972 -196.64,-105.039C-195.061,-101.88 -194.219,-98.341 -191.902,-95.553C-191.808,-95.44 -191.812,-95.25 -191.75,-95.104C-189.211,-89.183 -185.46,-83.997 -181.708,-78.834C-178.569,-74.515 -175.378,-70.207 -171.869,-66.192C-168.088,-61.868 -163.937,-57.865 -159.895,-53.773C-157.907,-51.761 -155.916,-49.724 -153.72,-47.955C-150.532,-45.383 -147.143,-43.065 -143.869,-40.599C-141.344,-38.698 -138.864,-36.736 -136.364,-34.802C-136.175,-34.656 -135.989,-34.504 -135.788,-34.375C-132.063,-31.979 -128.357,-29.552 -124.602,-27.205C-122.247,-25.734 -119.781,-24.44 -117.431,-22.962C-115.163,-21.534 -112.979,-19.969 -110.758,-18.467C-110.56,-18.334 -110.366,-18.176 -110.146,-18.092C-107.891,-17.232 -105.964,-15.81 -103.907,-14.593C-99.873,-12.208 -95.657,-10.12 -91.466,-8.009C-88.043,-6.287 -84.434,-4.91 -81.103,-3.033C-72.141,2.016 -62.368,5.142 -52.92,9.026C-49.412,10.468 -45.575,11.113 -41.887,12.115C-41.502,12.219 -41.102,12.267 -40.717,12.373C-37.345,13.31 -33.999,14.356 -30.596,15.161C-28.228,15.72 -25.781,15.953 -23.37,16.332C-23.212,16.357 -23.049,16.372 -22.9,16.426C-19.008,17.857 -14.823,17.795 -10.847,18.783C-7.367,19.646 -3.822,19.808 -0.268,20.038C3.203,20.264 6.655,20.768 10.124,21.022C12.399,21.188 14.693,21.085 16.976,21.174C22.874,21.405 28.648,20.204 34.484,19.723C38.716,19.373 42.971,18.792 47.193,18.941C54.277,19.19 61.316,18.308 68.398,18.57C74.824,18.807 81.268,18.576 87.703,18.52C92.261,18.481 96.827,18.176 101.373,18.378C106.332,18.598 111.277,18.502 116.23,18.45C119.695,18.413 123.161,18.522 126.626,18.566C128.588,18.591 130.552,18.665 132.514,18.634C138.103,18.543 143.693,18.471 149.279,18.271C152.432,18.157 155.575,17.617 158.724,17.601C163.851,17.576 168.835,16.359 173.923,16.065C175.238,15.989 176.542,15.682 177.846,15.454C181.792,14.762 185.745,14.111 189.676,13.344C194.623,12.379 199.569,11.399 204.479,10.269C209.081,9.21 213.682,8.105 218.198,6.739C224.852,4.725 231.465,2.561 238.027,0.267C241.739,-1.03 245.318,-2.707 248.951,-4.226C253.163,-5.987 257.474,-7.552 261.547,-9.59C265.854,-11.744 269.917,-14.383 274.116,-16.756C278.881,-19.45 283.128,-22.906 287.295,-26.359C291.701,-30.011 295.88,-34.016 299.385,-38.637C301.87,-41.915 304.57,-45.03 307.087,-48.285C308.535,-50.157 309.737,-52.219 311.177,-54.098C313.141,-56.661 315.249,-59.111 317.253,-61.643C319.548,-64.542 321.771,-67.498 324.072,-70.39C325.889,-72.672 327.81,-74.873 329.622,-77.159C330.746,-78.577 331.743,-80.094 332.813,-81.555C334.633,-84.036 336.5,-86.482 338.277,-88.992C339.418,-90.604 340.461,-92.287 341.496,-93.97C342.494,-95.593 343.445,-97.247 344.381,-98.907C345.978,-101.74 347.513,-104.606 349.135,-107.424C350.439,-109.691 351.8,-111.928 353.199,-114.138C354.508,-116.206 355.822,-118.278 357.278,-120.242C359.014,-122.583 360.888,-124.822 362.731,-127.082C363.53,-128.062 364.499,-128.916 365.222,-129.945C367.41,-133.067 370.159,-135.671 372.785,-138.395C374.427,-140.097 376.043,-141.829 377.589,-143.617C379.539,-145.874 381.459,-148.16 383.289,-150.513C384.401,-151.943 385.356,-153.502 386.318,-155.042C387.452,-156.858 388.592,-158.676 389.594,-160.566C391.051,-163.316 392.285,-166.186 393.806,-168.898C395.194,-171.377 396.822,-173.722 398.372,-176.11C399.488,-177.831 400.655,-179.518 401.785,-181.23C402.996,-183.066 404.175,-184.923 405.397,-186.752C406.012,-187.671 406.685,-188.55 407.345,-189.437C408.567,-191.08 409.835,-192.69 411.018,-194.36C412.107,-195.899 413.069,-197.53 414.165,-199.065C415.263,-200.601 416.458,-202.067 417.605,-203.567C417.938,-204.003 418.25,-204.453 418.574,-204.895C420.437,-207.437 422.286,-209.991 424.169,-212.518C425.857,-214.787 427.533,-217.068 429.307,-219.27C431.575,-222.087 433.888,-224.871 436.271,-227.59C438.496,-230.129 440.799,-232.604 443.148,-235.028C444.236,-236.152 445.479,-237.139 446.72,-238.099C449.566,-240.302 452.396,-242.535 455.339,-244.604C461.304,-248.798 467.598,-252.387 474.422,-255.062C479.255,-256.956 484.156,-258.84 488.644,-261.401C492.426,-263.558 496.55,-264.539 500.486,-266.115C502.946,-267.1 505.723,-267.283 508.209,-268.219C511.995,-269.646 515.972,-270.144 519.872,-270.941C526.021,-272.197 532.288,-272.874 538.436,-274.132C542.833,-275.034 547.192,-276.19 551.387,-277.92C555.314,-279.539 559.329,-280.962 563.356,-282.32C565.816,-283.149 568.341,-283.883 570.895,-284.313C573.512,-284.754 576.203,-284.747 578.857,-284.982C582.298,-285.288 585.729,-285.7 589.173,-285.955C592.469,-286.199 595.778,-286.269 599.078,-286.478C600.397,-286.562 601.717,-286.757 603.017,-287.004C604.615,-287.306 606.193,-288.01 607.782,-288.014C610.63,-288.021 613.16,-289.169 615.831,-289.787C619.502,-290.635 623.1,-291.859 626.801,-292.505C630.575,-293.165 634.432,-293.499 638.265,-293.634C641.092,-293.734 643.941,-293.088 646.776,-293.131C649.989,-293.18 653.184,-293.427 656.359,-294.318C661.944,-295.884 666.628,-298.962 671.309,-302.186C673.179,-303.474 675.367,-304.303 677.416,-305.33C678.811,-306.029 680.219,-306.703 681.614,-307.4C683.854,-308.518 686.112,-309.511 688.562,-310.172C691.748,-311.033 694.827,-312.29 697.947,-313.391C699.732,-314.021 701.472,-314.829 703.437,-314.698C703.595,-314.688 703.777,-314.665 703.91,-314.728C708.372,-316.853 713.472,-316.697 717.979,-318.665C718.332,-318.819 718.755,-318.864 719.147,-318.872C722.439,-318.941 725.472,-320.126 728.591,-320.976C733.912,-322.428 739.285,-323.687 744.61,-325.126C747.422,-325.884 750.168,-326.884 752.961,-327.716C757.057,-328.936 761.192,-330.027 765.267,-331.314C769.461,-332.639 773.605,-334.122 777.763,-335.559C781.499,-336.85 785.242,-338.126 788.948,-339.5C791.98,-340.624 794.967,-341.872 797.957,-343.104C798.166,-343.191 798.24,-343.605 798.377,-343.867C799.118,-343.566 799.859,-343.264 800.601,-342.963C800.239,-342.074 943.67,-382.449 943.309,-381.559Z" style="fill:rgb(184,158,149);fill-rule:nonzero;stroke:rgb(243,237,236);stroke-width:0.95px;"/>
            </g>
            <g transform="matrix(1,0,0,1,907.299,2071.44)">
                <path d="M0,228.96C2.535,225.624 5.038,222.262 7.615,218.958C9.952,215.962 12.304,212.973 14.773,210.087C16.572,207.986 18.539,206.024 20.49,204.061C23.956,200.571 27.42,197.078 30.975,193.681C33.484,191.281 36.146,189.041 38.734,186.723C41.441,184.299 44.085,181.799 46.861,179.457C50.542,176.354 54.332,173.38 58.062,170.332C59.59,169.083 61.039,167.732 62.599,166.523C66.904,163.186 71.165,159.781 75.601,156.624C79.777,153.651 84.15,150.956 88.443,148.147C91.422,146.198 94.347,144.157 97.407,142.348C102.963,139.062 108.463,135.634 114.246,132.795C119.917,130.012 125.616,127.221 131.61,125.117C135.252,123.84 138.783,122.249 142.423,120.967C145.101,120.023 147.859,119.297 150.608,118.571C153.432,117.826 156.264,117.073 159.134,116.554C162.81,115.89 166.546,115.49 170.221,114.898C177.8,113.678 185.366,114.18 192.934,114.254C197.632,114.301 202.371,114.638 207.005,115.387C211.192,116.064 215.399,116.319 219.59,116.824C222.504,117.176 225.384,117.812 228.278,118.318C228.515,118.36 228.751,118.4 228.989,118.428C232.711,118.846 236.437,119.237 240.154,119.687C244.109,120.163 248.045,120.86 252.012,121.159C256.791,121.52 261.594,121.67 266.388,121.712C271.344,121.756 276.314,121.744 281.256,121.415C285.142,121.156 288.996,120.403 292.857,119.822C295.291,119.457 297.719,119.042 300.135,118.577C301.76,118.265 303.372,117.869 304.971,117.436C307.723,116.689 310.482,115.956 313.195,115.081C315.061,114.48 316.893,113.736 318.666,112.9C323.076,110.818 327.405,108.565 331.837,106.531C338.632,103.412 344.729,99.137 350.979,95.122C354.95,92.572 358.844,89.878 362.604,87.024C366.761,83.87 370.8,80.547 374.755,77.141C379.731,72.854 384.661,68.505 389.441,64.002C393.754,59.94 397.828,55.626 402.021,51.439C407.001,46.467 411.99,41.505 416.986,36.551C420.528,33.039 424.085,29.543 427.646,26.052C429.953,23.788 432.217,21.476 434.615,19.312C437.432,16.77 440.373,14.366 443.259,11.9C445.901,9.643 448.526,7.364 451.187,5.128C453.249,3.393 455.354,1.708 457.44,0L457.44,228.96L0,228.96Z" style="fill:rgb(184,158,149);fill-rule:nonzero;"/>
            </g>
            <g opacity="0.7">
                <g transform="matrix(1,0,0,1,1214.08,2062.51)">
                    <path d="M0,-188.303C1.999,-188.303 4.029,-188.527 5.99,-188.251C8.945,-187.836 11.963,-187.717 14.826,-186.691C15.709,-186.373 16.718,-186.423 17.657,-186.246C21.721,-185.481 25.317,-183.532 28.89,-181.611C37.604,-176.927 44.15,-169.886 49.891,-161.984C53.715,-156.72 56.351,-150.802 59.109,-144.99C61.188,-140.613 62.563,-135.888 64.08,-131.262C65.087,-128.193 65.736,-125.007 66.653,-121.906C67.407,-119.352 68.397,-116.867 69.142,-114.312C69.916,-111.652 70.515,-108.942 71.202,-106.256C71.748,-104.121 72.354,-102.001 72.855,-99.856C73.322,-97.859 73.692,-95.838 74.094,-93.825C74.649,-91.039 75.211,-88.253 75.731,-85.46C75.893,-84.601 75.936,-83.719 76.021,-82.847C76.153,-81.497 76.281,-80.147 76.403,-78.796C76.804,-74.352 77.233,-69.91 77.587,-65.462C77.858,-62.039 78.241,-58.607 78.2,-55.182C78.144,-50.477 77.97,-45.746 77.402,-41.08C76.918,-37.093 75.958,-33.142 74.921,-29.251C74.32,-26.999 73.167,-24.892 72.235,-22.731C70.702,-19.179 68.684,-15.919 66.459,-12.754C62.935,-7.74 58.084,-4.348 52.664,-1.925C50.086,-0.772 47.145,0.083 44.135,-0.039C43.337,-0.072 42.533,-0.06 41.736,-0.005C38.433,0.224 35.249,-0.431 32.073,-1.228C28.713,-2.07 25.344,-2.877 21.963,-3.635C18.031,-4.516 14.084,-5.331 10.14,-6.16C9.753,-6.241 9.34,-6.19 8.945,-6.249C5.103,-6.824 1.26,-7.409 -2.583,-7.991C-2.977,-8.05 -3.374,-8.09 -3.77,-8.142C-6.055,-8.444 -8.335,-8.805 -10.628,-9.034C-14.657,-9.439 -18.698,-9.732 -22.729,-10.133C-24.618,-10.321 -26.492,-10.663 -28.377,-10.913C-30.348,-11.175 -32.334,-11.338 -34.292,-11.67C-37.78,-12.262 -40.84,-13.969 -43.684,-15.914C-48.311,-19.079 -51.973,-23.329 -55.942,-27.251C-60.959,-32.208 -65.271,-37.679 -69.354,-43.369C-71.458,-46.301 -73.621,-49.213 -75.433,-52.323C-76.758,-54.598 -77.587,-57.168 -78.57,-59.634C-79.149,-61.086 -79.598,-62.592 -80.109,-64.073C-80.187,-64.297 -80.339,-64.508 -80.368,-64.738C-80.73,-67.563 -81.187,-70.383 -81.391,-73.222C-81.545,-75.367 -81.529,-77.553 -81.313,-79.692C-80.912,-83.638 -80.249,-87.556 -79.818,-91.499C-79.628,-93.236 -79.738,-95.005 -79.708,-96.759C-79.618,-101.951 -79.992,-107.208 -79.296,-112.319C-78.671,-116.904 -78.49,-121.637 -76.789,-126.064C-76.395,-127.088 -76.338,-128.246 -76.159,-129.349C-75.435,-133.814 -73.556,-137.826 -71.605,-141.866C-69.416,-146.401 -66.76,-150.649 -64.205,-154.955C-62.154,-158.411 -59.546,-161.485 -56.682,-164.33C-55.458,-165.546 -54.485,-167.032 -53.192,-168.159C-50.472,-170.532 -47.64,-172.781 -44.805,-175.018C-43.33,-176.182 -41.764,-177.233 -40.217,-178.303C-36.023,-181.204 -31.234,-182.871 -26.511,-184.57C-23.636,-185.603 -20.493,-185.906 -17.462,-186.489C-14.599,-187.04 -11.736,-187.613 -8.851,-188.017C-6.961,-188.282 -5.032,-188.282 -3.119,-188.364C-2.081,-188.407 -1.04,-188.371 0,-188.371L0,-188.303Z" style="fill:rgb(201,192,184);fill-rule:nonzero;"/>
                </g>
            </g>
            <g transform="matrix(1,0,0,1,631.924,2068.55)">
                <path d="M0,85.432C-0.177,86.827 -0.527,88.198 -0.758,89.587C-0.899,90.439 -0.955,91.305 -1.041,92.165C-1.313,94.89 -1.581,97.617 -1.856,100.342C-1.876,100.535 -1.943,100.722 -1.98,100.913C-2.546,103.824 -3.074,106.741 -3.694,109.639C-3.947,110.826 -4.352,111.986 -4.767,113.128C-5.651,115.561 -6.572,117.981 -7.506,120.395C-8.385,122.668 -9.662,124.725 -11.021,126.736C-11.564,127.54 -12.03,128.397 -12.57,129.203C-14.016,131.365 -15.85,133.165 -17.713,134.972C-19.524,136.728 -21.768,137.858 -23.622,139.534C-24.565,140.386 -25.765,140.954 -26.849,141.653C-26.971,141.732 -27.094,141.811 -27.214,141.893C-29.001,143.119 -30.778,144.359 -32.58,145.561C-33.262,146.016 -34.014,146.363 -34.713,146.792C-38.437,149.084 -42.318,151.09 -46.214,153.062C-48.87,154.405 -51.592,155.614 -54.285,156.882C-56.671,158.005 -59.018,159.222 -61.454,160.224C-64.166,161.34 -66.973,162.1 -69.93,162.454C-72.352,162.745 -74.711,162.728 -77.131,162.641C-78.801,162.58 -80.466,162.404 -82.135,162.342C-83.376,162.296 -84.606,161.943 -85.843,161.733C-87.177,161.506 -88.518,161.316 -89.846,161.059C-91.647,160.71 -93.436,160.288 -95.238,159.944C-97.04,159.598 -98.852,159.312 -100.658,158.992C-100.944,158.941 -101.227,158.858 -101.504,158.77C-101.876,158.652 -102.235,158.483 -102.612,158.391C-105.262,157.743 -107.935,157.182 -110.56,156.448C-112.625,155.87 -114.645,155.119 -116.661,154.382C-119.505,153.343 -122.327,152.247 -125.159,151.176C-125.148,151.15 -125.139,151.123 -125.129,151.097C-129.65,149.386 -134.216,147.784 -138.676,145.924C-141.314,144.824 -143.784,143.319 -146.329,141.995C-146.545,141.882 -146.756,141.759 -146.974,141.649C-148.881,140.683 -150.813,139.762 -152.691,138.744C-154.86,137.567 -156.989,136.314 -159.125,135.076C-161.008,133.983 -162.896,132.897 -164.744,131.746C-165.722,131.137 -166.604,130.374 -167.557,129.723C-168.555,129.042 -169.589,128.416 -170.604,127.76C-172.55,126.5 -174.498,125.244 -176.436,123.973C-178.083,122.894 -179.723,121.806 -181.352,120.703C-181.669,120.488 -181.899,120.148 -182.211,119.924C-183.501,118.998 -184.84,118.139 -186.1,117.175C-187.93,115.776 -189.708,114.31 -191.506,112.868C-192.101,112.39 -192.647,111.839 -193.285,111.427C-195.896,109.738 -197.916,107.367 -200.283,105.422C-202.917,103.258 -204.89,100.504 -207.416,98.275C-207.915,97.833 -208.247,97.207 -208.684,96.691C-210.476,94.568 -212.325,92.491 -214.066,90.327C-215.841,88.121 -217.401,85.734 -219.263,83.609C-221.423,81.143 -223.315,78.477 -225.391,75.951C-226.696,74.364 -227.84,72.645 -229.082,71.005C-230.152,69.593 -231.266,68.214 -232.349,66.811C-234.34,64.231 -236.297,61.623 -238.318,59.066C-239.958,56.993 -241.674,54.981 -243.348,52.935C-244.138,51.969 -244.929,51.003 -245.688,50.013C-247.791,47.273 -249.981,44.59 -251.941,41.75C-253.936,38.862 -255.843,35.903 -257.423,32.747C-259.231,29.137 -261.138,25.576 -262.95,21.966C-263.854,20.166 -264.6,18.288 -265.491,16.482C-266.388,14.662 -267.426,12.912 -268.307,11.087C-268.953,9.747 -269.447,8.333 -270.008,6.953C-271.536,3.193 -272.831,-0.648 -273.599,-4.631C-274.088,-7.164 -274.402,-9.729 -274.407,-12.337C-274.411,-14.476 -273.873,-16.438 -273.123,-18.39C-272.036,-21.214 -271.054,-24.085 -269.497,-26.699C-269.057,-27.436 -268.521,-28.124 -267.965,-28.779C-266.509,-30.497 -265.013,-32.181 -263.54,-33.884C-260.956,-36.871 -258.169,-39.669 -255.125,-42.167C-253.055,-43.864 -250.915,-45.521 -248.495,-46.747C-245.363,-48.335 -242.275,-50.014 -239.11,-51.529C-237.421,-52.339 -235.615,-52.907 -233.847,-53.543C-232.628,-53.981 -231.397,-54.398 -230.148,-54.739C-227.184,-55.547 -224.208,-56.311 -221.233,-57.08C-219.093,-57.632 -216.96,-58.223 -214.8,-58.685C-212.772,-59.12 -210.715,-59.422 -208.666,-59.756C-206.576,-60.098 -204.487,-60.452 -202.388,-60.721C-199.201,-61.13 -196.007,-61.486 -192.813,-61.838C-189.917,-62.157 -187.02,-62.631 -184.116,-62.692C-180.503,-62.766 -176.966,-63.521 -173.365,-63.611C-172.698,-63.627 -172.04,-63.871 -171.37,-63.952C-168.043,-64.357 -164.712,-64.725 -161.387,-65.141C-159.148,-65.422 -156.922,-65.951 -154.679,-66.028C-151.437,-66.14 -148.293,-66.889 -145.083,-67.169C-143.562,-67.301 -142.064,-67.841 -140.549,-67.87C-138.115,-67.915 -135.777,-68.535 -133.38,-68.773C-131.083,-69.002 -128.796,-69.336 -126.497,-69.53C-124.449,-69.704 -122.389,-69.817 -120.334,-69.831C-118.697,-69.842 -117.053,-69.729 -115.424,-69.553C-113.264,-69.321 -111.115,-68.975 -108.962,-68.674C-107.574,-68.48 -106.187,-68.277 -104.798,-68.079C-104.653,-68.058 -104.503,-68.06 -104.363,-68.023C-102.346,-67.486 -100.292,-67.055 -98.323,-66.38C-95.183,-65.302 -92.069,-64.132 -89,-62.866C-86.571,-61.862 -84.192,-60.721 -81.854,-59.517C-79.701,-58.408 -77.6,-57.188 -75.539,-55.915C-74.018,-54.975 -72.572,-53.908 -71.142,-52.833C-69.217,-51.384 -67.282,-49.938 -65.456,-48.37C-63.789,-46.938 -62.234,-45.37 -60.674,-43.817C-58.357,-41.51 -56.005,-39.232 -53.806,-36.817C-51.735,-34.543 -49.404,-32.51 -47.628,-29.952C-46.707,-28.624 -45.366,-27.594 -44.367,-26.311C-42.861,-24.378 -41.433,-22.378 -40.074,-20.338C-38.333,-17.725 -36.631,-15.082 -35.028,-12.382C-33.777,-10.275 -32.816,-7.993 -31.522,-5.915C-29.726,-3.03 -28.552,0.13 -27.241,3.223C-26.211,5.65 -25.549,8.23 -24.642,10.712C-24.231,11.833 -23.55,12.854 -23.116,13.969C-22.257,16.17 -21.52,18.418 -20.669,20.622C-19.647,23.268 -18.499,25.866 -17.519,28.525C-16.727,30.675 -16.274,32.964 -15.352,35.05C-14.527,36.914 -14.117,38.906 -13.273,40.747C-13.155,41.004 -13.064,41.275 -12.972,41.543C-11.619,45.454 -10.225,49.353 -8.936,53.286C-8.234,55.427 -7.725,57.632 -7.106,59.803C-6.777,60.959 -6.375,62.095 -6.049,63.252C-5.296,65.928 -4.613,68.624 -3.822,71.288C-2.633,75.296 -1.356,79.279 -0.169,83.287C0.031,83.963 0.089,84.733 0,85.432M-136.799,-77.385C-134.677,-77.282 -132.562,-77.025 -130.44,-76.938C-128.267,-76.849 -126.101,-76.802 -123.963,-76.326C-121.521,-75.782 -118.968,-75.88 -116.57,-75.064C-116.479,-75.034 -116.379,-75.027 -116.282,-75.014C-114.804,-74.818 -113.308,-74.712 -111.854,-74.404C-109.764,-73.963 -107.706,-73.374 -105.634,-72.851C-105.397,-72.792 -105.152,-72.769 -104.916,-72.711C-102.649,-72.153 -100.298,-71.815 -98.135,-70.987C-92.311,-68.755 -86.298,-66.989 -80.752,-64.038C-78.691,-62.941 -76.468,-62.153 -74.354,-61.152C-71.764,-59.925 -69.16,-58.713 -66.662,-57.314C-65.388,-56.602 -64.191,-55.762 -62.801,-55.27C-62.666,-55.222 -62.545,-55.129 -62.423,-55.049C-61.044,-54.166 -59.688,-53.243 -58.283,-52.404C-56.827,-51.536 -55.302,-50.783 -53.843,-49.919C-51.516,-48.541 -49.218,-47.114 -46.909,-45.706C-46.784,-45.63 -46.668,-45.54 -46.551,-45.454C-44.996,-44.309 -43.454,-43.148 -41.884,-42.024C-39.849,-40.567 -37.746,-39.201 -35.762,-37.678C-34.396,-36.63 -33.15,-35.416 -31.908,-34.216C-29.38,-31.778 -26.787,-29.395 -24.415,-26.81C-22.214,-24.411 -20.203,-21.828 -18.223,-19.237C-15.857,-16.14 -13.491,-13.029 -11.854,-9.451C-11.814,-9.363 -11.814,-9.247 -11.755,-9.179C-10.299,-7.511 -9.733,-5.363 -8.724,-3.458C-7.465,-1.086 -6.513,1.449 -5.424,3.911C-5.211,4.393 -4.946,4.854 -4.762,5.346C-4.338,6.476 -3.976,7.629 -3.541,8.755C-2.864,10.502 -2.014,12.195 -1.48,13.983C-0.707,16.57 -0.164,19.226 0.502,21.847C1.103,24.213 1.843,26.55 2.328,28.939C2.883,31.673 3.267,34.445 3.641,37.211C3.84,38.679 3.873,40.172 3.959,41.655C4.096,44.003 4.229,46.353 4.331,48.703C4.355,49.278 4.217,49.858 4.22,50.434C4.232,52.346 4.332,54.259 4.288,56.169C4.25,57.802 4.091,59.435 3.928,61.062C3.818,62.166 3.645,63.267 3.436,64.357C3.154,65.825 2.775,67.274 2.503,68.743C2.204,70.353 1.991,71.98 1.714,73.595C1.494,74.884 1.032,76.168 1.051,77.449C1.07,78.652 0.556,79.67 0.521,81.157C0.168,80.665 -0.055,80.481 -0.111,80.254C-0.287,79.55 -0.339,78.812 -0.547,78.119C-1.575,74.703 -2.641,71.297 -3.687,67.887C-4.081,66.6 -4.489,65.316 -4.831,64.014C-5.414,61.787 -5.871,59.526 -6.528,57.323C-7.298,54.744 -8.226,52.212 -9.088,49.661C-9.304,49.023 -9.537,48.389 -9.754,47.75C-10.45,45.705 -11.121,43.651 -11.842,41.615C-12.616,39.432 -13.455,37.273 -14.227,35.09C-14.962,33.013 -15.604,30.902 -16.368,28.834C-17,27.121 -17.779,25.462 -18.437,23.757C-19.369,21.341 -20.231,18.898 -21.155,16.478C-22.596,12.705 -24.069,8.946 -25.514,5.175C-25.721,4.635 -25.786,4.036 -26.022,3.513C-27.375,0.536 -28.72,-2.446 -30.146,-5.387C-31.281,-7.725 -32.45,-10.055 -33.749,-12.304C-35.022,-14.509 -36.51,-16.589 -37.849,-18.756C-39.823,-21.954 -42.109,-24.922 -44.438,-27.86C-44.857,-28.387 -45.334,-28.87 -45.781,-29.376C-47.019,-30.779 -48.226,-32.212 -49.499,-33.583C-51.678,-35.927 -53.884,-38.249 -56.108,-40.55C-57.61,-42.104 -59.146,-43.626 -60.699,-45.13C-61.835,-46.23 -63.011,-47.292 -64.189,-48.346C-65.258,-49.303 -66.283,-50.331 -67.455,-51.143C-69.321,-52.435 -70.943,-54.047 -72.954,-55.153C-74.217,-55.848 -75.347,-56.785 -76.555,-57.585C-77.4,-58.144 -78.232,-58.755 -79.148,-59.172C-83.626,-61.215 -88.063,-63.375 -92.647,-65.153C-96.502,-66.648 -100.529,-67.708 -104.5,-68.89C-105.698,-69.247 -106.964,-69.385 -108.204,-69.594C-109.535,-69.819 -110.867,-70.061 -112.208,-70.204C-114.023,-70.396 -115.847,-70.515 -117.668,-70.638C-118.965,-70.726 -120.292,-70.966 -121.556,-70.789C-124.316,-70.4 -127.112,-70.597 -129.868,-70.04C-132.306,-69.547 -134.81,-69.383 -137.284,-69.071C-141.582,-68.529 -145.891,-68.064 -150.172,-67.417C-153.387,-66.93 -156.605,-66.505 -159.836,-66.151C-163.942,-65.702 -168.039,-65.174 -172.144,-64.726C-176.521,-64.248 -180.904,-63.815 -185.285,-63.375C-188.205,-63.082 -191.129,-62.823 -194.049,-62.525C-195.394,-62.387 -196.732,-62.185 -198.075,-62.027C-200.995,-61.682 -203.931,-61.444 -206.832,-60.983C-209.817,-60.508 -212.776,-59.851 -215.734,-59.219C-219.154,-58.488 -222.594,-57.815 -225.965,-56.896C-229.158,-56.025 -232.309,-54.963 -235.413,-53.811C-238.439,-52.69 -241.436,-51.461 -244.347,-50.072C-247.164,-48.727 -249.942,-47.256 -252.437,-45.35C-254.343,-43.892 -256.19,-42.355 -258.024,-40.808C-259.272,-39.756 -260.527,-38.694 -261.648,-37.512C-263.202,-35.878 -264.655,-34.144 -266.11,-32.419C-267.102,-31.241 -268.039,-30.015 -268.967,-28.785C-269.286,-28.362 -269.452,-27.822 -269.777,-27.405C-271.312,-25.44 -272.509,-23.295 -273.36,-20.952C-273.777,-19.804 -274.217,-18.665 -274.635,-17.517C-274.769,-17.151 -274.931,-16.778 -274.967,-16.397C-275.131,-14.668 -275.272,-12.935 -275.384,-11.201C-275.427,-10.53 -275.472,-9.831 -275.34,-9.18C-274.687,-5.925 -274.459,-2.585 -273.267,0.562C-272.463,2.683 -271.901,4.901 -271.016,6.983C-269.567,10.392 -267.937,13.723 -266.396,17.092C-266.036,17.879 -265.764,18.707 -265.379,19.481C-264.199,21.853 -262.975,24.203 -261.785,26.57C-260.787,28.554 -259.876,30.586 -258.808,32.532C-257.748,34.463 -256.538,36.311 -255.397,38.198C-254.572,39.562 -253.848,40.999 -252.913,42.283C-251.111,44.758 -249.189,47.146 -247.323,49.575C-246.647,50.453 -246.005,51.359 -245.318,52.229C-243.414,54.646 -241.49,57.045 -239.585,59.461C-239.109,60.065 -238.702,60.723 -238.222,61.322C-236.511,63.456 -234.747,65.548 -233.07,67.707C-231.309,69.976 -229.64,72.315 -227.901,74.6C-226.825,76.014 -225.671,77.369 -224.592,78.781C-222.725,81.221 -220.913,83.705 -219.029,86.134C-217.532,88.064 -215.968,89.942 -214.422,91.833C-213.355,93.139 -212.307,94.462 -211.184,95.718C-209.43,97.68 -207.619,99.592 -205.833,101.526C-204.508,102.962 -203.259,104.48 -201.842,105.819C-199.992,107.567 -198.028,109.197 -196.079,110.837C-194.464,112.197 -192.807,113.505 -191.156,114.821C-189.845,115.866 -188.524,116.9 -187.189,117.915C-185.855,118.93 -184.498,119.913 -183.153,120.913C-182.19,121.63 -181.267,122.405 -180.265,123.061C-178.732,124.064 -177.117,124.943 -175.593,125.958C-173.826,127.137 -172.138,128.433 -170.382,129.629C-169.311,130.359 -168.183,131.007 -167.067,131.67C-166.022,132.29 -164.941,132.854 -163.908,133.494C-162.557,134.329 -161.257,135.246 -159.901,136.072C-158.541,136.901 -157.133,137.651 -155.755,138.453C-154.001,139.474 -152.289,140.571 -150.5,141.526C-148.912,142.373 -147.187,142.97 -145.625,143.858C-143.069,145.31 -140.377,146.437 -137.663,147.53C-137.528,147.583 -137.399,147.657 -137.269,147.722C-136.053,148.328 -134.875,149.032 -133.615,149.524C-128.655,151.459 -123.68,153.358 -118.688,155.207C-116.955,155.85 -115.154,156.307 -113.385,156.852C-111.566,157.412 -109.784,158.178 -107.924,158.495C-104.606,159.059 -101.486,160.345 -98.144,160.854C-95.882,161.199 -93.635,161.759 -91.361,162.148C-89.36,162.491 -87.385,162.949 -85.352,163.132C-83.482,163.301 -81.634,163.684 -79.768,163.904C-78.817,164.015 -77.85,163.989 -76.889,163.999C-75.651,164.013 -74.412,163.961 -73.175,164.006C-70.254,164.113 -67.468,163.447 -64.678,162.691C-59.997,161.422 -55.781,159.054 -51.432,157.034C-47.715,155.306 -44.045,153.455 -40.483,151.383C-37.577,149.693 -34.546,148.207 -31.711,146.381C-29.241,144.789 -26.718,143.269 -24.324,141.569C-21.668,139.683 -19.016,137.787 -16.591,135.587C-14.221,133.436 -12.067,131.129 -10.445,128.355C-10.299,128.104 -10.113,127.877 -9.954,127.634C-9.218,126.506 -8.292,125.456 -7.785,124.234C-6.085,120.129 -4.476,115.985 -2.958,111.81C-2.349,110.137 -2.055,108.348 -1.648,106.605C-1.496,105.953 -1.421,105.282 -1.328,104.617C-1.181,103.564 -1.069,102.505 -0.903,101.455C-0.668,99.972 -0.341,98.501 -0.155,97.012C0.157,94.523 0.378,92.023 0.666,89.53C0.706,89.186 0.907,88.861 1.1,88.348C1.32,88.757 1.468,88.946 1.529,89.16C2.118,91.19 2.682,93.227 3.275,95.256C3.732,96.82 4.177,98.389 4.705,99.928C5.753,102.984 6.86,106.019 7.933,109.066C8.84,111.647 9.616,114.282 10.656,116.809C13.131,122.825 15.719,128.793 18.293,134.768C18.485,135.212 18.776,135.606 19.105,135.993C19.278,135.536 19.475,135.015 19.648,134.558C18.991,134.571 19.037,134.031 18.856,133.596C17.861,131.206 16.895,128.805 15.877,126.425C14.99,124.354 13.98,122.333 13.147,120.242C12.115,117.653 11.225,115.008 10.244,112.4C9.686,110.916 9,109.479 8.492,107.979C7.447,104.888 6.638,101.708 5.434,98.683C4.558,96.482 4.116,94.176 3.33,91.961C2.656,90.062 2.249,88.071 1.654,86.141C1.329,85.084 1.155,84.083 1.663,83.038C1.807,82.743 1.812,82.377 1.864,82.042C2.197,79.894 2.515,77.743 2.86,75.596C3.052,74.406 3.309,73.226 3.497,72.036C3.751,70.431 3.848,68.791 4.228,67.219C4.831,64.724 5.313,62.229 5.34,59.653C5.349,58.839 5.499,58.027 5.543,57.212C5.645,55.382 5.768,53.551 5.794,51.719C5.815,50.286 5.609,48.847 5.672,47.418C5.832,43.745 5.169,40.134 4.921,36.494C4.767,34.218 4.241,31.965 3.841,29.709C3.598,28.336 3.313,26.968 2.98,25.614C2.525,23.755 2.273,21.84 1.484,20.071C1.369,19.812 1.331,19.518 1.25,19.243C0.546,16.849 -0.06,14.42 -0.891,12.072C-1.837,9.397 -3.076,6.826 -4.021,4.151C-5.184,0.853 -6.673,-2.295 -8.227,-5.409C-9.466,-7.891 -10.515,-10.478 -12.167,-12.755C-13.097,-14.035 -13.738,-15.524 -14.673,-16.799C-16.494,-19.282 -18.332,-21.763 -20.342,-24.09C-22.749,-26.878 -25.255,-29.59 -27.88,-32.171C-30.413,-34.661 -33.141,-36.952 -35.806,-39.305C-36.309,-39.75 -36.938,-40.047 -37.471,-40.463C-38.799,-41.499 -40.052,-42.638 -41.431,-43.599C-43.415,-44.98 -45.477,-46.246 -47.516,-47.546C-48.128,-47.935 -48.786,-48.253 -49.399,-48.64C-50.542,-49.364 -51.642,-50.159 -52.807,-50.843C-54.263,-51.701 -55.768,-52.475 -57.249,-53.291C-57.375,-53.36 -57.476,-53.473 -57.597,-53.553C-58.16,-53.922 -58.717,-54.3 -59.293,-54.646C-59.669,-54.87 -60.09,-55.018 -60.465,-55.242C-61.797,-56.036 -63.082,-56.918 -64.451,-57.638C-66.816,-58.884 -69.231,-60.035 -71.625,-61.227C-71.799,-61.314 -71.964,-61.422 -72.138,-61.509C-74.789,-62.839 -77.367,-64.347 -80.107,-65.455C-86.128,-67.89 -92.226,-70.136 -98.305,-72.425C-99.395,-72.836 -100.536,-73.129 -101.673,-73.394C-103.508,-73.821 -105.363,-74.161 -107.201,-74.574C-108.947,-74.965 -110.683,-75.404 -112.424,-75.819C-112.517,-75.841 -112.62,-75.827 -112.715,-75.842C-114.284,-76.104 -115.853,-76.366 -117.421,-76.631C-118.655,-76.84 -119.884,-77.074 -121.121,-77.262C-122.027,-77.4 -122.939,-77.518 -123.853,-77.585C-125.138,-77.677 -126.434,-77.571 -127.701,-77.949C-128.443,-78.171 -129.221,-78.345 -129.992,-78.388C-132.477,-78.527 -134.965,-78.622 -137.454,-78.681" style="fill:rgb(184,158,149);fill-rule:nonzero;"/>
            </g>
            <g transform="matrix(1,0,0,1,631.924,2068.55)">
                <path d="M0,85.432C-0.177,86.827 -0.527,88.198 -0.758,89.587C-0.899,90.439 -0.955,91.305 -1.041,92.165C-1.313,94.89 -1.581,97.617 -1.856,100.342C-1.876,100.535 -1.943,100.722 -1.98,100.913C-2.546,103.824 -3.074,106.741 -3.694,109.639C-3.947,110.826 -4.352,111.986 -4.767,113.128C-5.651,115.561 -6.572,117.981 -7.506,120.395C-8.385,122.668 -9.662,124.725 -11.021,126.736C-11.564,127.54 -12.03,128.397 -12.57,129.203C-14.016,131.365 -15.85,133.165 -17.713,134.972C-19.524,136.728 -21.768,137.858 -23.622,139.534C-24.565,140.386 -25.765,140.954 -26.849,141.653C-26.971,141.732 -27.094,141.811 -27.214,141.893C-29.001,143.119 -30.778,144.359 -32.58,145.561C-33.262,146.016 -34.014,146.363 -34.713,146.792C-38.437,149.084 -42.318,151.09 -46.214,153.062C-48.87,154.405 -51.592,155.614 -54.285,156.882C-56.671,158.005 -59.018,159.222 -61.454,160.224C-64.166,161.34 -66.973,162.1 -69.93,162.454C-72.352,162.745 -74.711,162.728 -77.131,162.641C-78.801,162.58 -80.466,162.404 -82.135,162.342C-83.376,162.296 -84.606,161.943 -85.843,161.733C-87.177,161.506 -88.518,161.316 -89.846,161.059C-91.647,160.71 -93.436,160.288 -95.238,159.944C-97.04,159.598 -98.852,159.312 -100.658,158.992C-100.944,158.941 -101.227,158.858 -101.504,158.77C-101.876,158.652 -102.235,158.483 -102.612,158.391C-105.262,157.743 -107.935,157.182 -110.56,156.448C-112.625,155.87 -114.645,155.119 -116.661,154.382C-119.505,153.343 -122.327,152.247 -125.159,151.176C-125.148,151.15 -125.139,151.123 -125.129,151.097C-129.65,149.386 -134.216,147.784 -138.676,145.924C-141.314,144.824 -143.784,143.319 -146.329,141.995C-146.545,141.882 -146.756,141.759 -146.974,141.649C-148.881,140.683 -150.813,139.762 -152.691,138.744C-154.86,137.567 -156.989,136.314 -159.125,135.076C-161.008,133.983 -162.896,132.897 -164.744,131.746C-165.722,131.137 -166.604,130.374 -167.557,129.723C-168.555,129.042 -169.589,128.416 -170.604,127.76C-172.55,126.5 -174.498,125.244 -176.436,123.973C-178.083,122.894 -179.723,121.806 -181.352,120.703C-181.669,120.488 -181.899,120.148 -182.211,119.924C-183.501,118.998 -184.84,118.139 -186.1,117.175C-187.93,115.776 -189.708,114.31 -191.506,112.868C-192.101,112.39 -192.647,111.839 -193.285,111.427C-195.896,109.738 -197.916,107.367 -200.283,105.422C-202.917,103.258 -204.89,100.504 -207.416,98.275C-207.915,97.833 -208.247,97.207 -208.684,96.691C-210.476,94.568 -212.325,92.491 -214.066,90.327C-215.841,88.121 -217.401,85.734 -219.263,83.609C-221.423,81.143 -223.315,78.477 -225.391,75.951C-226.696,74.364 -227.84,72.645 -229.082,71.005C-230.152,69.593 -231.266,68.214 -232.349,66.811C-234.34,64.231 -236.297,61.623 -238.318,59.066C-239.958,56.993 -241.674,54.981 -243.348,52.935C-244.138,51.969 -244.929,51.003 -245.688,50.013C-247.791,47.273 -249.981,44.59 -251.941,41.75C-253.936,38.862 -255.843,35.903 -257.423,32.747C-259.231,29.137 -261.138,25.576 -262.95,21.966C-263.854,20.166 -264.6,18.288 -265.491,16.482C-266.388,14.662 -267.426,12.912 -268.307,11.087C-268.953,9.747 -269.447,8.333 -270.008,6.953C-271.536,3.193 -272.831,-0.648 -273.599,-4.631C-274.088,-7.164 -274.402,-9.729 -274.407,-12.337C-274.411,-14.476 -273.873,-16.438 -273.123,-18.39C-272.036,-21.214 -271.054,-24.085 -269.497,-26.699C-269.057,-27.436 -268.521,-28.124 -267.965,-28.779C-266.509,-30.497 -265.013,-32.181 -263.54,-33.884C-260.956,-36.871 -258.169,-39.669 -255.125,-42.167C-253.055,-43.864 -250.915,-45.521 -248.495,-46.747C-245.363,-48.335 -242.275,-50.014 -239.11,-51.529C-237.421,-52.339 -235.615,-52.907 -233.847,-53.543C-232.628,-53.981 -231.397,-54.398 -230.148,-54.739C-227.184,-55.547 -224.208,-56.311 -221.233,-57.08C-219.093,-57.632 -216.96,-58.223 -214.8,-58.685C-212.772,-59.12 -210.715,-59.422 -208.666,-59.756C-206.576,-60.098 -204.487,-60.452 -202.388,-60.721C-199.201,-61.13 -196.007,-61.486 -192.813,-61.838C-189.917,-62.157 -187.02,-62.631 -184.116,-62.692C-180.503,-62.766 -176.966,-63.521 -173.365,-63.611C-172.698,-63.627 -172.04,-63.871 -171.37,-63.952C-168.043,-64.357 -164.712,-64.725 -161.387,-65.141C-159.148,-65.422 -156.922,-65.951 -154.679,-66.028C-151.437,-66.14 -148.293,-66.889 -145.083,-67.169C-143.562,-67.301 -142.064,-67.841 -140.549,-67.87C-138.115,-67.915 -135.777,-68.535 -133.38,-68.773C-131.083,-69.002 -128.796,-69.336 -126.497,-69.53C-124.449,-69.704 -122.389,-69.817 -120.334,-69.831C-118.697,-69.842 -117.053,-69.729 -115.424,-69.553C-113.264,-69.321 -111.115,-68.975 -108.962,-68.674C-107.574,-68.48 -106.187,-68.277 -104.798,-68.079C-104.653,-68.058 -104.503,-68.06 -104.363,-68.023C-102.346,-67.486 -100.292,-67.055 -98.323,-66.38C-95.183,-65.302 -92.069,-64.132 -89,-62.866C-86.571,-61.862 -84.192,-60.721 -81.854,-59.517C-79.701,-58.408 -77.6,-57.188 -75.539,-55.915C-74.018,-54.975 -72.572,-53.908 -71.142,-52.833C-69.217,-51.384 -67.282,-49.938 -65.456,-48.37C-63.789,-46.938 -62.234,-45.37 -60.674,-43.817C-58.357,-41.51 -56.005,-39.232 -53.806,-36.817C-51.735,-34.543 -49.404,-32.51 -47.628,-29.952C-46.707,-28.624 -45.366,-27.594 -44.367,-26.311C-42.861,-24.378 -41.433,-22.378 -40.074,-20.338C-38.333,-17.725 -36.631,-15.082 -35.028,-12.382C-33.777,-10.275 -32.816,-7.993 -31.522,-5.915C-29.726,-3.03 -28.552,0.13 -27.241,3.223C-26.211,5.65 -25.549,8.23 -24.642,10.712C-24.231,11.833 -23.55,12.854 -23.116,13.969C-22.257,16.17 -21.52,18.418 -20.669,20.622C-19.647,23.268 -18.499,25.866 -17.519,28.525C-16.727,30.675 -16.274,32.964 -15.352,35.05C-14.527,36.914 -14.117,38.906 -13.273,40.747C-13.155,41.004 -13.064,41.275 -12.972,41.543C-11.619,45.454 -10.225,49.353 -8.936,53.286C-8.234,55.427 -7.725,57.632 -7.106,59.803C-6.777,60.959 -6.375,62.095 -6.049,63.252C-5.296,65.928 -4.613,68.624 -3.822,71.288C-2.633,75.296 -1.356,79.279 -0.169,83.287C0.031,83.963 0.089,84.733 0,85.432ZM-136.799,-77.385C-134.677,-77.282 -132.562,-77.025 -130.44,-76.938C-128.267,-76.849 -126.101,-76.802 -123.963,-76.326C-121.521,-75.782 -118.968,-75.88 -116.57,-75.064C-116.479,-75.034 -116.379,-75.027 -116.282,-75.014C-114.804,-74.818 -113.308,-74.712 -111.854,-74.404C-109.764,-73.963 -107.706,-73.374 -105.634,-72.851C-105.397,-72.792 -105.152,-72.769 -104.916,-72.711C-102.649,-72.153 -100.298,-71.815 -98.135,-70.987C-92.311,-68.755 -86.298,-66.989 -80.752,-64.038C-78.691,-62.941 -76.468,-62.153 -74.354,-61.152C-71.764,-59.925 -69.16,-58.713 -66.662,-57.314C-65.388,-56.602 -64.191,-55.762 -62.801,-55.27C-62.666,-55.222 -62.545,-55.129 -62.423,-55.049C-61.044,-54.166 -59.688,-53.243 -58.283,-52.404C-56.827,-51.536 -55.302,-50.783 -53.843,-49.919C-51.516,-48.541 -49.218,-47.114 -46.909,-45.706C-46.784,-45.63 -46.668,-45.54 -46.551,-45.454C-44.996,-44.309 -43.454,-43.148 -41.884,-42.024C-39.849,-40.567 -37.746,-39.201 -35.762,-37.678C-34.396,-36.63 -33.15,-35.416 -31.908,-34.216C-29.38,-31.778 -26.787,-29.395 -24.415,-26.81C-22.214,-24.411 -20.203,-21.828 -18.223,-19.237C-15.857,-16.14 -13.491,-13.029 -11.854,-9.451C-11.814,-9.363 -11.814,-9.247 -11.755,-9.179C-10.299,-7.511 -9.733,-5.363 -8.724,-3.458C-7.465,-1.086 -6.513,1.449 -5.424,3.911C-5.211,4.393 -4.946,4.854 -4.762,5.346C-4.338,6.476 -3.976,7.629 -3.541,8.755C-2.864,10.502 -2.014,12.195 -1.48,13.983C-0.707,16.57 -0.164,19.226 0.502,21.847C1.103,24.213 1.843,26.55 2.328,28.939C2.883,31.673 3.267,34.445 3.641,37.211C3.84,38.679 3.873,40.172 3.959,41.655C4.096,44.003 4.229,46.353 4.331,48.703C4.355,49.278 4.217,49.858 4.22,50.434C4.232,52.346 4.332,54.259 4.288,56.169C4.25,57.802 4.091,59.435 3.928,61.062C3.818,62.166 3.645,63.267 3.436,64.357C3.154,65.825 2.775,67.274 2.503,68.743C2.204,70.353 1.991,71.98 1.714,73.595C1.494,74.884 1.032,76.168 1.051,77.449C1.07,78.652 0.556,79.67 0.521,81.157C0.168,80.665 -0.055,80.481 -0.111,80.254C-0.287,79.55 -0.339,78.812 -0.547,78.119C-1.575,74.703 -2.641,71.297 -3.687,67.887C-4.081,66.6 -4.489,65.316 -4.831,64.014C-5.414,61.787 -5.871,59.526 -6.528,57.323C-7.298,54.744 -8.226,52.212 -9.088,49.661C-9.304,49.023 -9.537,48.389 -9.754,47.75C-10.45,45.705 -11.121,43.651 -11.842,41.615C-12.616,39.432 -13.455,37.273 -14.227,35.09C-14.962,33.013 -15.604,30.902 -16.368,28.834C-17,27.121 -17.779,25.462 -18.437,23.757C-19.369,21.341 -20.231,18.898 -21.155,16.478C-22.596,12.705 -24.069,8.946 -25.514,5.175C-25.721,4.635 -25.786,4.036 -26.022,3.513C-27.375,0.536 -28.72,-2.446 -30.146,-5.387C-31.281,-7.725 -32.45,-10.055 -33.749,-12.304C-35.022,-14.509 -36.51,-16.589 -37.849,-18.756C-39.823,-21.954 -42.109,-24.922 -44.438,-27.86C-44.857,-28.387 -45.334,-28.87 -45.781,-29.376C-47.019,-30.779 -48.226,-32.212 -49.499,-33.583C-51.678,-35.927 -53.884,-38.249 -56.108,-40.55C-57.61,-42.104 -59.146,-43.626 -60.699,-45.13C-61.835,-46.23 -63.011,-47.292 -64.189,-48.346C-65.258,-49.303 -66.283,-50.331 -67.455,-51.143C-69.321,-52.435 -70.943,-54.047 -72.954,-55.153C-74.217,-55.848 -75.347,-56.785 -76.555,-57.585C-77.4,-58.144 -78.232,-58.755 -79.148,-59.172C-83.626,-61.215 -88.063,-63.375 -92.647,-65.153C-96.502,-66.648 -100.529,-67.708 -104.5,-68.89C-105.698,-69.247 -106.964,-69.385 -108.204,-69.594C-109.535,-69.819 -110.867,-70.061 -112.208,-70.204C-114.023,-70.396 -115.847,-70.515 -117.668,-70.638C-118.965,-70.726 -120.292,-70.966 -121.556,-70.789C-124.316,-70.4 -127.112,-70.597 -129.868,-70.04C-132.306,-69.547 -134.81,-69.383 -137.284,-69.071C-141.582,-68.529 -145.891,-68.064 -150.172,-67.417C-153.387,-66.93 -156.605,-66.505 -159.836,-66.151C-163.942,-65.702 -168.039,-65.174 -172.144,-64.726C-176.521,-64.248 -180.904,-63.815 -185.285,-63.375C-188.205,-63.082 -191.129,-62.823 -194.049,-62.525C-195.394,-62.387 -196.732,-62.185 -198.075,-62.027C-200.995,-61.682 -203.931,-61.444 -206.832,-60.983C-209.817,-60.508 -212.776,-59.851 -215.734,-59.219C-219.154,-58.488 -222.594,-57.815 -225.965,-56.896C-229.158,-56.025 -232.309,-54.963 -235.413,-53.811C-238.439,-52.69 -241.436,-51.461 -244.347,-50.072C-247.164,-48.727 -249.942,-47.256 -252.437,-45.35C-254.343,-43.892 -256.19,-42.355 -258.024,-40.808C-259.272,-39.756 -260.527,-38.694 -261.648,-37.512C-263.202,-35.878 -264.655,-34.144 -266.11,-32.419C-267.102,-31.241 -268.039,-30.015 -268.967,-28.785C-269.286,-28.362 -269.452,-27.822 -269.777,-27.405C-271.312,-25.44 -272.509,-23.295 -273.36,-20.952C-273.777,-19.804 -274.217,-18.665 -274.635,-17.517C-274.769,-17.151 -274.931,-16.778 -274.967,-16.397C-275.131,-14.668 -275.272,-12.935 -275.384,-11.201C-275.427,-10.53 -275.472,-9.831 -275.34,-9.18C-274.687,-5.925 -274.459,-2.585 -273.267,0.562C-272.463,2.683 -271.901,4.901 -271.016,6.983C-269.567,10.392 -267.937,13.723 -266.396,17.092C-266.036,17.879 -265.764,18.707 -265.379,19.481C-264.199,21.853 -262.975,24.203 -261.785,26.57C-260.787,28.554 -259.876,30.586 -258.808,32.532C-257.748,34.463 -256.538,36.311 -255.397,38.198C-254.572,39.562 -253.848,40.999 -252.913,42.283C-251.111,44.758 -249.189,47.146 -247.323,49.575C-246.647,50.453 -246.005,51.359 -245.318,52.229C-243.414,54.646 -241.49,57.045 -239.585,59.461C-239.109,60.065 -238.702,60.723 -238.222,61.322C-236.511,63.456 -234.747,65.548 -233.07,67.707C-231.309,69.976 -229.64,72.315 -227.901,74.6C-226.825,76.014 -225.671,77.369 -224.592,78.781C-222.725,81.221 -220.913,83.705 -219.029,86.134C-217.532,88.064 -215.968,89.942 -214.422,91.833C-213.355,93.139 -212.307,94.462 -211.184,95.718C-209.43,97.68 -207.619,99.592 -205.833,101.526C-204.508,102.962 -203.259,104.48 -201.842,105.819C-199.992,107.567 -198.028,109.197 -196.079,110.837C-194.464,112.197 -192.807,113.505 -191.156,114.821C-189.845,115.866 -188.524,116.9 -187.189,117.915C-185.855,118.93 -184.498,119.913 -183.153,120.913C-182.19,121.63 -181.267,122.405 -180.265,123.061C-178.732,124.064 -177.117,124.943 -175.593,125.958C-173.826,127.137 -172.138,128.433 -170.382,129.629C-169.311,130.359 -168.183,131.007 -167.067,131.67C-166.022,132.29 -164.941,132.854 -163.908,133.494C-162.557,134.329 -161.257,135.246 -159.901,136.072C-158.541,136.901 -157.133,137.651 -155.755,138.453C-154.001,139.474 -152.289,140.571 -150.5,141.526C-148.912,142.373 -147.187,142.97 -145.625,143.858C-143.069,145.31 -140.377,146.437 -137.663,147.53C-137.528,147.583 -137.399,147.657 -137.269,147.722C-136.053,148.328 -134.875,149.032 -133.615,149.524C-128.655,151.459 -123.68,153.358 -118.688,155.207C-116.955,155.85 -115.154,156.307 -113.385,156.852C-111.566,157.412 -109.784,158.178 -107.924,158.495C-104.606,159.059 -101.486,160.345 -98.144,160.854C-95.882,161.199 -93.635,161.759 -91.361,162.148C-89.36,162.491 -87.385,162.949 -85.352,163.132C-83.482,163.301 -81.634,163.684 -79.768,163.904C-78.817,164.015 -77.85,163.989 -76.889,163.999C-75.651,164.013 -74.412,163.961 -73.175,164.006C-70.254,164.113 -67.468,163.447 -64.678,162.691C-59.997,161.422 -55.781,159.054 -51.432,157.034C-47.715,155.306 -44.045,153.455 -40.483,151.383C-37.577,149.693 -34.546,148.207 -31.711,146.381C-29.241,144.789 -26.718,143.269 -24.324,141.569C-21.668,139.683 -19.016,137.787 -16.591,135.587C-14.221,133.436 -12.067,131.129 -10.445,128.355C-10.299,128.104 -10.113,127.877 -9.954,127.634C-9.218,126.506 -8.292,125.456 -7.785,124.234C-6.085,120.129 -4.476,115.985 -2.958,111.81C-2.349,110.137 -2.055,108.348 -1.648,106.605C-1.496,105.953 -1.421,105.282 -1.328,104.617C-1.181,103.564 -1.069,102.505 -0.903,101.455C-0.668,99.972 -0.341,98.501 -0.155,97.012C0.157,94.523 0.378,92.023 0.666,89.53C0.706,89.186 0.907,88.861 1.1,88.348C1.32,88.757 1.468,88.946 1.529,89.16C2.118,91.19 2.682,93.227 3.275,95.256C3.732,96.82 4.177,98.389 4.705,99.928C5.753,102.984 6.86,106.019 7.933,109.066C8.84,111.647 9.616,114.282 10.656,116.809C13.131,122.825 15.719,128.793 18.293,134.768C18.485,135.212 18.776,135.606 19.105,135.993C19.278,135.536 19.475,135.015 19.648,134.558C18.991,134.571 19.037,134.031 18.856,133.596C17.861,131.206 16.895,128.805 15.877,126.425C14.99,124.354 13.98,122.333 13.147,120.242C12.115,117.653 11.225,115.008 10.244,112.4C9.686,110.916 9,109.479 8.492,107.979C7.447,104.888 6.638,101.708 5.434,98.683C4.558,96.482 4.116,94.176 3.33,91.961C2.656,90.062 2.249,88.071 1.654,86.141C1.329,85.084 1.155,84.083 1.663,83.038C1.807,82.743 1.812,82.377 1.864,82.042C2.197,79.894 2.515,77.743 2.86,75.596C3.052,74.406 3.309,73.226 3.497,72.036C3.751,70.431 3.848,68.791 4.228,67.219C4.831,64.724 5.313,62.229 5.34,59.653C5.349,58.839 5.499,58.027 5.543,57.212C5.645,55.382 5.768,53.551 5.794,51.719C5.815,50.286 5.609,48.847 5.672,47.418C5.832,43.745 5.169,40.134 4.921,36.494C4.767,34.218 4.241,31.965 3.841,29.709C3.598,28.336 3.313,26.968 2.98,25.614C2.525,23.755 2.273,21.84 1.484,20.071C1.369,19.812 1.331,19.518 1.25,19.243C0.546,16.849 -0.06,14.42 -0.891,12.072C-1.837,9.397 -3.076,6.826 -4.021,4.151C-5.184,0.853 -6.673,-2.295 -8.227,-5.409C-9.466,-7.891 -10.515,-10.478 -12.167,-12.755C-13.097,-14.035 -13.738,-15.524 -14.673,-16.799C-16.494,-19.282 -18.332,-21.763 -20.342,-24.09C-22.749,-26.878 -25.255,-29.59 -27.88,-32.171C-30.413,-34.661 -33.141,-36.952 -35.806,-39.305C-36.309,-39.75 -36.938,-40.047 -37.471,-40.463C-38.799,-41.499 -40.052,-42.638 -41.431,-43.599C-43.415,-44.98 -45.477,-46.246 -47.516,-47.546C-48.128,-47.935 -48.786,-48.253 -49.399,-48.64C-50.542,-49.364 -51.642,-50.159 -52.807,-50.843C-54.263,-51.701 -55.768,-52.475 -57.249,-53.291C-57.375,-53.36 -57.476,-53.473 -57.597,-53.553C-58.16,-53.922 -58.717,-54.3 -59.293,-54.646C-59.669,-54.87 -60.09,-55.018 -60.465,-55.242C-61.797,-56.036 -63.082,-56.918 -64.451,-57.638C-66.816,-58.884 -69.231,-60.035 -71.625,-61.227C-71.799,-61.314 -71.964,-61.422 -72.138,-61.509C-74.789,-62.839 -77.367,-64.347 -80.107,-65.455C-86.128,-67.89 -92.226,-70.136 -98.305,-72.425C-99.395,-72.836 -100.536,-73.129 -101.673,-73.394C-103.508,-73.821 -105.363,-74.161 -107.201,-74.574C-108.947,-74.965 -110.683,-75.404 -112.424,-75.819C-112.517,-75.841 -112.62,-75.827 -112.715,-75.842C-114.284,-76.104 -115.853,-76.366 -117.421,-76.631C-118.655,-76.84 -119.884,-77.074 -121.121,-77.262C-122.027,-77.4 -122.939,-77.518 -123.853,-77.585C-125.138,-77.677 -126.434,-77.571 -127.701,-77.949C-128.443,-78.171 -129.221,-78.345 -129.992,-78.388C-132.477,-78.527 -134.965,-78.622 -137.454,-78.681" style="fill:none;fill-rule:nonzero;stroke:rgb(243,237,236);stroke-width:0.48px;"/>
            </g>
        </g>
    </g>
</svg>
