<?xml version="1.0" encoding="utf-8"?>
<!-- Generator: Adobe Illustrator 25.0.1, SVG Export Plug-In . SVG Version: 6.00 Build 0)  -->
<svg version="1.1" id="Capa_1" xmlns="http://www.w3.org/2000/svg" xmlns:xlink="http://www.w3.org/1999/xlink" x="0px" y="0px"
	 viewBox="0 0 1146.6 559.7" style="enable-background:new 0 0 1146.6 559.7;" xml:space="preserve">
<style type="text/css">
	.st0{fill:#E6EAE4;}
	.st1{opacity:0.4;clip-path:url(#SVGID_2_);}
	.st2{fill:none;stroke:#B89E95;stroke-width:0.2992;stroke-miterlimit:10;}
	.st3{fill:#B89E95;}
	.st4{fill:#B89E95;stroke:#E5E9E3;stroke-width:1.7951;stroke-miterlimit:10;}
	.st5{fill:#B2A7B6;}
	.st6{clip-path:url(#SVGID_4_);}
	.st7{opacity:0.7;clip-path:url(#SVGID_6_);}
	.st8{fill:#C9C0B8;}
	.st9{clip-path:url(#SVGID_8_);fill:#B89E95;}
</style>
<rect class="st0" width="1146.6" height="559.7"/>
<g>
	<g>
		<g>
			<defs>
				<rect id="SVGID_1_" width="1146.6" height="559.7"/>
			</defs>
			<clipPath id="SVGID_2_">
				<use xlink:href="#SVGID_1_"  style="overflow:visible;"/>
			</clipPath>
			<g class="st1">
				<path class="st2" d="M-1.2,84.5c41.2,24.1,72.9,64.2,117.6,80.8c13.6,5.1,28,7.8,42.3,10.3c16.5,2.9,33.3,5.5,49.9,3.5
					c12.8-1.5,25.1-5.7,37.7-8.2c32.4-6.5,66-2,98.9-4.4c33-2.4,68.5-14,85.3-42.5c16.3-27.6,10.5-62.2,14.2-93.9
					c2.6-22.3,10.3-44,22.2-63c10.5-16.8,24.8-32.7,26.5-52.5"/>
				<g>
					<path class="st2" d="M-2.4,47.4c29.2,25.2,59.6,49.2,90.9,71.8c13.2,9.6,26.9,19,42.3,24.4c14.9,5.2,30.8,6.5,46.5,7.2
						c55.1,2.5,110.4-1.3,164.6-11.3c17.2-3.1,35-7.3,48.3-18.5c16.6-14.1,23.2-36.6,26.3-58.2c3.1-21.6,3.6-43.8,11.6-64.1
						c6.4-16.2,17.3-30.1,25.1-45.6c7.8-15.5,12.5-34.2,5.6-50.2"/>
					<path class="st2" d="M-7.5,29.3c8.2,6.8,16.8,12.3,25,17.4c8.2,5.1,16.1,9.9,24.4,14.7c11.6,6.8,23.8,13.9,36.3,21.2
						c6.3,3.7,12.6,7.4,19.2,10.8c6.8,3.5,13.8,6.6,21.3,8.9c14.1,4.4,29.1,5.6,43.9,6.2c48.2,2.2,96.6-1.1,144-9.7
						c15-2.7,30.6-6.3,42.4-15.9c14.7-11.9,21.1-31,24.5-49.3s4.1-37.5,12.1-54.5c7-14.8,18.4-27.9,26.3-42.8
						c7.9-14.9,12.7-32.8,7.1-48.5"/>
					<path class="st2" d="M-12.5,11.2c7.8,6.2,16.4,9.9,24,13c7.6,3,14.6,5.5,22.2,8.2c10.6,3.8,22.2,8.5,34.2,13.6
						c6,2.6,12.2,5.4,18.5,8c6.5,2.7,13.2,5.2,20.3,7c13.3,3.5,27.4,4.7,41.3,5.3c41.3,1.8,82.8-0.8,123.5-8.2
						c12.9-2.3,26.2-5.4,36.5-13.2c12.9-9.8,19-25.4,22.7-40.4c3.8-15,4.9-31.1,12.7-45c7.7-13.6,19.5-25.7,27.5-40
						c8-14.3,13-31.4,8.6-46.9"/>
					<path class="st2" d="M-17.6-6.9c7.5,5.6,16,7.6,23,8.5c7,1,13.1,1,19.9,1.7c9.6,0.8,20.7,3,32.2,6.1c5.8,1.6,11.7,3.4,17.7,5.2
						c6.2,1.9,12.6,3.7,19.2,5.1c12.6,2.7,25.7,3.8,38.7,4.4c34.4,1.5,69.1-0.6,103-6.6C247,15.7,258,13.2,266.8,7
						c11-7.7,16.9-19.8,21-31.5c4.1-11.8,5.8-24.6,13.2-35.5c8.5-12.4,20.6-23.5,28.8-37.2c8.2-13.7,13.2-30,10.1-45.3"/>
				</g>
				<g>
					<path class="st2" d="M177.4,312.4c-18,12.3-32.8,28.7-46.2,45.9c-7.4,9.5-14.4,19.2-19.9,29.9c-11.4,22.1-15.7,47.9-12.2,72.5
						c1.5,10.8,4.8,21.8,11.9,30.2c7.1,8.3,18.8,13.4,29.3,10.3c10-2.9,16.8-12.4,20.4-22.1s5-20.2,8.4-30.1
						c6.4-18.6,19.9-33.8,33.7-47.9c13.8-14,28.4-27.8,37.9-45c9-16.2,17.2-45.8-2.4-57.9C220,286.9,192.5,302.1,177.4,312.4z"/>
					<path class="st2" d="M169.7,343.9c-10.2,7.7-19,17.3-26.8,27.3c-4.4,5.6-8.5,11.4-11.8,17.5c-2.7,5-4.8,10.1-6.3,15.1
						c-2.2,7.4-3.4,15.1-3.1,22.9c0.1,1.3,0.2,2.7,0.3,4c0.7,6.4,2.5,12.9,6.7,17.8c4.8,5.5,12.9,7.5,19.5,5
						c0.2-0.1,0.4-0.1,0.6-0.2c6.4-2.7,10.7-9.2,13.5-15.7c2.3-5.3,3.8-11.5,6.6-17.6c4.8-10.6,13.1-20,21.4-28.8
						c7.9-8.2,16.1-16.3,21.5-26c5.4-9.9,9.6-26.3-2-32.9c-5.7-3.2-12.4-2.7-19.1-0.4C183,334.6,175.4,339.6,169.7,343.9z"/>
					<path class="st2" d="M148.3,393.5c-1.3,1.9-2.6,4-3.1,6.2c-0.5,2.3-0.2,4.9,1.4,6.5c2.7,2.8,7.6,1.9,10.5-0.6
						c2.9-2.5,4.6-6.2,6.8-9.4c1.5-2.1,8.6-8.4,14-14.7s9-12.7,3.4-14.8c-3.1-1.2-6.4-0.6-9.7,1.1s-6.6,4.5-9.6,7.7
						C156,381.9,150.8,389.8,148.3,393.5z"/>
				</g>
				<path class="st2" d="M674.7,703.2c-11.4-16.1-13.7-36.8-14.8-56.5c-1.5-27.2-1.3-54.5,0.5-81.8c2.2-32.6,6.7-65.5,1.8-97.9
					s-21.1-65-50.1-80.1c-19.5-10.2-42.2-11.4-63.5-17.1c-21.2-5.7-43.3-18.8-47.9-40.3c-5-23.1,12.1-45,29.8-60.7
					c5.5-4.9,11.3-9.6,18-12.6c8-3.5,16.8-4.4,25.5-5.1c23.3-1.9,46.8-2.6,70.2-2.2c18.2,0.3,36.7,1.3,54.5-2.6
					c9.5-2.1,18.8-5.6,28.4-7c32.9-4.8,63.9,14.8,91.3,33.5c10.6,7.2,21.3,14.5,29.7,24.2c25.5,29.2,24.5,73.6,12.2,110.4
					c-12.3,36.8-34,69.8-46.7,106.4c-23.2,66.7-14.7,140.2,1,209.1"/>
				<g>
					<path class="st2" d="M319.2,702.3c18.2-21.2,37.2-44.2,40.2-72c5-46.6-36.2-86-42.5-132.5c-1-7.5-1.1-15.3,1.5-22.4
						c4.5-12.5,16.1-20.8,27.6-27.3c34.5-19.5,73.2-30,111.6-39.9c28.7-7.5,58.7-14.8,87.7-8.7c21.3,4.5,40.7,15.9,57.4,29.8
						c9.7,8,18.8,17,24.4,28.2c5.3,10.5,7.4,22.3,8.8,34c9.4,77.6-5.4,158.9,20.1,232.8"/>
					<path class="st2" d="M347.7,705.2c15.3-17.6,31-36.9,33.8-60c2.1-18-3.8-34.7-11.3-51.4c-8.8-19.4-19.7-38.6-22.5-59.5
						c-0.8-6.2-0.9-12.7,1.1-18.7c3.6-10.4,12.9-17.5,22.2-23.2c28.1-17.1,60.6-26.8,92.9-34.8c23.9-6,48.8-11.4,72.7-5.9
						c17.6,4,33.5,13.8,47,25.6c7.9,6.9,15.2,14.7,19.7,24.1c3,6.2,4.7,12.9,5.8,19.7c0.5,3,0.9,6,1.2,9
						c7.7,65.5-2.9,133.8,19.8,195.3"/>
					<path class="st2" d="M376.1,708c12.3-14.1,24.8-29.5,27.3-48c1.9-14.3-2.4-27.8-8-41.2c-6.6-15.6-15-31.2-17.3-47.9
						c-0.7-5-0.8-10.2,0.8-15c2.7-8.4,9.8-14.2,16.9-19.1c21.6-14.8,48-23.6,74.3-29.6c19.2-4.4,39-8,57.8-3.1
						c13.8,3.6,26.3,11.7,36.6,21.5c6.1,5.8,11.6,12.3,15,20.1c2.2,5.1,3.5,10.6,4.3,16.1c0.4,2.4,0.7,4.9,0.9,7.3
						c5.9,53.3-0.3,108.7,19.6,157.9"/>
					<path class="st2" d="M404.6,710.8c9.4-10.5,18.6-22.2,20.8-36.1c1.7-10.7-0.9-20.9-4.7-31.1c-4.4-11.9-10.3-23.7-12-36.3
						c-0.5-3.8-0.6-7.7,0.4-11.3c1.8-6.4,6.6-11,11.5-15c15.2-12.5,35.4-20.4,55.7-24.5c14.4-2.9,29.2-4.7,42.9-0.3
						c10.1,3.2,19.1,9.6,26.2,17.3c4.3,4.7,8,10,10.2,16.1c1.5,4,2.3,8.2,2.8,12.5c0.2,1.9,0.5,3.8,0.6,5.7
						c4.1,41.1,2.2,83.5,19.3,120.4"/>
				</g>
				<g>
					<path class="st2" d="M547.3,310.3c1.4-9.6,8.8-17.5,17.5-21.8c8.7-4.3,18.6-5.4,28.2-6c23.8-1.4,47.9,0.6,71.5-2.9
						c17.3-2.6,34.1-8.1,51.5-9c15.3-0.8,30.7,2,45.4,6.4c22.7,6.7,44.8,17.3,61.1,34.4s26.2,41.4,22,64.7
						c-1.2,6.7-3.9,13.8-9.9,17.1c-2.7,1.5-5.9,2.1-8.9,2.5c-57.6,8.9-123.7-2.4-177.9-23c-17.8-6.8-33.9-15.8-52.3-21
						C576.4,346.3,543.3,337.3,547.3,310.3z"/>
					<path class="st2" d="M635.2,309.8c4.9-2.4,10.5-3.2,15.9-3.6c6.6-0.5,13.3-0.6,20-0.8c6.6-0.1,13.5-0.4,20.3-1.2
						c9.7-1.3,19.2-4,29.1-4.2c8.7-0.3,17.3,1.3,25.6,3.7c13,3.8,25.6,9.7,34.6,19.1c11.5,11.9,14.1,27.4,8.7,40.2
						c-1.5,3.6-4,7.2-7.8,9c-1.6,0.7-3.3,1-5,1.2c-32.2,4.2-68.6-2.4-98.5-14.5c-9.8-3.9-18.7-9-28.6-12.5
						c-7.2-2.5-17.6-6.1-22.4-12.8c-2.3-3.2-3.3-7-2.3-11.8C626,316.4,630.3,312.2,635.2,309.8z"/>
					<path class="st2" d="M713.6,328.9c-2.7,0.3-5.4,1.2-8,2.2c-2,0.8-4.3,2.1-4.7,4.3c-0.3,2,1,3.9,2.5,5.3
						c6.5,6.4,15.8,9.5,24.9,10c9.2,0.5,19.1-8,10.5-16.5C734,329.4,719.7,328.2,713.6,328.9z"/>
				</g>
				<path class="st2" d="M694.3,697.5c-16.3-26.4-16.6-59.6-11.8-90.2c4.8-30.6,14-60.6,15.2-91.6c0.7-19-1.7-38-0.1-56.9
					c0.6-7,1.8-14.2,5.8-20c3.7-5.4,9.3-9,15.3-11.6c16-6.8,34.3-6,50.9-1c6.4,1.9,13,4.7,17,10.1c3.5,4.7,4.5,10.7,5.1,16.5
					c3.3,35-7.6,69.5-13.1,104.2c-7.6,47.6-5,96.8,7.5,143.3"/>
				<path class="st2" d="M703.5,694.2c-11.5-33.5-12.8-70.5-3.6-104.8c2.8-10.5,6.6-20.7,9.4-31.1c8.1-30.1,8.2-61.7,12.2-92.6
					c0.8-6.4,2-13,6-18c7.1-8.8,20.4-9.2,31.3-6.5c5.2,1.3,10.4,3.2,14.4,6.8c6.2,5.4,8.8,14,8.9,22.2c0.1,8.2-2,16.3-3.9,24.2
					c-12,50.1-16.3,102-12.9,153.3c1.1,15.8,2.9,31.9,9.6,46.3"/>
				<path class="st2" d="M714.3,691.9c-7.1-22.9-14.1-46.7-10.5-70.4c3.7-24.2,18-45.5,23.8-69.3c2.8-11.5,4-24.3,12.5-32.5
					c2.3-2.2,5.7-4,8.5-2.5c1.3,0.7,2.2,2,2.9,3.3c5.7,10.1,5.2,22.5,4.4,34.1c-1,15.4-2,30.8-3,46.2c-0.7,10.9-1.4,21.8-0.9,32.8
					c1.2,24.1,8.2,47.4,15.2,70.5"/>
				<path class="st2" d="M-0.6,123.3c16.8,13.1,33.6,26.1,50.4,39.2c14.7,11.4,29.6,22.9,46.5,30.7c37.3,17,80.3,13.8,121.2,10.3
					c17.4-1.5,34.8-3,52.1-4.5c37.7-3.2,75.6-6.5,112.5-15.3c14.4-3.4,28.9-7.9,41.1-16.2c22.2-15.2,34.3-41.4,40.7-67.6
					s8.1-53.3,15.1-79.3c11.2-42,36.4-80.1,70.6-106.8"/>
				<path class="st2" d="M2.2,263.6c77.2,7.9,154.4-17.1,232-14.8c13.4,0.4,27.1,1.7,39.4,6.9c12.3,5.3,23.3,15,27.2,27.9
					c3.3,10.9,1.2,22.6-1.5,33.6c-5.4,22.7-13.2,45-25.3,64.9c-26.7,44.1-73.9,76.4-87.7,126.1c-8.9,32.2-2.1,66.5-5.1,99.7
					c-3.9,43.8-25.7,85.8-59.3,114.2"/>
				<path class="st2" d="M-25.2,299.9c35.7-7.1,71.3-14.2,107-21.3c10.5-2.1,21.5-4.2,31.8-1.3c10.3,2.9,19.6,12.5,18.3,23.2
					c-0.9,7.7-6.8,13.6-12.3,19.1C53.7,385.7,1.4,472.8,3.3,566.3"/>
				<path class="st2" d="M-38.5,671.7c17.7-12.8,31.8-30.7,40-50.9c12.1-29.7,11.7-64,27.4-91.9c3.1-5.5,7.1-10.9,13-13.2
					c9.9-3.8,20.9,2.8,27.8,10.9s12,17.9,20.8,24c12.8,8.8,30.4,7.6,43.5,15.8c13.4,8.3,19.5,25.2,18.8,41
					c-0.7,15.7-7.2,30.6-14.2,44.7c-12.2,24.4-27.1,48.2-48.4,65.2"/>
				<path class="st2" d="M-8.4,325.8c17.7-14.5,40.3-22.8,63.1-23.1c3.9-0.1,7.9,0.1,11.3,2c3.9,2.1,6.4,6.2,7.8,10.4
					c3.6,10.6,1.1,22.5-4.1,32.4s-12.9,18.3-20.3,26.7c-21.8,24.8-42.8,53-45.8,85.8"/>
				<path class="st2" d="M201.4,538.1c-5.8,21.6-5.6,44.5-2.2,66.7c3.6,23.5,13.4,49.4,35.6,57.9c19.7,7.5,43.2-2.5,55.2-19.9
					c12-17.3,13.9-40.1,9.8-60.8s-13.5-39.8-22.9-58.7c-7.5-15-16.1-44.8-38.2-39.5C219.1,488.5,205.9,521.1,201.4,538.1z"/>
				<path class="st2" d="M226.9,587.1c0.6,9,1.6,18.2,5.7,26.2c4.1,8,11.8,14.8,20.8,15.4c2.2,0.1,4.5-0.1,6.4-1.2
					c3.4-1.8,5-5.7,6.1-9.4c2.8-9.6,3.6-19.7,3.7-29.7c0.1-15.3-2.7-58.3-26.1-56.9C220.2,532.8,226,572.8,226.9,587.1z"/>
				<path class="st2" d="M625.4-67.3c-42.8,26.1-70.6,71.9-85.9,119.7c-9.8,30.5-15.3,62.8-31.4,90.5c-21.5,36.9-59.6,61.5-99.4,77
					c-23.8,9.3-50.5,17.2-64.9,38.4c-6.4,9.4-9.6,20.5-12.2,31.5c-5.5,22.7-9.1,45.8-10.8,69c-0.6,8.8,0.2,19.7,8.2,23.4
					c5.8,2.7,12.5,0.1,18.1-2.8c70.2-37,96.6-130.6,168-165.2c29.7-14.4,63.7-16.6,96.7-18.5c69.2-4,141.9-7.4,204.2,22.9
					c36,17.5,66.1,45.3,101.5,63.8c70.3,36.8,160.3,32.7,226.9-10.4"/>
				<path class="st2" d="M649.8-66.6c-44.5,29.5-77,76.4-89.2,128.4c-5.6,24-7.1,49.1-16.5,71.8c-12.7,30.4-38.5,53.3-66,71.5
					s-57.3,32.5-83.9,52c-19.5,14.4-38.4,34.4-38.1,58.7c19.6,5.3,37.5-11.6,51-26.7c44.7-49.9,95.2-98.8,159.3-118.4
					c27.8-8.5,57.1-11.2,86.2-11.9c69-1.7,141,8.2,198.1,47c13.7,9.3,26.3,20.2,40,29.7c77.4,54,186.7,57.7,267.6,9.1"/>
				<path class="st2" d="M680.7-73c-24.7,11-45,30.7-60,53.2s-25.2,48-33.6,73.7c-6,18.4-10.9,39.8-0.8,56.3
					c11.7,19.3,38.2,23,60.6,20.9c34.1-3.2,66.8-12.3,92.6-35.5c47.2-42.4,75.9-104.7,77.4-168.2"/>
				<path class="st2" d="M705.4-66.7C660.9-40.9,628.2,4.5,618,54.9c-0.8,4.2-1.5,8.5-1.4,12.7c0.8,18.4,18.3,32.9,36.5,35.4
					c18.3,2.5,36.5-4.6,52.4-14.1c53-31.5,87.7-91.8,88.2-153.6"/>
				<path class="st2" d="M737.3-68.2c-13,12.1-25.9,24.1-38.9,36.2c-10,9.3-20.1,18.8-27.9,30S657.4,22.7,658,36.3
					c0.2,4,0.9,8.2,3.1,11.6c3.9,6.1,11.8,8.7,18.9,8.1c7.2-0.6,13.8-4,20-7.8c40.2-24.7,66.8-70.3,68.6-117.5"/>
				<path class="st2" d="M690.1,16.8c-0.2,1.2-0.4,2.7,0.5,3.6c0.7,0.7,1.8,0.8,2.7,0.8c7.9-0.1,15.4-3.8,21.3-9
					c8.6-7.4,31.5-32,8.2-35.9C704.3-26.8,693,2.8,690.1,16.8z"/>
				<path class="st2" d="M852.1,125.2c-5.9-8-12.5-15.8-21.3-20.6c-5.9-3.2-12.6-4.9-19.3-5.9C790,95.6,766.4,99.6,750,114
					c-3.5,3-6.7,6.6-8,11c-1.4,4.4-0.5,9.7,3,12.7c1.6,1.3,3.6,2.1,5.5,2.8c26,9.9,51.5,21,76.6,33.1c6.8,3.3,13.7,6.7,21.2,7.8
					c14.5,2.1,28.4-7.7,25-23.6C870.8,146.6,858.8,134.2,852.1,125.2z"/>
				<path class="st2" d="M803.5,116.4c-3.5-0.2-7.1,0-10.2,1.6c-3.1,1.6-5.5,4.9-5.1,8.4c0.2,1.9,1.1,3.6,2.2,5.1
					c5,6.9,13.3,10.6,21.3,13.8c5.5,2.2,11.7,4.3,17.2,1.9c9.7-4.2,8.8-17.4,1-23.1C823.5,119.3,811.1,116.8,803.5,116.4z"/>
				<path class="st2" d="M885-71c-17.3,19.8-30.4,43.3-38,68.5c-4.5,15-7,31.5-0.9,45.9c2.8,6.6,7.3,12.4,12.1,17.9
					c3.2,3.7,6.6,7.3,10.4,10.4c4,3.2,8.4,5.8,12.5,8.9c16.8,12.4,27.3,31.3,36.7,50c2.6,5.3,5.2,10.6,8.8,15.3
					c7.6,9.9,19.4,16.4,31.8,17.6c12.4,1.3,25.2-2.6,35.1-10.2c3.3-2.5,6.3-5.5,8.6-8.9c3.1-4.5,5-9.8,6.2-15.1
					c4.5-19.2,1-40.2-9.6-56.9c-4.2-6.6-9.3-12.4-13.7-18.8C973.4,36.6,967.3,16,967.9-4.5c0.6-20.5,7.9-40.8,20.5-57"/>
				<path class="st2" d="M901.1-67.9c-12.4,12.7-22.5,28-27.8,45c-5.3,17-5.5,35.8,0.8,52.4c11.2,29.6,40.7,48.7,54.9,77
					c2.8,5.6,5,11.5,8.4,16.8s8.3,9.9,14.4,11.3c9.4,2.1,19.2-4.6,23.2-13.3c4.1-8.8,3.5-19,1.6-28.4c-5.6-27.3-22-51.8-25.9-79.5
					C948.7-1.6,950.5-17,953-32c2.7-16,7-32.9,18.8-44.1"/>
				<path class="st2" d="M923.3-63.7c-11.8,11.5-19.2,27-22.3,43.2c-3.1,16.2-2,33,1.6,49c1.1,4.6,2.8,9.7,7,11.9
					c5,2.5,11.2-0.5,14.3-5.2s3.7-10.4,4.2-15.9c2.2-21.1,5.2-42.1,8.7-63c1.1-6.5,2.4-13.3,6.6-18.4c1.8-2.2,4.2-4.2,4.5-7.1"/>
				<path class="st2" d="M1043-66.2c-16.3,11.4-25.7,31.3-26.5,51.2c-0.8,19.9,6.4,39.6,17.9,55.8c5.3,7.5,11.4,14.3,16.3,22
					c6.7,10.6,10.9,22.6,14.1,34.8c8.5,32.6,8.8,71.4-14.8,95.5c-15.1,15.4-37,21.6-57.8,27.6c-9.5,2.7-21,7.8-21.4,17.7
					c-0.2,5.9,4,11.3,9.2,14s11.3,3.5,17.1,4c55.1,5.2,115.5,0.6,157.5-35.4"/>
				<path class="st2" d="M1075.7-68.8c-20.7,8.9-31.6,33-31.2,55.6s9.7,43.9,19.6,64.1c10,20.2,20.9,40.5,24.7,62.7
					c5.3,31.1-3.8,63-16.8,91.8c-1.7,3.8-3.5,7.8-2.7,11.8c1.7,8.4,12.9,10.6,21.4,9.1c29.2-5,51-29.1,68-53.4"/>
				<path class="st2" d="M1120.4-66.5c-23.4,8.3-37.2,33.7-39.3,58.4c-2.1,24.7,5.2,49.2,12.6,72.8s14.8,48.1,13,72.8
					c-0.5,6.4-1.6,12.8-0.5,19.1c1,6.3,4.7,12.7,10.8,14.7c7.7,2.6,15.9-2.7,20.8-9.2s7.9-14.3,13.4-20.3"/>
				<path class="st2" d="M1143.2-36.7c-15.8,16.2-23.7,38.8-27,61.2c-4.3,29-0.8,61.7,20,82.4"/>
				<path class="st2" d="M867.8,700.8c-11.2-15.1-13.7-34.8-15.3-53.6c-2.5-29.8-3.8-60,0.6-89.6c8.2-55.5,35.5-106,62.3-155.2
					c7.8-14.2,15.8-28.8,28.2-39.3c16-13.6,37.4-18.7,57.9-23.4c35.8-8.2,73.1-16.4,109-8.5c13,2.9,25.5,7.8,38.8,9.2"/>
				<path class="st2" d="M890,699.9c-1.8,0.9-3.4-1.5-4-3.4c-23-71.3-11-149.9,15.7-219.9c14.5-38,35.8-76.9,72.5-94.5
					c15-7.2,31.6-10.3,48-12.7c42.6-6.1,87.5-7.3,127,9.6"/>
				<path class="st2" d="M918.6,697.6c-19.7-30.2-20.3-69-14.9-104.7c4.4-29.1,12.3-57.6,23.5-84.8c16.1-39.1,41.7-77.5,81-93
					c15.2-6,31.5-8.2,47.7-10c32.3-3.5,66.6-5.2,95.7,9.4"/>
				<path class="st2" d="M957.2,696.8c-1.9-9.3,4.2-18.5,11.9-24c7.7-5.4,17-8.1,25.7-11.8c22.4-9.7,41.2-27.6,52-49.5
					c6.4-13.1,10.1-27.3,16.3-40.5c11.2-23.5,30.7-43.8,34.2-69.6c1.4-10.3,0.1-20.7,0.8-31.1s3.9-21.3,12-27.7
					c7.6-6,18.4-6.9,27.8-4.4s17.7,8,25.6,13.6"/>
				<path class="st2" d="M1008.3,700.4c2.4-13.2,13.2-23.3,24.3-30.9s23.5-13.9,32.1-24.3c12.4-15,14.8-35.5,21.7-53.7
					c9.4-25.2,27.9-47.3,31.6-74c1-7.1,1-14.9,5.1-20.8c7.6-11.1,25.9-9.3,35.5,0.1"/>
				<path class="st2" d="M1061.1,690.8c42.1-29.7,38.5-99.5,80.9-128.8c3.5-2.4,7.7-4.5,11.8-3.3"/>
				<path class="st2" d="M949,589.4c-0.4,3.2-0.7,6.5,0.8,9.4c1.9,3.8,6.4,5.8,10.6,5.5s8.1-2.5,11.3-5.2
					c16-13.8,15.6-38.7,26.7-56.6c6.6-10.6,28.8-24,24.4-38c-5.3-16.8-22.4-0.8-30.1,5.7C969.1,530,952.9,558.7,949,589.4z"/>
			</g>
		</g>
	</g>
</g>
<path class="st3" d="M1031.5,559.9c0.8-2.1,1.5-4.3,2.5-6.4c3.2-6.4,7.2-12.4,9.6-19c6.2-16.9,17.4-28.5,33.9-35.3
	c13.1-5.4,26.2-10.7,37.8-18.9c5.4-3.8,10.3-8.3,15.1-12.7c4.6-4.2,9.5-7.7,15.8-9.9c0,6.7,0,12.9,0,19.1c0,0.7-0.4,1.6-1,2
	c-9.2,8.3-18.2,16.9-27.9,24.6c-6.6,5.3-14.8,7.7-23.2,8.4c-12.4,0.9-19.6,8.5-25.2,18.5c-4.9,8.7-9.9,17.3-14.8,26
	c-0.7,1.2-0.9,2.5-1.4,3.8C1045.7,559.9,1038.6,559.9,1031.5,559.9z"/>
<path class="st4" d="M839.1,559.9c4.6-8.5,9.5-16.9,13.8-25.6c13.5-26.9,23.2-55.3,32-84c7-23.1,14.2-46.2,20.6-69.5
	c7.8-28.5,25.3-49.3,49.8-64.9c20.4-13,42.1-23.3,65.2-30.3c20-6,38.9-15.2,58-23.3c22.3-9.5,44.9-18.5,67.3-27.8
	c1.3,2.5,0,3-1.7,3.7c-20.7,8.4-41.4,16.8-62.1,25.3c-18.6,7.6-37,15.4-55.7,22.9c-12.8,5.1-26.1,9.1-38.6,14.7
	c-17,7.6-33.1,16.9-47.4,29c-16,13.7-26.5,30.7-32.4,50.9c-9,30.9-18.1,61.7-28,92.3c-9.4,29.1-20.7,57.5-36.7,83.8
	c-0.5,0.8-0.7,1.9-1,2.8C841.4,559.9,840.2,559.9,839.1,559.9z"/>
<path class="st4" d="M904.1,559.9c0.4-1.2,0.7-2.4,1.3-3.4c8.7-17,18.4-33.7,26.1-51.2c11.6-26.6,23-53.4,30.3-81.6
	c5.5-21.3,18.1-37.3,35.4-50c6.3-4.6,13.1-8.7,19.8-12.8c14.7-8.9,29.4-17.9,44.3-26.5c8.2-4.8,17.3-6.9,26.8-7.3
	c11.8-0.6,23.7-1.5,35.5,0.7c1.1,0.2,2.2,0.5,3.3,0.7c6.4,1.5,12.8,3,19.7,4.6c-0.6,0.4-1.4,1.4-2.1,1.4c-3.3-0.2-6.8,0-9.8-1.1
	c-14.4-5.2-29.1-4.4-44-4c-14.8,0.5-27.5,5.9-39.7,14.1c-10.7,7.2-22,13.3-33.2,19.8c-14.7,8.5-28.6,18-39.3,31.5
	c-5.6,7-10,14.7-12.5,23.4c-6.2,21.7-14.3,42.8-22.3,63.9c-8.6,23-20.1,44.4-31.3,66.1c-2,3.9-3.9,7.9-5.8,11.9
	C906,559.9,905.1,559.9,904.1,559.9z"/>
<g>
	<path class="st5" d="M1000.7,271.8c-9.2-7.3-23.5-9.9-38.6-6c-16.6,4.3-24.3,28.5-24.8,43.8c-0.3,11.2,3.7,22.8,12.2,30.1
		c2.7,2.3,5.8,4.1,9.2,5c7.7,1.9,15.8-1.4,22.6-5.5c11.3-6.9,21.2-16.6,26.4-28.7C1015,293.4,1010.9,279.8,1000.7,271.8z"/>
</g>
<g>
	<g>
		<g>
			<defs>
				<rect id="SVGID_3_" x="-0.1" y="0.1" width="1146.6" height="559.7"/>
			</defs>
			<clipPath id="SVGID_4_">
				<use xlink:href="#SVGID_3_"  style="overflow:visible;"/>
			</clipPath>
			<g class="st6">
				<path class="st4" d="M-24.4,243.3c15.7,8,32.7,11.3,49.5,15.1c5.9,1.3,12,1.8,18,2.6c3.5,0.5,7,0.7,10.4,1.5
					c24.3,6,48.8,6.1,73.4,3.3c19.5-2.3,39-5.1,58.5-7.8c10.6-1.5,20.5-5.6,28.9-12.8c15.6-13.4,30.9-27.1,46.2-40.9
					c7.7-6.9,14-15.2,15.7-26.2c0.9-6.1,1.3-12.5,0.9-18.6c-1.3-20.9-3.1-41.8-8.6-62c-2.9-10.7-7.3-21-11.6-31.1
					c-3.1-7.2-7.2-13.8-11-20.6c-1-1.8-2.6-3.4-4.2-4.7c-10.2-8.5-18.2-19.3-26-30.3c-2.7-3.8-5.7-7.5-9-10.7
					c-12.5-12-24.8-24.4-37.4-36.2c-0.5-0.5-11.1-11-11.6-11.6c0.1-0.3,1.4-2.7,2.2-2c4.6,4,19.5,19.5,24,23.7
					c8,7.6,17,16.5,24.7,24.5c4.1,4.3,7.9,9.1,11.4,14c6.7,9.4,13.8,18.4,22.4,25.9c6.8,6,11.1,14.1,14.9,22.6
					c5.5,12.5,11.4,24.9,14.3,38.5c4.7,22.4,7.7,45.1,8.1,68c0.3,14.9-5.2,27.3-15.7,36.9c-12.3,11.2-24.7,22.3-37.2,33.2
					c-6.4,5.5-12.9,11.1-19.8,15.6c-9.7,6.2-20.8,7.8-31.8,9.1c-19.7,2.4-39.4,5.6-59.2,7.2c-20.8,1.7-41.5,0.9-62-4
					c-8.1-1.9-16.7-1.9-24.9-3.7c-17.5-3.7-35.2-6.7-51.5-14.9c-0.3-0.1-0.6-0.1-0.9-0.2C-23.7,245.5-24,244.4-24.4,243.3z"/>
				<path class="st4" d="M-17.9,186.3c19.8,8.4,39.1,17.9,57,30.9c15.5,11.2,33.3,16.4,51.2,20.8c8.1,2,16.4,1.6,24.4-0.6
					c19.1-5,38.3-10.2,55.3-21.6c15.1-10.1,29.6-21,40.1-37.2c8.3-13,14.2-27.5,18.2-42.7c2.4-9,2.2-18.8,3.1-28.3
					c0.1-1.2,0.1-2.5,0.3-3.8c1.5-13.2-2-24.5-9.4-35c-16.5-23.4-36.2-42.9-57.9-59.9c-10-7.8-19.7-16.1-29.6-24.2
					c-0.9-0.7-1.7-1.6-2.5-2.4c0.1-0.3,0.2-0.6,0.3-0.9c0.9,0.2,2.1,0.1,2.8,0.7c18.7,15.7,37.7,31,56,47.3
					c13.5,12,25.2,26.2,35.2,41.9c5.5,8.6,8.4,18,7.6,28.5c-0.8,10.6-1.6,21.3-2.5,31.9c-0.1,1.4-0.3,2.8-0.7,4.1
					c-6,19-12.3,38.1-25.1,52.8c-18.6,21.4-40.8,36.7-66.9,44.5c-4.8,1.4-9.6,3-14.3,4.6c-16,5.4-31.8,4.9-48-0.4
					c-18.4-6.1-35.7-14.2-51.6-26.3C15,203,3.5,198.8-7.6,193.6c-3.1-1.5-6.4-2.7-9.5-4C-17.4,188.5-17.6,187.4-17.9,186.3z"/>
				<path class="st4" d="M-20.2,146.5c12.9,8,26,15.7,38.7,24c14,9.2,27.8,18.9,43,25.8c15.4,6.9,30.9,7.8,46.8,1.8
					c14.2-5.3,27.6-12.1,39.9-21.4c10.2-7.7,16.4-17.7,16.6-31.7c0.1-5.3,0.8-10.6,1.9-15.7c2.5-11.4,0.6-22-2.9-32.7
					c-3.6-11-9.1-20.8-15-30.5c-8.3-13.5-16-27.5-24.3-41.1c-3.6-5.8-8.1-11-12.2-16.5c-0.4-0.5-1-0.9-1.2-1.5
					c-0.5-1.2-1.3-3.4-1-3.6c1.9-1.5,1.9,1,2.6,1.9c4.5,5.8,9.3,11.4,13.2,17.6c7.9,12.7,15.3,25.7,22.7,38.7
					c5,8.8,10.4,17.4,14.4,26.7c3.4,8,5.1,16.9,6.9,25.6c0.8,3.7,0,7.9-0.4,11.8c-0.8,7.2-2.1,14.4-2.6,21.6
					c-0.7,10.3-4.1,19.4-11.4,25.9c-18.6,16.6-39.9,27.3-63.8,31.1c-11.2,1.8-21.9-1.6-32.2-6.2c-14.7-6.5-27.9-16-41.4-24.8
					c-12.4-8.1-25-15.7-37.6-23.6C-19.6,148.6-19.9,147.6-20.2,146.5z"/>
			</g>
		</g>
		<g>
			<defs>
				<rect id="SVGID_5_" x="-0.1" y="0.1" width="1146.6" height="559.7"/>
			</defs>
			<clipPath id="SVGID_6_">
				<use xlink:href="#SVGID_5_"  style="overflow:visible;"/>
			</clipPath>
			<g class="st7">
				<path class="st8" d="M1146-22.3c6.1,3.9,11.5,9,16.4,14.1c23.8,25,41.1,63.9,24.5,97.3c-5.2,10.4-13.3,19.1-19.3,29
					c-4.2,7-7.5,14.7-13.1,20.5c-7,7.3-17,11.1-27,12.5s-20.2,0.6-30.3,0.1c-23.6-1.2-47.9-1.3-69.8-10.3c-4.2-1.8-8.5-4-11.2-7.7
					c-2.7-3.8-3.3-8.6-3.7-13.1c-1.4-14.2-1.7-28.5-1-42.7c1.5-28.5,7.6-57.9,24.9-80.7c4.4-5.8,9.6-11.2,16-14.6
					c7-3.8,15.1-5,22.9-6.1c15.8-2.3,31.6-4.7,47.6-5.4C1131.3-29.7,1139.1-26.8,1146-22.3z"/>
			</g>
		</g>
		<g>
			<defs>
				<rect id="SVGID_7_" x="-0.1" y="0.1" width="1146.6" height="559.7"/>
			</defs>
			<clipPath id="SVGID_8_">
				<use xlink:href="#SVGID_7_"  style="overflow:visible;"/>
			</clipPath>
			<path class="st9" d="M204.5,697.5c-24.6,6.5-44.1,10.1-64.1,11c-29.4,1.4-55.8-7.4-80.3-23c-18.7-11.9-34.8-26.6-48.5-43.8
				c-32.8-41.3-56.4-87.6-71.8-137.9c-9.8-32.2-11.5-65.2-6.3-98.5c0.7-4.6,1.9-9,3.1-13.5c6.2-22.9,19.5-32.4,44.3-35.7
				c5.5-0.7,10.9-0.2,16.3,0.9c19.9,3.9,38.4,11.2,55,23.2c15,10.9,29.1,22.8,42.8,35.1c13.9,12.5,27.9,24.9,41.9,37.4
				c17.6,15.7,37.6,26.6,60.4,32.5c13.9,3.6,27.7,7.4,41.4,11.6c21.7,6.5,42,16.1,60.4,29.4c15,10.9,27.4,24.1,34.1,41.8
				c7.6,20,5.7,39.2-6.3,57c-11.6,17.2-27.5,29.7-45.2,40C255.8,680.1,228.3,691.3,204.5,697.5z"/>
		</g>
	</g>
</g>
</svg>
