<?xml version="1.0" encoding="UTF-8" standalone="no"?>
<!DOCTYPE svg PUBLIC "-//W3C//DTD SVG 1.1//EN" "http://www.w3.org/Graphics/SVG/1.1/DTD/svg11.dtd">
<svg width="100%" height="100%" viewBox="0 0 636 410" version="1.1" xmlns="http://www.w3.org/2000/svg" xmlns:xlink="http://www.w3.org/1999/xlink" xml:space="preserve" xmlns:serif="http://www.serif.com/" style="fill-rule:evenodd;clip-rule:evenodd;stroke-miterlimit:10;">
    <g transform="matrix(1,0,0,1,13.9582,-17.7644)">
        <g transform="matrix(5.55556,0,0,5.55556,473.292,27.9163)">
            <path d="M0,56.816L24.049,56.754L-8.658,0L-18.928,18.081" style="fill:none;fill-rule:nonzero;stroke:rgb(128,128,131);stroke-width:1px;"/>
        </g>
        <g transform="matrix(5.55556,0,0,5.55556,379.108,162.126)">
            <path d="M0,4.088L22.997,4.034L8.296,0L-1.065,2.634" style="fill:none;fill-rule:nonzero;stroke:rgb(128,128,131);stroke-width:1px;"/>
        </g>
        <g transform="matrix(5.55556,0,0,5.55556,514.872,310.849)">
            <path d="M0,-21.978L-6.899,-10.343L-0.151,0L0,-21.978Z" style="fill:none;fill-rule:nonzero;stroke:rgb(128,128,131);stroke-width:1px;"/>
        </g>
        <g transform="matrix(5.55556,0,0,5.55556,448.134,161.843)">
            <path d="M0,25.302L5.113,16.478L-4.123,0L-9.454,9.15" style="fill:none;fill-rule:nonzero;stroke:rgb(128,128,131);stroke-width:1px;"/>
        </g>
        <g transform="matrix(5.55556,0,0,5.55556,440.87,84.1097)">
            <path d="M0,36.793L29.961,46.454L-2.671,-9.661L-2.638,32.359" style="fill:none;fill-rule:nonzero;stroke:rgb(128,128,131);stroke-width:1px;"/>
        </g>
        <g transform="matrix(5.55556,0,0,5.55556,463.499,313.101)">
            <path d="M0,2.831L8.641,0.428L-1.496,0" style="fill:none;fill-rule:nonzero;stroke:rgb(128,128,131);stroke-width:1px;"/>
        </g>
        <g transform="matrix(-2.80723,-4.79413,-4.79413,2.80723,325.421,89.1179)">
            <path d="M-5.036,2.887L1.655,2.887" style="fill:none;fill-rule:nonzero;stroke:rgb(245,171,181);stroke-width:1px;"/>
        </g>
        <g transform="matrix(-2.7983,-4.79935,-4.79935,2.7983,488.709,201.754)">
            <path d="M-31.634,18.174L10.441,18.174" style="fill:none;fill-rule:nonzero;stroke:rgb(245,171,181);stroke-width:1px;"/>
        </g>
        <g transform="matrix(-2.79025,-4.80403,-4.80403,2.79025,319.982,60.8576)">
            <path d="M-11.554,6.651L3.828,6.651" style="fill:none;fill-rule:nonzero;stroke:rgb(245,171,181);stroke-width:1px;"/>
        </g>
        <g transform="matrix(-2.77234,-4.81439,-4.81439,2.77234,458.444,214.862)">
            <path d="M-24.535,14.184L8.2,14.184" style="fill:none;fill-rule:nonzero;stroke:rgb(245,171,181);stroke-width:1px;"/>
        </g>
        <g transform="matrix(-2.79053,-4.80387,-4.80387,2.79053,509.857,192.081)">
            <path d="M-35.808,20.611L11.863,20.611" style="fill:none;fill-rule:nonzero;stroke:rgb(245,171,181);stroke-width:1px;"/>
        </g>
        <g transform="matrix(-5.55556,0,0,5.55556,4844.76,-11752)">
            <rect x="851.372" y="2171" width="0.405" height="4.401" style="fill:rgb(128,128,131);"/>
        </g>
        <g transform="matrix(5.55556,0,0,5.55556,138.922,309.152)">
            <path d="M0,4.401L-0.448,4.401L-2.91,0.619L-2.91,4.401L-3.314,4.401L-3.314,0L-2.867,0L-0.405,3.775L-0.405,0L0,0L0,4.401Z" style="fill:rgb(128,128,131);fill-rule:nonzero;"/>
        </g>
        <g transform="matrix(5.55556,0,0,5.55556,159.381,331.591)">
            <path d="M0,-3.677L-1.368,-3.677L-1.368,0.362L-1.773,0.362L-1.773,-3.677L-3.137,-3.677L-3.137,-4.039L0,-4.039L0,-3.677Z" style="fill:rgb(128,128,131);fill-rule:nonzero;"/>
        </g>
        <g transform="matrix(5.55556,0,0,5.55556,178.756,309.152)">
            <path d="M0,4.401L-2.947,4.401L-2.947,0L-0.074,0L-0.074,0.362L-2.541,0.362L-2.541,1.958L-0.282,1.958L-0.282,2.32L-2.541,2.32L-2.541,4.039L0,4.039L0,4.401Z" style="fill:rgb(128,128,131);fill-rule:nonzero;"/>
        </g>
        <g transform="matrix(5.55556,0,0,5.55556,198.021,327.057)">
            <path d="M0,-2.045C0,-2.376 -0.125,-2.605 -0.374,-2.732C-0.546,-2.818 -0.814,-2.861 -1.179,-2.861L-2.32,-2.861L-2.32,-1.154L-1.154,-1.154C-0.785,-1.154 -0.513,-1.21 -0.337,-1.32C-0.112,-1.46 0,-1.701 0,-2.045M0.448,1.178L0.007,1.178C-0.043,1.088 -0.075,0.936 -0.092,0.724C-0.108,0.462 -0.125,0.2 -0.141,-0.062C-0.17,-0.311 -0.239,-0.489 -0.35,-0.596C-0.488,-0.727 -0.718,-0.793 -1.037,-0.793L-2.32,-0.793L-2.32,1.178L-2.726,1.178L-2.726,-3.223L-1.179,-3.223C-0.691,-3.223 -0.325,-3.153 -0.08,-3.015C0.248,-2.83 0.411,-2.511 0.411,-2.057C0.411,-1.496 0.176,-1.134 -0.294,-0.97C-0.037,-0.884 0.131,-0.686 0.209,-0.375C0.237,-0.252 0.26,0.037 0.276,0.491C0.289,0.822 0.346,1.031 0.448,1.117L0.448,1.178Z" style="fill:rgb(128,128,131);fill-rule:nonzero;"/>
        </g>
        <g transform="matrix(-5.55556,0,0,5.55556,5029.4,-11752)">
            <rect x="867.989" y="2171" width="0.406" height="4.401" style="fill:rgb(128,128,131);"/>
        </g>
        <g transform="matrix(5.55556,0,0,5.55556,231.821,321.393)">
            <path d="M0,0C0,-0.556 -0.125,-1.01 -0.375,-1.363C-0.661,-1.76 -1.068,-1.958 -1.596,-1.958C-2.12,-1.958 -2.525,-1.757 -2.812,-1.356C-3.065,-1 -3.192,-0.548 -3.192,0C-3.192,0.553 -3.067,1.005 -2.817,1.357C-2.531,1.758 -2.124,1.958 -1.596,1.958C-1.068,1.958 -0.661,1.758 -0.375,1.357C-0.125,1.005 0,0.553 0,0M0.411,0C0.411,0.671 0.248,1.215 -0.08,1.633C-0.44,2.091 -0.945,2.32 -1.596,2.32C-2.247,2.32 -2.753,2.091 -3.112,1.633C-3.439,1.215 -3.604,0.671 -3.604,0C-3.604,-0.671 -3.439,-1.217 -3.112,-1.639C-2.753,-2.093 -2.247,-2.32 -1.596,-2.32C-0.945,-2.32 -0.44,-2.093 -0.08,-1.639C0.248,-1.221 0.411,-0.675 0.411,0" style="fill:rgb(128,128,131);fill-rule:nonzero;"/>
        </g>
        <g transform="matrix(5.55556,0,0,5.55556,253.609,327.057)">
            <path d="M0,-2.045C0,-2.376 -0.124,-2.605 -0.374,-2.732C-0.546,-2.818 -0.814,-2.861 -1.179,-2.861L-2.32,-2.861L-2.32,-1.154L-1.154,-1.154C-0.786,-1.154 -0.514,-1.21 -0.337,-1.32C-0.112,-1.46 0,-1.701 0,-2.045M0.448,1.178L0.007,1.178C-0.043,1.088 -0.075,0.936 -0.092,0.724C-0.108,0.462 -0.124,0.2 -0.141,-0.062C-0.17,-0.311 -0.239,-0.489 -0.35,-0.596C-0.488,-0.727 -0.718,-0.793 -1.037,-0.793L-2.32,-0.793L-2.32,1.178L-2.726,1.178L-2.726,-3.223L-1.179,-3.223C-0.691,-3.223 -0.325,-3.153 -0.08,-3.015C0.248,-2.83 0.411,-2.511 0.411,-2.057C0.411,-1.496 0.176,-1.134 -0.295,-0.97C-0.036,-0.884 0.131,-0.686 0.209,-0.375C0.237,-0.252 0.26,0.037 0.276,0.491C0.289,0.822 0.347,1.031 0.448,1.117L0.448,1.178Z" style="fill:rgb(128,128,131);fill-rule:nonzero;"/>
        </g>
        <g transform="matrix(5.55556,0,0,5.55556,295.216,321.36)">
            <path d="M0,0.006C0,-0.82 -0.21,-1.371 -0.632,-1.645C-0.775,-1.735 -0.966,-1.794 -1.203,-1.823C-1.317,-1.831 -1.522,-1.835 -1.817,-1.835L-2.621,-1.835L-2.621,1.841L-1.774,1.841C-1.226,1.841 -0.855,1.786 -0.663,1.676C-0.221,1.418 0,0.861 0,0.006M0.418,-0.006C0.418,1.013 0.11,1.686 -0.503,2.013C-0.74,2.14 -1.179,2.204 -1.817,2.204L-3.026,2.204L-3.026,-2.198L-1.694,-2.198C-1.093,-2.198 -0.665,-2.118 -0.411,-1.958C0.142,-1.615 0.418,-0.964 0.418,-0.006" style="fill:rgb(128,128,131);fill-rule:nonzero;"/>
        </g>
        <g transform="matrix(5.55556,0,0,5.55556,318.371,309.152)">
            <path d="M0,4.401L-2.946,4.401L-2.946,0L-0.073,0L-0.073,0.362L-2.541,0.362L-2.541,1.958L-0.282,1.958L-0.282,2.32L-2.541,2.32L-2.541,4.039L0,4.039L0,4.401Z" style="fill:rgb(128,128,131);fill-rule:nonzero;"/>
        </g>
        <g transform="matrix(5.55556,0,0,5.55556,338.803,315.592)">
            <path d="M0,2.088C0,2.509 -0.152,2.835 -0.455,3.064C-0.725,3.265 -1.077,3.364 -1.511,3.364C-2.019,3.364 -2.411,3.25 -2.689,3.021C-2.992,2.771 -3.144,2.401 -3.144,1.91L-2.732,1.91C-2.732,2.27 -2.615,2.546 -2.383,2.738C-2.165,2.915 -1.873,3.003 -1.505,3.003C-1.193,3.003 -0.941,2.937 -0.75,2.806C-0.524,2.655 -0.412,2.43 -0.412,2.131C-0.412,1.73 -0.639,1.449 -1.094,1.29C-1.515,1.171 -1.937,1.053 -2.357,0.934C-2.812,0.741 -3.039,0.398 -3.039,-0.098C-3.039,-0.482 -2.892,-0.781 -2.598,-0.994C-2.335,-1.182 -2.004,-1.276 -1.603,-1.276C-1.161,-1.276 -0.809,-1.166 -0.547,-0.945C-0.272,-0.707 -0.134,-0.372 -0.129,0.062L-0.541,0.062C-0.545,-0.261 -0.647,-0.509 -0.848,-0.681C-1.031,-0.836 -1.29,-0.914 -1.621,-0.914C-1.916,-0.914 -2.151,-0.853 -2.327,-0.73C-2.527,-0.582 -2.628,-0.368 -2.628,-0.085C-2.628,0.263 -2.4,0.51 -1.946,0.657C-1.525,0.784 -1.104,0.909 -0.682,1.032C-0.228,1.24 0,1.593 0,2.088" style="fill:rgb(128,128,131);fill-rule:nonzero;"/>
        </g>
        <g transform="matrix(-5.55556,0,0,5.55556,5305.82,-11752)">
            <rect x="892.868" y="2171" width="0.405" height="4.401" style="fill:rgb(128,128,131);"/>
        </g>
        <g transform="matrix(5.55556,0,0,5.55556,371.539,309.186)">
            <path d="M0,4.395L-0.325,4.395L-0.368,3.615C-0.508,3.91 -0.718,4.135 -1,4.291C-1.267,4.442 -1.565,4.518 -1.896,4.518C-2.548,4.518 -3.047,4.285 -3.395,3.818C-3.706,3.405 -3.861,2.86 -3.861,2.185C-3.861,1.514 -3.701,0.972 -3.383,0.559C-3.026,0.104 -2.522,-0.123 -1.872,-0.123C-1.39,-0.123 -0.99,-0.013 -0.675,0.208C-0.331,0.454 -0.125,0.808 -0.055,1.27L-0.473,1.27C-0.534,0.935 -0.7,0.675 -0.97,0.491C-1.215,0.323 -1.515,0.239 -1.866,0.239C-2.414,0.239 -2.823,0.432 -3.094,0.816C-3.331,1.152 -3.45,1.606 -3.45,2.179C-3.45,2.723 -3.333,3.173 -3.1,3.53C-2.825,3.947 -2.431,4.156 -1.915,4.156C-1.416,4.156 -1.033,4.002 -0.768,3.695C-0.514,3.405 -0.387,3.006 -0.387,2.498L-1.829,2.498L-1.829,2.136L0,2.136L0,4.395Z" style="fill:rgb(128,128,131);fill-rule:nonzero;"/>
        </g>
        <g transform="matrix(5.55556,0,0,5.55556,394.831,309.152)">
            <path d="M0,4.401L-0.448,4.401L-2.91,0.619L-2.91,4.401L-3.314,4.401L-3.314,0L-2.867,0L-0.405,3.775L-0.405,0L0,0L0,4.401Z" style="fill:rgb(128,128,131);fill-rule:nonzero;"/>
        </g>
        <g transform="matrix(-0.00451957,-5.55555,-5.55555,0.00451957,33.416,158.521)">
            <rect x="-5.057" y="5.054" width="11.062" height="0.956" style="fill:rgb(88,89,91);"/>
        </g>
        <g transform="matrix(5.55556,0,0,5.55556,20.1233,125.122)">
            <path d="M0,11.071L-0.009,0.008L0.916,0.008L9.021,9.656L9.013,0.001L9.898,0L9.908,11.063L9.085,11.063L0.877,1.289L0.886,11.07L0,11.071Z" style="fill:rgb(88,89,91);fill-rule:nonzero;"/>
        </g>
        <g transform="matrix(5.55556,0,0,5.55556,105.874,125.076)">
            <path d="M0,11.066L-0.009,0.803L-4.128,0.806L-4.129,0.007L5.059,0L5.06,0.798L0.94,0.802L0.949,11.065L0,11.066Z" style="fill:rgb(88,89,91);fill-rule:nonzero;"/>
        </g>
        <g transform="matrix(5.55556,0,0,5.55556,141.852,125.041)">
            <path d="M0,11.067L-0.01,0.004L5.984,0L5.985,0.712L0.877,0.715L0.881,5.104L5.822,5.1L5.823,5.812L0.881,5.816L0.885,10.323L6.119,10.318L6.12,11.062L0,11.067Z" style="fill:rgb(88,89,91);fill-rule:nonzero;"/>
        </g>
        <g transform="matrix(5.55556,0,0,5.55556,191.093,182.34)">
            <path d="M0,-9.573L0.003,-5.327L0.684,-5.327C1.526,-5.328 2.112,-5.35 2.438,-5.392C2.766,-5.435 3.04,-5.506 3.261,-5.607C3.667,-5.786 3.971,-6.037 4.174,-6.359C4.376,-6.68 4.478,-7.078 4.477,-7.553C4.477,-8.196 4.248,-8.694 3.792,-9.047C3.335,-9.4 2.688,-9.575 1.85,-9.575L0,-9.573ZM-0.887,-10.316L1.802,-10.318C2.978,-10.319 3.879,-10.081 4.507,-9.605C5.135,-9.128 5.449,-8.444 5.449,-7.553C5.45,-6.874 5.275,-6.309 4.925,-5.861C4.575,-5.413 4.047,-5.074 3.341,-4.847C3.541,-4.732 3.723,-4.597 3.887,-4.445C4.05,-4.292 4.198,-4.118 4.33,-3.923L7.378,0.74L6.374,0.74L4.608,-1.978C4.26,-2.511 3.959,-2.949 3.706,-3.294C3.452,-3.639 3.252,-3.886 3.104,-4.033C2.909,-4.228 2.65,-4.366 2.329,-4.448C2.007,-4.529 1.535,-4.569 0.913,-4.569L0.004,-4.568L0.009,0.746L-0.877,0.746L-0.887,-10.316Z" style="fill:rgb(88,89,91);fill-rule:nonzero;"/>
        </g>
        <g transform="matrix(-0.0050222,-5.55555,-5.55555,0.0050222,270.232,158.312)">
            <rect x="-5.058" y="5.052" width="11.062" height="0.957" style="fill:rgb(88,89,91);"/>
        </g>
        <g transform="matrix(5.55556,0,0,5.55556,258.719,155.804)">
            <path d="M0,-0.023C0.001,0.625 0.124,1.254 0.369,1.862C0.615,2.471 0.962,3.007 1.41,3.471C1.859,3.924 2.384,4.277 2.985,4.529C3.586,4.782 4.206,4.907 4.844,4.907C5.503,4.906 6.124,4.783 6.709,4.538C7.294,4.292 7.815,3.935 8.274,3.465C8.732,3.001 9.082,2.468 9.324,1.867C9.566,1.266 9.687,0.633 9.687,-0.031C9.686,-0.695 9.565,-1.322 9.325,-1.913C9.085,-2.503 8.732,-3.032 8.269,-3.502C7.81,-3.964 7.283,-4.323 6.689,-4.575C6.097,-4.828 5.479,-4.954 4.835,-4.953C4.197,-4.953 3.583,-4.827 2.993,-4.576C2.403,-4.325 1.873,-3.965 1.404,-3.496C0.952,-3.042 0.604,-2.516 0.362,-1.917C0.12,-1.318 0,-0.687 0,-0.023M-0.973,-0.062C-0.973,-0.805 -0.826,-1.523 -0.531,-2.217C-0.237,-2.91 0.182,-3.523 0.725,-4.056C1.282,-4.6 1.913,-5.014 2.617,-5.299C3.32,-5.585 4.06,-5.728 4.835,-5.728C5.62,-5.729 6.364,-5.587 7.068,-5.303C7.772,-5.019 8.399,-4.606 8.948,-4.064C9.507,-3.516 9.931,-2.9 10.219,-2.218C10.506,-1.536 10.65,-0.807 10.651,-0.032C10.651,0.548 10.569,1.109 10.403,1.652C10.238,2.196 9.992,2.702 9.665,3.171C9.118,3.978 8.424,4.602 7.584,5.043C6.743,5.484 5.83,5.705 4.844,5.706C4.064,5.706 3.316,5.562 2.603,5.273C1.888,4.983 1.264,4.573 0.731,4.04C0.177,3.488 -0.245,2.861 -0.536,2.16C-0.826,1.459 -0.972,0.719 -0.973,-0.062" style="fill:rgb(88,89,91);fill-rule:nonzero;"/>
        </g>
        <g transform="matrix(5.55556,0,0,5.55556,333.508,182.224)">
            <path d="M0,-9.574L0.004,-5.327L0.684,-5.328C1.527,-5.329 2.112,-5.35 2.439,-5.393C2.766,-5.435 3.04,-5.507 3.261,-5.607C3.667,-5.787 3.971,-6.037 4.174,-6.359C4.377,-6.681 4.478,-7.079 4.478,-7.553C4.477,-8.197 4.248,-8.694 3.792,-9.047C3.336,-9.4 2.688,-9.576 1.851,-9.575L0,-9.574ZM-0.886,-10.316L1.803,-10.319C2.978,-10.32 3.88,-10.082 4.507,-9.605C5.135,-9.129 5.449,-8.445 5.45,-7.554C5.45,-6.874 5.275,-6.31 4.926,-5.862C4.575,-5.413 4.047,-5.075 3.341,-4.848C3.541,-4.732 3.724,-4.598 3.887,-4.446C4.051,-4.292 4.198,-4.119 4.33,-3.924L7.378,0.739L6.374,0.74L4.608,-1.979C4.26,-2.511 3.959,-2.949 3.706,-3.295C3.453,-3.639 3.252,-3.886 3.104,-4.033C2.909,-4.228 2.65,-4.366 2.329,-4.448C2.008,-4.529 1.535,-4.57 0.914,-4.569L0.004,-4.569L0.009,0.745L-0.877,0.746L-0.886,-10.316Z" style="fill:rgb(88,89,91);fill-rule:nonzero;"/>
        </g>
        <g transform="matrix(5.55556,0,0,5.55556,161.676,199.854)">
            <path d="M0,15.918L0,1.149L-5.929,1.149L-5.929,0L7.293,0L7.293,1.149L1.365,1.149L1.365,15.918L0,15.918Z" style="fill:rgb(88,89,91);fill-rule:nonzero;"/>
        </g>
        <g transform="matrix(5.55556,0,0,5.55556,-4617.18,-11906.6)">
            <rect x="869.581" y="2179.16" width="1.377" height="15.918" style="fill:rgb(88,89,91);"/>
        </g>
        <g transform="matrix(5.55556,0,0,5.55556,284.365,275.833)">
            <path d="M0,-11.412C-0.659,-11.859 -1.287,-12.19 -1.883,-12.402C-2.479,-12.614 -3.068,-12.721 -3.652,-12.721C-4.615,-12.721 -5.404,-12.438 -6.019,-11.873C-6.633,-11.308 -6.94,-10.597 -6.94,-9.74C-6.94,-9.041 -6.743,-8.473 -6.349,-8.033C-5.954,-7.593 -5.104,-7.096 -3.8,-6.542C-3.724,-6.512 -3.61,-6.466 -3.458,-6.406C-1.987,-5.807 -1.005,-5.23 -0.512,-4.676C-0.17,-4.305 0.09,-3.88 0.268,-3.402C0.446,-2.924 0.535,-2.415 0.535,-1.877C0.535,-0.61 0.096,0.431 -0.785,1.246C-1.664,2.062 -2.791,2.469 -4.164,2.469C-4.854,2.469 -5.539,2.352 -6.218,2.117C-6.896,1.881 -7.581,1.529 -8.271,1.058L-8.271,-0.489C-7.521,0.095 -6.81,0.529 -6.138,0.814C-5.467,1.098 -4.816,1.24 -4.187,1.24C-3.147,1.24 -2.324,0.956 -1.718,0.387C-1.11,-0.182 -0.808,-0.955 -0.808,-1.934C-0.808,-2.655 -1.014,-3.245 -1.428,-3.704C-1.841,-4.162 -2.783,-4.699 -4.255,-5.313C-5.779,-5.943 -6.822,-6.578 -7.384,-7.219C-7.945,-7.86 -8.226,-8.678 -8.226,-9.671C-8.226,-10.907 -7.8,-11.918 -6.945,-12.704C-6.093,-13.489 -4.979,-13.881 -3.606,-13.881C-2.984,-13.881 -2.377,-13.796 -1.786,-13.625C-1.194,-13.454 -0.599,-13.191 0,-12.834L0,-11.412Z" style="fill:rgb(88,89,91);fill-rule:nonzero;"/>
        </g>
        <g transform="matrix(5.55556,0,0,5.55556,325.457,199.854)">
            <path d="M0,15.918L0,1.149L-5.928,1.149L-5.928,0L7.293,0L7.293,1.149L1.365,1.149L1.365,15.918L0,15.918Z" style="fill:rgb(88,89,91);fill-rule:nonzero;"/>
        </g>
    </g>
</svg>
